<svg width="512" height="512" viewBox="0 0 512 512" fill="none" xmlns="http://www.w3.org/2000/svg">
<g clip-path="url(#clip0_8_239)">
<path d="M304.934 385.914V394.628H207.556V385.914H0V389.498C0 395.14 2.04792 400.772 6.15375 404.877C10.2496 408.973 15.8913 411.031 21.5331 411.031H490.465C496.107 411.031 501.738 408.983 505.844 404.877C509.94 400.782 511.998 395.14 511.998 389.498V385.914H304.934ZM68.6772 400.26H47.1531V397.7H68.6772V400.26ZM60.9865 377.712H450.992C454.575 377.712 458.169 376.177 460.729 373.617C463.289 371.057 464.825 367.463 464.825 363.879V114.801C464.825 111.217 463.289 107.624 460.729 105.064C458.169 102.504 454.575 100.968 450.992 100.968H60.9865C57.4026 100.968 53.8088 102.504 51.2489 105.064C48.689 107.624 47.1531 111.217 47.1531 114.801V363.869C47.1531 367.453 48.689 371.047 51.2489 373.607C54.3208 376.689 57.4026 377.712 60.9865 377.712ZM256.246 107.122C258.805 107.122 260.853 109.17 260.853 111.729C260.853 114.289 258.805 116.337 256.246 116.337C253.686 116.337 251.638 114.289 251.638 111.729C251.638 109.17 253.686 107.122 256.246 107.122ZM69.1892 122.491H443.313V356.188H69.1892V122.491Z" fill="#353531"/>
<path d="M149.07 226V256H144.383V226H149.07ZM148.25 244.652L146.727 244.633C146.74 243.174 146.941 241.827 147.332 240.59C147.736 239.353 148.296 238.279 149.012 237.367C149.741 236.443 150.613 235.733 151.629 235.238C152.645 234.73 153.771 234.477 155.008 234.477C156.049 234.477 156.987 234.62 157.82 234.906C158.667 235.193 159.396 235.655 160.008 236.293C160.62 236.918 161.082 237.738 161.395 238.754C161.72 239.757 161.883 240.98 161.883 242.426V256H157.156V242.387C157.156 241.371 157.007 240.564 156.707 239.965C156.421 239.366 155.997 238.936 155.438 238.676C154.878 238.402 154.194 238.266 153.387 238.266C152.54 238.266 151.792 238.435 151.141 238.773C150.503 239.112 149.969 239.574 149.539 240.16C149.109 240.746 148.784 241.423 148.562 242.191C148.354 242.96 148.25 243.78 148.25 244.652ZM176.336 234.867V238.305H164.422V234.867H176.336ZM167.859 229.691H172.566V250.16C172.566 250.811 172.658 251.312 172.84 251.664C173.035 252.003 173.302 252.23 173.641 252.348C173.979 252.465 174.376 252.523 174.832 252.523C175.158 252.523 175.47 252.504 175.77 252.465C176.069 252.426 176.31 252.387 176.492 252.348L176.512 255.941C176.121 256.059 175.665 256.163 175.145 256.254C174.637 256.345 174.051 256.391 173.387 256.391C172.306 256.391 171.349 256.202 170.516 255.824C169.682 255.434 169.031 254.802 168.562 253.93C168.094 253.057 167.859 251.898 167.859 250.453V229.691ZM189.656 234.867V238.305H177.742V234.867H189.656ZM181.18 229.691H185.887V250.16C185.887 250.811 185.978 251.312 186.16 251.664C186.355 252.003 186.622 252.23 186.961 252.348C187.299 252.465 187.697 252.523 188.152 252.523C188.478 252.523 188.79 252.504 189.09 252.465C189.389 252.426 189.63 252.387 189.812 252.348L189.832 255.941C189.441 256.059 188.986 256.163 188.465 256.254C187.957 256.345 187.371 256.391 186.707 256.391C185.626 256.391 184.669 256.202 183.836 255.824C183.003 255.434 182.352 254.802 181.883 253.93C181.414 253.057 181.18 251.898 181.18 250.453V229.691ZM198.016 238.93V264.125H193.309V234.867H197.645L198.016 238.93ZM211.785 245.238V245.648C211.785 247.185 211.603 248.611 211.238 249.926C210.887 251.228 210.359 252.367 209.656 253.344C208.966 254.307 208.113 255.056 207.098 255.59C206.082 256.124 204.91 256.391 203.582 256.391C202.267 256.391 201.115 256.15 200.125 255.668C199.148 255.173 198.322 254.477 197.645 253.578C196.967 252.68 196.421 251.625 196.004 250.414C195.6 249.19 195.314 247.849 195.145 246.391V244.809C195.314 243.259 195.6 241.853 196.004 240.59C196.421 239.327 196.967 238.24 197.645 237.328C198.322 236.417 199.148 235.714 200.125 235.219C201.102 234.724 202.241 234.477 203.543 234.477C204.871 234.477 206.049 234.737 207.078 235.258C208.107 235.766 208.973 236.495 209.676 237.445C210.379 238.383 210.906 239.516 211.258 240.844C211.609 242.159 211.785 243.624 211.785 245.238ZM207.078 245.648V245.238C207.078 244.262 206.987 243.357 206.805 242.523C206.622 241.677 206.336 240.935 205.945 240.297C205.555 239.659 205.053 239.164 204.441 238.812C203.842 238.448 203.12 238.266 202.273 238.266C201.44 238.266 200.724 238.409 200.125 238.695C199.526 238.969 199.025 239.353 198.621 239.848C198.217 240.342 197.905 240.922 197.684 241.586C197.462 242.237 197.306 242.947 197.215 243.715V247.504C197.371 248.441 197.638 249.301 198.016 250.082C198.393 250.863 198.927 251.488 199.617 251.957C200.32 252.413 201.219 252.641 202.312 252.641C203.159 252.641 203.882 252.458 204.48 252.094C205.079 251.729 205.568 251.228 205.945 250.59C206.336 249.939 206.622 249.19 206.805 248.344C206.987 247.497 207.078 246.599 207.078 245.648ZM227.645 250.277C227.645 249.809 227.527 249.385 227.293 249.008C227.059 248.617 226.609 248.266 225.945 247.953C225.294 247.641 224.331 247.354 223.055 247.094C221.935 246.846 220.906 246.553 219.969 246.215C219.044 245.863 218.25 245.44 217.586 244.945C216.922 244.451 216.408 243.865 216.043 243.188C215.678 242.51 215.496 241.729 215.496 240.844C215.496 239.984 215.685 239.171 216.062 238.402C216.44 237.634 216.98 236.957 217.684 236.371C218.387 235.785 219.24 235.323 220.242 234.984C221.258 234.646 222.391 234.477 223.641 234.477C225.411 234.477 226.928 234.776 228.191 235.375C229.467 235.961 230.444 236.762 231.121 237.777C231.798 238.78 232.137 239.913 232.137 241.176H227.43C227.43 240.616 227.286 240.095 227 239.613C226.727 239.118 226.31 238.721 225.75 238.422C225.19 238.109 224.487 237.953 223.641 237.953C222.833 237.953 222.163 238.083 221.629 238.344C221.108 238.591 220.717 238.917 220.457 239.32C220.21 239.724 220.086 240.167 220.086 240.648C220.086 241 220.151 241.319 220.281 241.605C220.424 241.879 220.659 242.133 220.984 242.367C221.31 242.589 221.753 242.797 222.312 242.992C222.885 243.188 223.602 243.376 224.461 243.559C226.076 243.897 227.462 244.333 228.621 244.867C229.793 245.388 230.691 246.065 231.316 246.898C231.941 247.719 232.254 248.76 232.254 250.023C232.254 250.961 232.052 251.82 231.648 252.602C231.258 253.37 230.685 254.04 229.93 254.613C229.174 255.173 228.27 255.609 227.215 255.922C226.173 256.234 225.001 256.391 223.699 256.391C221.785 256.391 220.164 256.052 218.836 255.375C217.508 254.685 216.499 253.806 215.809 252.738C215.132 251.658 214.793 250.538 214.793 249.379H219.344C219.396 250.251 219.637 250.948 220.066 251.469C220.509 251.977 221.056 252.348 221.707 252.582C222.371 252.803 223.055 252.914 223.758 252.914C224.604 252.914 225.314 252.803 225.887 252.582C226.46 252.348 226.896 252.035 227.195 251.645C227.495 251.241 227.645 250.785 227.645 250.277ZM236.434 253.656C236.434 252.927 236.681 252.315 237.176 251.82C237.671 251.312 238.341 251.059 239.188 251.059C240.047 251.059 240.717 251.312 241.199 251.82C241.694 252.315 241.941 252.927 241.941 253.656C241.941 254.385 241.694 254.997 241.199 255.492C240.717 255.987 240.047 256.234 239.188 256.234C238.341 256.234 237.671 255.987 237.176 255.492C236.681 254.997 236.434 254.385 236.434 253.656ZM236.453 237.016C236.453 236.286 236.701 235.674 237.195 235.18C237.69 234.672 238.361 234.418 239.207 234.418C240.066 234.418 240.737 234.672 241.219 235.18C241.714 235.674 241.961 236.286 241.961 237.016C241.961 237.745 241.714 238.357 241.219 238.852C240.737 239.346 240.066 239.594 239.207 239.594C238.361 239.594 237.69 239.346 237.195 238.852C236.701 238.357 236.453 237.745 236.453 237.016ZM259.285 227.562L248.211 258.441H244.52L255.613 227.562H259.285ZM270.379 227.562L259.305 258.441H255.613L266.707 227.562H270.379ZM279.383 251.312L284.266 234.867H287.273L286.453 239.789L281.531 256H278.836L279.383 251.312ZM276.512 234.867L280.32 251.391L280.633 256H277.625L271.902 234.867H276.512ZM291.844 251.195L295.535 234.867H300.125L294.422 256H291.414L291.844 251.195ZM287.781 234.867L292.605 251.117L293.211 256H290.516L285.535 239.77L284.715 234.867H287.781ZM309.07 251.312L313.953 234.867H316.961L316.141 239.789L311.219 256H308.523L309.07 251.312ZM306.199 234.867L310.008 251.391L310.32 256H307.312L301.59 234.867H306.199ZM321.531 251.195L325.223 234.867H329.812L324.109 256H321.102L321.531 251.195ZM317.469 234.867L322.293 251.117L322.898 256H320.203L315.223 239.77L314.402 234.867H317.469ZM338.758 251.312L343.641 234.867H346.648L345.828 239.789L340.906 256H338.211L338.758 251.312ZM335.887 234.867L339.695 251.391L340.008 256H337L331.277 234.867H335.887ZM351.219 251.195L354.91 234.867H359.5L353.797 256H350.789L351.219 251.195ZM347.156 234.867L351.98 251.117L352.586 256H349.891L344.91 239.77L344.09 234.867H347.156ZM360.477 253.656C360.477 252.927 360.724 252.315 361.219 251.82C361.714 251.312 362.384 251.059 363.23 251.059C364.09 251.059 364.76 251.312 365.242 251.82C365.737 252.315 365.984 252.927 365.984 253.656C365.984 254.385 365.737 254.997 365.242 255.492C364.76 255.987 364.09 256.234 363.23 256.234C362.384 256.234 361.714 255.987 361.219 255.492C360.724 254.997 360.477 254.385 360.477 253.656Z" fill="#EF8354"/>
</g>
<defs>
<clipPath id="clip0_8_239">
<rect width="512" height="512" fill="white"/>
</clipPath>
</defs>
</svg>
