<svg width="512" height="512" viewBox="0 0 512 512" fill="none" xmlns="http://www.w3.org/2000/svg">
<path d="M494.457 279.736L203.779 378.769L46.775 147.765L204.631 70.241L443.502 130.364L494.457 279.736Z" fill="#EF8354"/>
<path d="M81.019 228.079L126.957 10.919L512 115.323L428.477 345.013L257.026 378.769L81.019 228.079Z" fill="#F5F2C5"/>
<path d="M337.638 213.058C336.026 217.547 333.975 221.481 331.493 224.876C329.005 228.267 326.16 230.973 322.953 232.986C319.746 235.003 316.216 236.215 312.365 236.635C308.51 237.059 304.473 236.5 300.248 234.983C299.212 234.611 298.406 234.278 297.833 233.973C297.259 233.668 296.696 233.078 296.137 232.19C295.883 231.806 295.472 230.788 294.903 229.12C294.287 227.311 293.698 225.492 293.136 223.665C292.57 221.819 291.99 219.978 291.395 218.142C290.84 216.439 290.509 215.321 290.404 214.795C290.163 215.195 289.766 215.758 289.216 216.483C288.644 217.233 288.061 217.973 287.467 218.705C286.878 219.434 286.26 220.139 285.613 220.817C284.989 221.467 284.486 221.923 284.101 222.172C283.101 222.786 281.888 223.182 280.466 223.349C279.04 223.519 277.568 223.551 276.051 223.444C274.555 223.341 273.069 223.125 271.606 222.798C270.162 222.477 268.967 222.136 268.02 221.8C265.603 220.929 263.598 219.875 262.004 218.619C260.32 217.332 259.104 215.438 258.351 212.922C257.596 210.41 257.144 207.74 256.992 204.911C256.841 202.078 256.962 199.301 257.358 196.568C257.754 193.842 258.281 191.564 258.931 189.754C259.179 189.065 259.498 188.375 259.89 187.694C260.284 187.001 260.864 186.41 261.629 185.903C262.54 185.257 264.466 185.051 267.405 185.277C270.341 185.507 273.53 185.919 276.967 186.517C280.404 187.123 283.684 187.816 286.814 188.593C289.942 189.377 292.107 189.987 293.317 190.423C294.008 190.673 294.547 191.204 294.932 192.024C295.318 192.848 295.582 193.743 295.72 194.718C295.855 195.697 295.918 196.663 295.912 197.638C295.902 198.608 295.851 199.365 295.752 199.912C296.715 198.312 297.554 196.521 298.268 194.536C298.95 192.638 299.421 191.054 299.682 189.786C299.944 188.514 299.86 187.464 299.428 186.624C299 185.792 298.24 185.055 297.154 184.421C296.064 183.787 294.571 183.126 292.675 182.444C288.88 181.082 284.975 180.047 281.003 179.35C277.019 178.647 273.015 178.061 268.997 177.595L273.575 161.997C280.321 163.44 286.962 165.338 293.452 167.678C294.746 168.142 296.537 168.854 298.816 169.821C301.192 170.834 303.518 171.962 305.785 173.2C308.149 174.488 310.272 175.886 312.17 177.392C314.06 178.906 315.28 180.387 315.829 181.853C316.096 182.733 316.012 184.254 315.57 186.433C315.086 188.783 314.517 191.114 313.864 193.422C313.21 195.764 312.496 198.089 311.724 200.395C311.215 201.917 310.694 203.434 310.161 204.947C308.114 210.644 305.895 216.277 303.507 221.84L311.51 225.592C312.404 225.091 313.293 224.583 314.178 224.067C315.069 223.546 315.931 222.977 316.761 222.363C317.704 221.63 318.706 220.41 319.76 218.694C320.875 216.87 321.912 215 322.868 213.088C323.865 211.117 324.781 209.107 325.615 207.062C326.288 205.431 326.929 203.787 327.537 202.13C328.28 200.058 328.943 197.665 329.53 194.955C330.115 192.227 330.499 189.459 330.679 186.675C330.86 183.916 330.778 181.146 330.433 178.403C330.091 175.701 329.377 173.276 328.298 171.137C326.024 166.621 323.025 163.178 319.294 160.813C315.564 158.452 311.37 156.435 306.711 154.763C303.433 153.582 300.362 152.774 297.501 152.326C294.671 151.889 291.81 151.693 288.947 151.74C286.04 151.799 283.147 152.154 280.312 152.798C277.195 153.514 274.101 154.328 271.035 155.239C265.425 157.03 260.639 159.835 256.681 163.674C252.721 167.509 249.734 172.232 247.719 177.838C245.81 183.125 244.729 188.675 244.514 194.292C244.294 199.914 245.033 205.246 246.729 210.29C248.425 215.334 251.111 219.85 254.789 223.843C258.466 227.849 263.236 230.899 269.103 233.007C270.139 233.379 271.441 233.752 273.016 234.117C274.585 234.489 276.201 234.806 277.865 235.06C279.525 235.318 281.145 235.413 282.728 235.345C284.309 235.282 285.628 235 286.684 234.501L296.533 244.913C294.057 246.648 291.472 247.813 288.775 248.404C286.081 248.994 283.363 249.236 280.626 249.133C277.841 249.016 275.078 248.587 272.389 247.853C269.688 247.12 267.017 246.282 264.382 245.341C256.442 242.488 249.941 238.415 244.874 233.142C239.806 227.865 236.079 221.902 233.698 215.247C231.313 208.599 230.223 201.535 230.425 194.059C230.627 186.583 232.046 179.179 234.68 171.845C236.354 167.182 238.606 163.077 241.447 159.516C244.259 155.979 247.527 152.83 251.165 150.15C254.845 147.445 258.824 145.173 263.023 143.379C267.297 141.545 271.7 140.026 276.196 138.834C280.803 137.666 285.262 137.392 289.567 138.014C293.873 138.636 298.267 139.749 302.756 141.362C306.033 142.538 309.685 144.167 313.71 146.251C317.754 148.338 321.632 150.731 325.31 153.41C329.018 156.104 332.247 159.044 335.001 162.221C337.752 165.406 339.541 168.702 340.363 172.11C340.997 174.677 341.367 177.787 341.47 181.424C341.573 185.065 341.498 188.809 341.234 192.66C340.981 196.419 340.538 200.162 339.909 203.876C339.294 207.495 338.535 210.554 337.638 213.058ZM285.912 209.817C286.655 207.749 286.55 205.661 285.599 203.569C284.648 201.469 283.091 200.039 280.936 199.266C278.174 198.272 275.629 198.307 273.301 199.373C270.967 200.431 269.296 202.384 268.272 205.232C267.434 207.566 267.481 209.871 268.416 212.149C269.347 214.435 271.023 216.008 273.44 216.875C274.819 217.37 276.156 217.509 277.454 217.295C278.733 217.086 279.96 216.635 281.071 215.968C282.198 215.291 283.185 214.407 283.981 213.361C284.807 212.288 285.458 211.092 285.912 209.817Z" fill="#016FB9"/>
<path d="M494.457 279.736L410.926 501.081L0 392.517L46.775 147.765L227.188 333.206L494.457 279.736Z" fill="#FFB370"/>
<path d="M222.408 353.612L221.616 352.82C141.474 272.678 45.776 176.835 44.987 175.358L46.776 174.403L48.385 173.171C51.089 176.41 163.763 289.229 223.692 349.16L484.777 289.57L485.68 293.524L222.408 353.612Z" fill="#EF8354"/>
</svg>
