<svg width="512" height="512" viewBox="0 0 512 512" fill="none" xmlns="http://www.w3.org/2000/svg">
<path d="M265 407.09C262.36 397.85 252.85 319.81 244.22 287.44C235.59 255.07 192.12 241.44 192.12 241.44L203.7 359.79L210.57 469.14H357.48L363.82 438.89C363.82 438.89 267.65 416.34 265 407.09Z" fill="#E73F46"/>
<mask id="mask0_1_2" style="mask-type:luminance" maskUnits="userSpaceOnUse" x="122" y="160" width="56" height="112">
<path d="M122.61 160.59H177.75V271.04H122.61V160.59Z" fill="white"/>
</mask>
<g mask="url(#mask0_1_2)">
<path d="M122.61 160.59H177.75V271.04H122.61V160.59Z" fill="#F5B493"/>
<path d="M123.27 172.32C128.53 203.94 151.83 227.05 182.87 234.39V193.45L123.27 172.32Z" fill="#EBA284"/>
</g>
<path d="M150.07 231.67C112.92 230.67 89.07 242.11 77.94 248.58C66.38 255.32 60.87 261.27 59.44 262.85C43.33 280.72 41.79 303.26 40.95 318.85C33.5 455.79 34.34 466.61 61.73 475.11C95.98 485.74 125.2 481.5 168.83 475.49C179.75 473.99 201.59 471 231.54 467.02L220.26 426.17L107.53 416.17C112.563 385.857 117.59 355.543 122.61 325.23C129.068 316.769 134.462 307.547 138.67 297.77C143.22 287.26 148.94 263.4 150.07 231.67Z" fill="#E73F46"/>
<path d="M160.44 234.82C160.44 234.82 213.51 239.66 228.38 265.09C243.25 290.52 244.22 460.85 244.22 460.85L83.57 468.56L87.21 298.23L160.44 234.82Z" fill="#E73F46"/>
<path d="M122.61 234.87C122.61 234.87 136.61 266.55 152.18 266.02C167.75 265.49 177.75 237.39 177.75 237.39C177.75 237.39 151.43 216.67 122.61 234.87Z" fill="#F5B493"/>
<path d="M122.61 215.68C120.803 215.795 119.064 216.413 117.59 217.464C116.117 218.516 114.966 219.959 114.27 221.63C111.89 227.44 106.79 236.52 106.79 236.52C106.79 236.52 121 284.52 128.67 286.89C136.34 289.26 150.18 266 150.18 266C141.643 260.694 134.62 253.274 129.79 244.459C124.961 235.643 122.487 225.731 122.61 215.68ZM177.75 219.69C177.75 219.69 182.21 219.87 183.98 223.57C185.75 227.27 192.12 240.85 192.12 240.85C192.12 240.85 184.12 276.32 174.9 281.85C165.68 287.38 152.18 266 152.18 266C152.18 266 174.25 254.74 177.75 219.69Z" fill="#E73F46"/>
<path d="M106.79 236.52C107.898 249.935 111.842 262.962 118.36 274.74C121.78 280.83 130.54 296.47 138.18 295.08C147.38 293.41 155.97 262.22 152.18 270.77C152.28 270.77 152.18 270.77 137.39 289.53C123.628 274.171 113.207 256.119 106.79 236.52Z" fill="#CC3745"/>
<path d="M152.8 269.89C153.35 270.89 165.26 292.89 174.46 290.68C176.37 290.21 179.29 288.43 184.68 271.83C187.969 261.708 190.456 251.342 192.12 240.83L173.58 285.55L152.8 269.89ZM154.85 280.89C154.85 280.89 147.54 314.03 160.93 349.1C174.32 384.17 171.5 468.56 171.5 468.56H177.14C177.14 468.56 180.66 400.35 170.79 367.98C160.92 335.61 152.65 306.32 154.85 280.89ZM228 292L225.21 343C229.503 386.547 233.79 430.093 238.07 473.64L247.76 470.94L230.13 342.93C229.41 325.943 228.7 308.967 228 292Z" fill="#CC3745"/>
<path d="M159.14 468.68L180.14 467.77C180.14 467.77 191.92 465.94 198.44 458.19C204.96 450.44 215.99 466.19 221.5 465.99C227.01 465.79 216.94 450.44 216.94 450.44C216.94 450.44 229.09 465.66 234.39 465.44C239.69 465.22 228.39 446.22 228.39 446.22C228.39 446.22 240.54 465.22 245.47 464.02C250.4 462.82 235.61 437.42 228.91 432.66C222.21 427.9 192.14 433.72 192.14 433.72L160.14 434.6C160.14 434.6 151.91 453.09 159.14 468.68Z" fill="#F5B493"/>
<path d="M148.46 430.19C148.46 430.19 144.82 465.36 148.46 478.24L165.3 474.93C165.3 474.93 161.25 444.98 163.9 434.59L148.46 430.19Z" fill="#E73F46"/>
<path d="M144 430.19C144 430.19 142.6 450.62 146.91 464.54L148.47 430.19H144Z" fill="#CC3745"/>
<path d="M87.21 298.23C91.537 305.276 94.3761 313.133 95.5524 321.318C96.7288 329.502 96.2175 337.841 94.05 345.82L93.26 419.53L160.11 434.59L102 412.66C101.82 390.767 101.643 368.873 101.47 346.98C105.55 329.23 100.69 310.48 87.21 298.23Z" fill="#CC3745"/>
<path d="M155.22 445.69C157.921 445.69 160.11 443.501 160.11 440.8C160.11 438.099 157.921 435.91 155.22 435.91C152.519 435.91 150.33 438.099 150.33 440.8C150.33 443.501 152.519 445.69 155.22 445.69Z" fill="#EFBD42"/>
<path d="M95.55 414.86C95.55 414.86 77.23 426 70.89 442.34C70.89 442.34 90.62 422.61 103.48 418.74L95.55 414.86ZM265 407.09C265 407.09 251.13 416.8 246.44 429L273.15 412.67L265 407.09Z" fill="#CC3745"/>
<path d="M227.44 143.54C225.93 131.54 223.04 124.21 222.32 116.34C220.53 96.9 222.66 82.05 208.77 68.81C204.518 63.8523 199.57 59.5374 194.08 56C174.08 41.37 140.9 41 118.49 57.78C92.68 77.17 93 110.47 93.07 118.74C93.44 157.37 120.27 183.29 131.98 192.82C138.314 198.888 145.426 204.087 153.13 208.28C161.72 212.85 184.74 225.07 201.33 214.38C205.67 211.59 211.62 204.58 218.64 188.17C227.71 167 228.94 155.57 227.44 143.54Z" fill="#F5B493"/>
<path d="M194.27 160.15C198.27 157.89 200.39 155.58 200.44 153.29C200.49 150.51 197.44 148.72 194.53 145.41C190.8 141.22 188.29 135.73 187.06 129.09C187.04 128.959 187.071 128.825 187.147 128.717C187.224 128.609 187.34 128.534 187.47 128.51C187.6 128.487 187.734 128.516 187.842 128.59C187.951 128.665 188.026 128.78 188.05 128.91C191.3 146.62 201.56 147.35 201.44 153.31C201.38 155.98 199.13 158.58 194.75 161.03C194.633 161.094 194.496 161.108 194.369 161.071C194.241 161.033 194.134 160.947 194.07 160.83C194.006 160.713 193.992 160.576 194.029 160.449C194.067 160.321 194.153 160.214 194.27 160.15ZM208.64 137.74C205.81 137.98 203.22 134.63 202.85 130.25C202.48 125.87 204.48 122.15 207.31 121.91C210.14 121.67 212.73 125.03 213.1 129.4C213.47 133.77 211.47 137.51 208.64 137.74ZM164.59 141.43C161.76 141.66 159.17 138.31 158.81 133.94C158.45 129.57 160.44 125.83 163.27 125.59C166.1 125.35 168.69 128.71 169.05 133.08C169.41 137.45 167.42 141.19 164.59 141.43ZM187.86 184.36C182.26 184.36 172.57 183.03 166.94 174.68C166.902 174.626 166.875 174.564 166.861 174.5C166.847 174.435 166.847 174.368 166.859 174.303C166.871 174.238 166.896 174.176 166.932 174.12C166.968 174.065 167.015 174.017 167.07 173.98C167.182 173.907 167.318 173.881 167.449 173.907C167.579 173.933 167.695 174.01 167.77 174.12C175.64 185.79 191.87 183.12 192.04 183.12C192.173 183.097 192.309 183.129 192.418 183.206C192.528 183.284 192.602 183.402 192.625 183.535C192.648 183.668 192.616 183.804 192.539 183.913C192.461 184.023 192.343 184.097 192.21 184.12C190.768 184.309 189.314 184.389 187.86 184.36ZM191.37 107.31C191.168 107.308 190.971 107.244 190.806 107.128C190.641 107.011 190.514 106.848 190.444 106.658C190.374 106.469 190.362 106.262 190.412 106.066C190.461 105.87 190.568 105.694 190.72 105.56C190.83 105.46 202.05 96.01 214.78 103.27C215.011 103.403 215.179 103.621 215.249 103.878C215.318 104.135 215.283 104.409 215.15 104.64C215.017 104.871 214.799 105.039 214.542 105.109C214.285 105.178 214.011 105.143 213.78 105.01C202.3 98.46 192.44 106.72 192.02 107.07C191.839 107.225 191.608 107.31 191.37 107.31ZM147.92 111.24C147.726 111.239 147.536 111.182 147.373 111.075C147.211 110.969 147.083 110.817 147.006 110.639C146.929 110.46 146.905 110.263 146.937 110.072C146.97 109.88 147.058 109.702 147.19 109.56C157.1 98.78 170.66 104.38 170.8 104.43C171.045 104.533 171.24 104.73 171.34 104.977C171.44 105.223 171.438 105.5 171.335 105.745C171.232 105.99 171.035 106.185 170.788 106.285C170.542 106.385 170.265 106.383 170.02 106.28C169.51 106.06 157.6 101.19 148.66 110.92C148.566 111.022 148.451 111.103 148.324 111.158C148.196 111.213 148.059 111.241 147.92 111.24Z" fill="#2D1929"/>
<path d="M447.47 478.8H271.86C271.267 478.801 270.68 478.675 270.139 478.43C269.599 478.186 269.117 477.829 268.726 477.383C268.334 476.937 268.043 476.412 267.872 475.844C267.7 475.276 267.652 474.678 267.73 474.09L286.52 330.37C286.651 329.365 287.144 328.443 287.906 327.775C288.668 327.107 289.647 326.739 290.66 326.74H471.28C471.885 326.741 472.482 326.873 473.031 327.127C473.579 327.382 474.066 327.753 474.457 328.214C474.848 328.675 475.134 329.216 475.295 329.799C475.456 330.382 475.489 330.993 475.39 331.59L451.58 475.31C451.421 476.285 450.92 477.172 450.167 477.811C449.414 478.45 448.458 478.801 447.47 478.8Z" fill="#016FB9"/>
<path d="M291.83 478.8H157.27C156.164 478.8 155.103 478.361 154.321 477.579C153.539 476.797 153.1 475.736 153.1 474.63V472.93C153.099 471.854 153.515 470.819 154.261 470.044C155.007 469.268 156.025 468.811 157.1 468.77L291.65 463C292.212 462.976 292.773 463.065 293.299 463.263C293.825 463.461 294.306 463.764 294.712 464.152C295.118 464.541 295.442 465.008 295.663 465.525C295.885 466.041 295.999 466.598 296 467.16V474.67C295.989 475.769 295.545 476.819 294.765 477.593C293.984 478.366 292.929 478.8 291.83 478.8Z" fill="#016FB9"/>
<path d="M378.63 423.84C374.463 423.84 370.389 422.604 366.924 420.289C363.459 417.974 360.759 414.683 359.164 410.833C357.569 406.983 357.152 402.747 357.965 398.659C358.778 394.572 360.785 390.818 363.731 387.871C366.678 384.925 370.432 382.918 374.519 382.105C378.607 381.292 382.843 381.709 386.693 383.304C390.543 384.899 393.834 387.599 396.149 391.064C398.464 394.529 399.7 398.603 399.7 402.77C399.695 408.356 397.473 413.713 393.523 417.663C389.573 421.613 384.216 423.835 378.63 423.84ZM378.63 383.7C374.858 383.7 371.171 384.818 368.035 386.914C364.899 389.009 362.455 391.988 361.012 395.472C359.568 398.957 359.191 402.791 359.926 406.49C360.662 410.19 362.478 413.588 365.145 416.255C367.812 418.921 371.21 420.738 374.91 421.474C378.609 422.209 382.443 421.832 385.928 420.388C389.412 418.945 392.391 416.501 394.486 413.365C396.582 410.229 397.7 406.542 397.7 402.77C397.695 397.714 395.684 392.866 392.109 389.291C388.533 385.716 383.686 383.705 378.63 383.7Z" fill="#EFEFEF"/>
<path d="M269.05 463.93C269.05 463.93 269.23 477.04 275.84 478.8H269.58C264.32 475.05 264.55 468.22 269.05 463.93ZM136.33 113.3C132.05 116.89 124.45 121.64 111.23 123.08C115.437 143.9 119.65 164.723 123.87 185.55C121.13 184.04 67.82 153.55 68.07 103.91C68.37 44.65 130.15 15.91 177.55 40.37C186.892 38.207 196.699 39.4718 205.187 43.9338C213.674 48.3959 220.276 55.7584 223.79 64.68C231 82.6 222.65 99 221.32 101.51C215.25 83.11 202.55 68.57 185.74 59.4C178.408 59.9625 171.37 62.5216 165.39 66.8C148.75 79.18 152.7 99.57 136.33 113.3Z" fill="#2D1929"/>
<path d="M112.8 156.88C104.11 160.39 93.6 154.67 89.34 144.11C85.08 133.55 88.66 122.11 97.34 118.63C106.02 115.15 116.53 120.84 120.8 131.39C125.07 141.94 121.49 153.36 112.8 156.88Z" fill="#F5B493"/>
<path d="M113.62 146.79C113.56 146.79 107.89 145.94 107.37 140.45C107.05 137 111.47 135.67 113.17 135.29C112.09 133.01 107.64 124.55 101.42 124.89C95.58 125.17 95.76 131.76 95.77 132.04C95.7727 132.106 95.7624 132.171 95.7397 132.233C95.717 132.295 95.6824 132.351 95.6378 132.4C95.5932 132.448 95.5396 132.487 95.4799 132.514C95.4202 132.542 95.3557 132.557 95.29 132.56C95.1594 132.558 95.0341 132.508 94.9382 132.419C94.8422 132.331 94.7823 132.21 94.77 132.08C94.77 132 94.54 124.22 101.37 123.89C109.26 123.5 114.15 134.98 114.37 135.47C114.4 135.54 114.413 135.616 114.41 135.691C114.406 135.767 114.385 135.841 114.348 135.908C114.312 135.974 114.26 136.031 114.198 136.075C114.136 136.119 114.065 136.148 113.99 136.16C113.93 136.16 108.08 137.16 108.39 140.36C108.83 145.05 113.57 145.77 113.77 145.8C113.901 145.82 114.019 145.891 114.098 145.998C114.177 146.105 114.21 146.239 114.19 146.37C114.17 146.501 114.099 146.619 113.992 146.698C113.885 146.777 113.751 146.81 113.62 146.79Z" fill="#2D1929"/>
<mask id="mask1_1_2" style="mask-type:luminance" maskUnits="userSpaceOnUse" x="268" y="102" width="191" height="155">
<path d="M450.33 102.13H276.5C271.883 102.13 268.14 105.873 268.14 110.49V247.79C268.14 252.407 271.883 256.15 276.5 256.15H450.33C454.947 256.15 458.69 252.407 458.69 247.79V110.49C458.69 105.873 454.947 102.13 450.33 102.13Z" fill="white"/>
</mask>
<g mask="url(#mask1_1_2)">
<path d="M450.33 102.13H276.5C271.883 102.13 268.14 105.873 268.14 110.49V247.79C268.14 252.407 271.883 256.15 276.5 256.15H450.33C454.947 256.15 458.69 252.407 458.69 247.79V110.49C458.69 105.873 454.947 102.13 450.33 102.13Z" fill="#EFEFEF"/>
<path d="M258.26 91.63H462.77V124.38H258.26V91.63Z" fill="#EF8354"/>
</g>
<path d="M322.46 181.45L344.46 165.12C344.966 164.748 345.378 164.261 345.661 163.7C345.944 163.139 346.091 162.519 346.09 161.89V160.89C346.09 160.686 346.033 160.485 345.926 160.312C345.818 160.138 345.665 159.997 345.482 159.906C345.299 159.815 345.095 159.776 344.891 159.794C344.688 159.813 344.493 159.887 344.33 160.01L315.96 181.11C315.788 181.237 315.649 181.403 315.553 181.594C315.457 181.785 315.407 181.996 315.407 182.21C315.407 182.424 315.457 182.635 315.553 182.826C315.649 183.017 315.788 183.183 315.96 183.31L344.19 204.31C344.37 204.444 344.584 204.525 344.808 204.542C345.032 204.56 345.256 204.513 345.455 204.409C345.654 204.304 345.819 204.145 345.931 203.951C346.044 203.757 346.099 203.534 346.09 203.31V202C346.089 201.508 345.973 201.022 345.751 200.583C345.528 200.143 345.206 199.762 344.81 199.47L322.5 182.88C322.386 182.8 322.292 182.695 322.226 182.573C322.16 182.45 322.124 182.314 322.12 182.175C322.116 182.036 322.145 181.898 322.204 181.772C322.263 181.646 322.351 181.536 322.46 181.45ZM404.37 181.45L382.37 165.12C381.864 164.748 381.452 164.261 381.169 163.7C380.886 163.139 380.739 162.519 380.74 161.89V160.89C380.74 160.686 380.797 160.485 380.904 160.312C381.012 160.138 381.165 159.997 381.348 159.906C381.531 159.815 381.735 159.776 381.939 159.794C382.142 159.813 382.337 159.887 382.5 160.01L410.87 181.11C411.042 181.237 411.181 181.403 411.277 181.594C411.373 181.785 411.423 181.996 411.423 182.21C411.423 182.424 411.373 182.635 411.277 182.826C411.181 183.017 411.042 183.183 410.87 183.31L382.64 204.31C382.46 204.444 382.246 204.525 382.022 204.542C381.798 204.56 381.574 204.513 381.375 204.409C381.176 204.304 381.011 204.145 380.899 203.951C380.786 203.757 380.731 203.534 380.74 203.31V202C380.741 201.508 380.857 201.022 381.079 200.583C381.302 200.143 381.624 199.762 382.02 199.47L404.33 182.88C404.444 182.8 404.538 182.695 404.604 182.573C404.67 182.45 404.706 182.314 404.71 182.175C404.714 182.036 404.685 181.898 404.626 181.772C404.567 181.646 404.479 181.536 404.37 181.45ZM350.92 219.6C350.651 219.611 350.382 219.567 350.13 219.471C349.878 219.376 349.648 219.23 349.454 219.043C349.26 218.856 349.105 218.632 349 218.384C348.894 218.136 348.84 217.87 348.84 217.6C348.84 217.37 348.84 217.13 372.68 153.89C373.84 150.96 377.99 150.7 377.99 153.52C377.99 153.86 377.99 153.93 354.21 217.24C353.942 217.905 353.49 218.48 352.908 218.898C352.325 219.315 351.636 219.559 350.92 219.6Z" fill="#2D1929"/>
<path d="M318.93 110.22H286.12C284.093 110.22 282.45 111.863 282.45 113.89V114.3C282.45 116.327 284.093 117.97 286.12 117.97H318.93C320.957 117.97 322.6 116.327 322.6 114.3V113.89C322.6 111.863 320.957 110.22 318.93 110.22Z" fill="#EFEFEF"/>
</svg>
