<svg width="512" height="512" viewBox="0 0 512 512" fill="none" xmlns="http://www.w3.org/2000/svg">
<path fill-rule="evenodd" clip-rule="evenodd" d="M226.129 430.299H148.005C135.586 430.299 125.419 420.132 125.419 407.713V323.199H144.297V392.263H210.797L216.821 398.287C219.114 400.58 222.048 402.125 225.237 402.719C228.425 403.313 231.718 402.928 234.684 401.615L239.229 399.601C241.365 400.603 243.546 401.507 245.764 402.311L247.54 406.927C248.706 409.956 250.763 412.561 253.439 414.399C256.115 416.236 259.285 417.22 262.532 417.22H282.046C285.292 417.22 288.462 416.236 291.138 414.399C293.814 412.561 295.871 409.956 297.037 406.927L298.813 402.312C301.03 401.51 303.209 400.608 305.343 399.608L309.873 401.615C312.839 402.928 316.133 403.314 319.321 402.72C322.51 402.126 325.444 400.58 327.737 398.287L333.761 392.263H400.261V323.199H419.139V407.713C419.139 420.132 408.973 430.299 396.553 430.299H318.448V466.182H352.816C363.402 466.182 372.072 473.099 372.072 481.551V496.941H172.505V481.551C172.505 473.099 181.177 466.182 191.762 466.182H226.129V430.299ZM199.187 93.1027V24.4103C199.187 19.2773 203.406 15.0588 208.538 15.0588H336.02C341.152 15.0588 345.371 19.2773 345.371 24.4103V89.7666L319.182 54.7438C318.511 53.8464 317.659 53.0993 316.682 52.5507C315.704 52.0021 314.623 51.6641 313.507 51.5584C312.392 51.4527 311.266 51.5816 310.203 51.9369C309.14 52.2922 308.163 52.866 307.336 53.6214L269.168 88.4605L248.426 65.0953C247.084 63.5828 245.22 62.6325 243.208 62.4341C241.195 62.2357 239.182 62.8039 237.57 64.0251L199.187 93.1027ZM269.429 66.3823C275.085 66.3823 279.695 61.7713 279.695 56.1172C279.695 50.4631 275.085 45.8089 269.429 45.8089C263.732 45.8089 259.122 50.4631 259.122 56.1172C259.122 61.7713 263.732 66.3823 269.429 66.3823ZM345.371 116.589V133.145C345.371 138.321 341.152 142.541 336.02 142.541H208.538C203.406 142.541 199.187 138.321 199.187 133.145V113.253L241.347 81.3156L257.304 99.2908L249.966 105.989C246.693 108.977 246.461 114.062 249.449 117.335C252.438 120.609 257.522 120.841 260.796 117.852L311.622 71.4571L345.371 116.589ZM86.3202 15.0588C125.651 15.0588 157.583 46.9905 157.583 86.3202C157.583 125.651 125.651 157.583 86.3202 157.583C46.9905 157.583 15.0588 125.651 15.0588 86.3202C15.0588 46.9905 46.9905 15.0588 86.3202 15.0588ZM115.108 77.1273L80.0145 56.8651C78.4007 55.9335 76.57 55.443 74.7065 55.4431C72.843 55.4431 71.0124 55.9337 69.3985 56.8654C67.7847 57.7972 66.4446 59.1373 65.5128 60.7511C64.581 62.3649 64.0904 64.1955 64.0903 66.059V106.582C64.0901 108.446 64.5805 110.277 65.5122 111.891C66.4439 113.505 67.7841 114.845 69.398 115.777C71.012 116.709 72.8428 117.199 74.7064 117.199C76.57 117.199 78.4007 116.708 80.0145 115.776L115.108 95.5141C116.721 94.5824 118.062 93.2423 118.993 91.6285C119.925 90.0148 120.416 88.1841 120.416 86.3207C120.416 84.4572 119.925 82.6266 118.993 81.0128C118.062 79.399 116.721 78.0589 115.108 77.1273ZM463.611 15.3148C464.194 15.5357 464.716 15.8409 465.199 16.2475L495.58 41.8796C496.062 42.2862 496.424 42.7269 496.685 43.2188H466.324C464.837 43.2188 463.611 42.1848 463.611 40.9299V15.3148ZM496.941 59.2795V154.712C496.939 155.473 496.636 156.202 496.098 156.74C495.56 157.277 494.832 157.58 494.071 157.583H389.857C389.095 157.583 388.363 157.281 387.823 156.743C387.283 156.205 386.978 155.475 386.976 154.712V17.9401C386.976 17.176 387.28 16.4433 387.82 15.903C388.36 15.3627 389.093 15.0591 389.857 15.0588H447.55L447.548 15.3148V40.9299C447.548 50.2101 455.325 59.2816 466.324 59.2816H496.685L496.941 59.2795ZM418.21 134.704H465.707C470.139 134.704 473.739 131.105 473.739 126.673C473.739 122.24 470.139 118.641 465.707 118.641H418.21C413.777 118.641 410.178 122.24 410.178 126.673C410.178 131.105 413.777 134.704 418.21 134.704ZM418.21 83.967H465.707C470.139 83.967 473.739 80.3679 473.739 75.9356C473.739 71.5033 470.139 67.9042 465.707 67.9042H418.21C413.777 67.9042 410.178 71.5033 410.178 75.9356C410.178 80.3679 413.777 83.967 418.21 83.967ZM418.21 109.336H465.707C470.139 109.336 473.739 105.737 473.739 101.305C473.739 96.8714 470.139 93.2733 465.707 93.2733H418.21C413.777 93.2733 410.178 96.8714 410.178 101.305C410.178 105.737 413.777 109.336 418.21 109.336ZM314.368 329.032H344.403V338.799L332.455 343.398C330.942 349.765 328.407 355.838 324.986 361.42L330.175 373.133L316.379 386.928L304.666 381.74C299.097 385.178 293.013 387.699 286.645 389.208L282.046 401.157H262.532L257.933 389.208C251.546 387.694 245.473 385.16 239.891 381.74L228.178 386.928L214.382 373.133L219.591 361.42C216.155 355.848 213.627 349.765 212.103 343.398L200.154 338.799V329.032H230.209C230.209 352.276 249.035 371.122 272.279 371.122C295.521 371.122 314.368 352.275 314.368 329.032ZM246.272 329.032H298.305C298.305 343.404 286.651 355.059 272.279 355.059C257.907 355.059 246.272 343.403 246.272 329.032ZM280.31 314.466C280.31 318.899 276.712 322.498 272.279 322.498C267.846 322.498 264.247 318.899 264.247 314.466V186.307C264.247 181.874 267.846 178.275 272.279 178.275C276.712 178.275 280.31 181.874 280.31 186.307V314.466ZM238.241 291.073C242.673 291.073 246.272 294.672 246.272 299.104V314.466C246.272 318.899 242.673 322.498 238.241 322.498C233.808 322.498 230.209 318.899 230.209 314.466V307.136H82.6057C80.4756 307.136 78.4328 306.29 76.9266 304.783C75.4205 303.277 74.5743 301.234 74.5743 299.104V186.307C74.5743 181.874 78.1733 178.275 82.6057 178.275C87.039 178.275 90.637 181.874 90.637 186.307V291.073H238.241ZM306.317 291.073H453.92V186.307C453.92 181.874 457.519 178.275 461.952 178.275C466.384 178.275 469.983 181.874 469.983 186.307V299.104C469.983 301.234 469.137 303.277 467.631 304.783C466.124 306.29 464.082 307.136 461.952 307.136H314.348V314.466C314.348 318.899 310.75 322.498 306.317 322.498C301.884 322.498 298.285 318.899 298.285 314.466V299.104C298.285 294.672 301.884 291.073 306.317 291.073ZM125.419 275.01V252.38C125.419 239.96 135.586 229.794 148.005 229.794H248.184V248.691H147.447C145.712 248.691 144.297 250.087 144.297 251.822V275.01H125.419ZM296.373 229.794H396.553C408.973 229.794 419.139 239.96 419.139 252.38V275.01H400.261V251.822C400.259 250.992 399.929 250.197 399.343 249.61C398.756 249.023 397.961 248.693 397.131 248.691H296.373V229.794Z" fill="#016FB9"/>
</svg>
