<svg width="512" height="512" viewBox="0 0 512 512" fill="none" xmlns="http://www.w3.org/2000/svg">
<g clip-path="url(#clip0_6_210)">
<path d="M338.149 0H72.8046C65.4171 0 59.4286 5.98857 59.4286 17.6091V502.857C59.4286 506.011 65.4171 512 72.8046 512H439.195C446.583 512 452.571 506.011 452.571 502.857V118.656C452.571 112.293 451.721 110.245 450.222 108.736L343.835 2.34971C342.324 0.847306 340.28 0.00279587 338.149 0Z" fill="#E9E9E0"/>
<path d="M342.857 1.38058V109.714H451.191L342.857 1.38058Z" fill="#D9D7CA"/>
<path d="M439.195 512H72.8046C69.257 512 65.8548 510.591 63.3463 508.082C60.8378 505.574 59.4286 502.172 59.4286 498.624V356.571H452.571V498.624C452.571 506.011 446.583 512 439.195 512Z" fill="#EF8354"/>
<path d="M159.589 392.448V484.571H144.585V443.072H104.713V484.571H89.4628V392.448H104.713V432.823H144.585V392.448H159.589ZM247.835 392.448V402.697H220.343V484.571H205.221V402.697H177.719V392.448H247.835ZM335.589 392.448H350.839V484.571H335.589V421.193L314.962 472.439H301.714L280.96 421.193V484.571H265.71V392.448H280.96L308.334 455.451L335.589 392.448ZM389.211 392.448V473.198H431.589V484.571H373.961V392.448H389.211Z" fill="white"/>
<path d="M212.178 148.965C211.33 148.115 210.322 147.441 209.213 146.981C208.104 146.521 206.915 146.284 205.714 146.284C204.514 146.284 203.325 146.521 202.215 146.981C201.106 147.441 200.099 148.115 199.25 148.965L144.393 203.822C143.543 204.67 142.869 205.678 142.409 206.787C141.949 207.896 141.712 209.085 141.712 210.286C141.712 211.487 141.949 212.675 142.409 213.785C142.869 214.894 143.543 215.901 144.393 216.75L199.25 271.607C200.097 272.459 201.105 273.135 202.214 273.596C203.323 274.058 204.513 274.295 205.714 274.295C206.916 274.295 208.105 274.058 209.215 273.596C210.324 273.135 211.331 272.459 212.178 271.607C213.028 270.759 213.702 269.751 214.162 268.642C214.622 267.533 214.859 266.344 214.859 265.143C214.859 263.942 214.622 262.753 214.162 261.644C213.702 260.535 213.028 259.527 212.178 258.679L163.785 210.286L212.178 161.893C213.028 161.044 213.702 160.037 214.162 158.927C214.622 157.818 214.859 156.629 214.859 155.429C214.859 154.228 214.622 153.039 214.162 151.93C213.702 150.821 213.028 149.813 212.178 148.965ZM376.75 203.822L321.893 148.965C321.044 148.116 320.036 147.442 318.927 146.983C317.818 146.524 316.629 146.287 315.429 146.287C314.228 146.287 313.039 146.524 311.93 146.983C310.821 147.442 309.813 148.116 308.965 148.965C308.116 149.813 307.442 150.821 306.983 151.93C306.524 153.039 306.287 154.228 306.287 155.429C306.287 156.629 306.524 157.818 306.983 158.927C307.442 160.036 308.116 161.044 308.965 161.893L357.358 210.286L308.965 258.679C308.116 259.528 307.442 260.536 306.983 261.645C306.524 262.754 306.287 263.942 306.287 265.143C306.287 266.343 306.524 267.532 306.983 268.641C307.442 269.75 308.116 270.758 308.965 271.607C309.813 272.456 310.821 273.129 311.93 273.589C313.039 274.048 314.228 274.284 315.429 274.284C316.629 274.284 317.818 274.048 318.927 273.589C320.036 273.129 321.044 272.456 321.893 271.607L376.75 216.75C377.6 215.901 378.274 214.894 378.734 213.785C379.194 212.675 379.43 211.487 379.43 210.286C379.43 209.085 379.194 207.896 378.734 206.787C378.274 205.678 377.6 204.67 376.75 203.822Z" fill="#EF8354"/>
</g>
<defs>
<clipPath id="clip0_6_210">
<rect width="512" height="512" fill="white"/>
</clipPath>
</defs>
</svg>
