<svg width="512" height="512" viewBox="0 0 512 512" fill="none" xmlns="http://www.w3.org/2000/svg">
<path d="M48 432H464C468.243 432 472.313 430.314 475.314 427.314C478.314 424.313 480 420.243 480 416V128C480 123.757 478.314 119.687 475.314 116.686C472.313 113.686 468.243 112 464 112H48C43.7565 112 39.6869 113.686 36.6863 116.686C33.6857 119.687 32 123.757 32 128V416C32 420.243 33.6857 424.313 36.6863 427.314C39.6869 430.314 43.7565 432 48 432Z" fill="#016FB9"/>
<path d="M72 400H440C442.122 400 444.157 399.157 445.657 397.657C447.157 396.157 448 394.122 448 392V152C448 149.878 447.157 147.843 445.657 146.343C444.157 144.843 442.122 144 440 144H72C69.8783 144 67.8434 144.843 66.3431 146.343C64.8429 147.843 64 149.878 64 152V392C64 394.122 64.8429 396.157 66.3431 397.657C67.8434 399.157 69.8783 400 72 400Z" fill="#00A0C8"/>
<path d="M288 464H224V432H288V464ZM160 480H352C352 475.757 350.314 471.687 347.314 468.686C344.313 465.686 340.243 464 336 464H176C171.757 464 167.687 465.686 164.686 468.686C161.686 471.687 160 475.757 160 480Z" fill="#016FB9"/>
<path d="M288 440H224V432H288V440Z" fill="#00325A"/>
<path d="M400 368H112C107.757 368 103.687 366.314 100.686 363.314C97.6857 360.313 96 356.243 96 352V112H416V352C416 356.243 414.314 360.313 411.314 363.314C408.313 366.314 404.243 368 400 368Z" fill="#F0F0F0"/>
<path d="M332.424 263.152L296 336V368H376V336L339.576 263.152C339.243 262.488 338.733 261.931 338.101 261.541C337.47 261.151 336.742 260.944 336 260.944C335.258 260.944 334.53 261.151 333.899 261.541C333.267 261.931 332.757 262.488 332.424 263.152ZM232 368V359.424C240.43 354.559 247.639 347.834 253.076 339.761C258.513 331.688 262.036 322.481 263.377 312.84C264.717 303.199 263.839 293.38 260.809 284.13C257.78 274.88 252.679 266.444 245.896 259.464C240.824 254.248 232 257.656 232 264.928V304C232 308.243 230.314 312.313 227.314 315.314C224.313 318.314 220.243 320 216 320H184C179.757 320 175.687 318.314 172.686 315.314C169.686 312.313 168 308.243 168 304V264.936C168 257.688 159.192 254.24 154.136 259.432C147.16 266.578 141.957 275.26 138.946 284.782C135.935 294.303 135.2 304.399 136.8 314.256C139.776 333.392 151.776 349.672 168 359.152V368H232Z" fill="#D2D2D2"/>
<path d="M328 192H323.888C320.376 192 317.44 189.664 316.248 186.36C315.559 184.443 314.777 182.561 313.904 180.72C312.4 177.544 312.832 173.8 315.312 171.32L318.224 168.408C318.968 167.666 319.557 166.784 319.96 165.814C320.362 164.843 320.57 163.803 320.57 162.752C320.57 161.701 320.362 160.661 319.96 159.69C319.557 158.72 318.968 157.838 318.224 157.096L306.912 145.784C306.17 145.04 305.288 144.451 304.318 144.048C303.347 143.646 302.307 143.438 301.256 143.438C300.205 143.438 299.165 143.646 298.194 144.048C297.224 144.451 296.342 145.04 295.6 145.784L292.688 148.696C290.2 151.184 286.464 151.608 283.288 150.104C281.445 149.236 279.563 148.454 277.648 147.76C274.336 146.568 272 143.624 272 140.112V136C272 133.878 271.157 131.843 269.657 130.343C268.157 128.843 266.122 128 264 128H248C245.878 128 243.843 128.843 242.343 130.343C240.843 131.843 240 133.878 240 136V140.112C240 143.624 237.664 146.56 234.36 147.752C232.443 148.441 230.561 149.223 228.72 150.096C225.544 151.6 221.8 151.168 219.32 148.688L216.408 145.776C215.666 145.032 214.784 144.443 213.814 144.04C212.843 143.638 211.803 143.43 210.752 143.43C209.701 143.43 208.661 143.638 207.69 144.04C206.72 144.443 205.838 145.032 205.096 145.776L193.784 157.088C193.04 157.83 192.451 158.712 192.048 159.682C191.646 160.653 191.438 161.693 191.438 162.744C191.438 163.795 191.646 164.835 192.048 165.806C192.451 166.776 193.04 167.658 193.784 168.4L196.696 171.312C199.184 173.8 199.608 177.536 198.104 180.712C197.236 182.555 196.454 184.437 195.76 186.352C194.568 189.664 191.624 192 188.112 192H184C181.878 192 179.843 192.843 178.343 194.343C176.843 195.843 176 197.878 176 200V216C176 218.122 176.843 220.157 178.343 221.657C179.843 223.157 181.878 224 184 224H188.112C191.624 224 194.56 226.336 195.752 229.64C196.448 231.568 197.224 233.448 198.096 235.28C199.6 238.456 199.168 242.2 196.688 244.68L193.776 247.592C193.032 248.334 192.443 249.216 192.04 250.186C191.638 251.157 191.43 252.197 191.43 253.248C191.43 254.299 191.638 255.339 192.04 256.31C192.443 257.28 193.032 258.162 193.776 258.904L205.088 270.216C205.83 270.96 206.712 271.549 207.682 271.952C208.653 272.354 209.693 272.562 210.744 272.562C211.795 272.562 212.835 272.354 213.806 271.952C214.776 271.549 215.658 270.96 216.4 270.216L219.312 267.304C221.8 264.816 225.536 264.392 228.712 265.896C230.544 266.76 232.432 267.544 234.352 268.24C237.664 269.432 240 272.376 240 275.888V280C240 282.122 240.843 284.157 242.343 285.657C243.843 287.157 245.878 288 248 288H264C266.122 288 268.157 287.157 269.657 285.657C271.157 284.157 272 282.122 272 280V275.888C272 272.376 274.336 269.44 277.64 268.248C279.568 267.552 281.448 266.776 283.28 265.904C286.456 264.4 290.2 264.832 292.68 267.312L295.592 270.224C296.334 270.968 297.216 271.557 298.186 271.96C299.157 272.362 300.197 272.57 301.248 272.57C302.299 272.57 303.339 272.362 304.31 271.96C305.28 271.557 306.162 270.968 306.904 270.224L318.216 258.912C318.96 258.17 319.549 257.288 319.952 256.318C320.354 255.347 320.562 254.307 320.562 253.256C320.562 252.205 320.354 251.165 319.952 250.194C319.549 249.224 318.96 248.342 318.216 247.6L315.304 244.688C312.816 242.2 312.392 238.464 313.896 235.288C314.76 233.456 315.544 231.568 316.24 229.648C317.432 226.336 320.376 224 323.888 224H328C330.122 224 332.157 223.157 333.657 221.657C335.157 220.157 336 218.122 336 216V200C336 197.878 335.157 195.843 333.657 194.343C332.157 192.843 330.122 192 328 192ZM256 240C247.513 240 239.374 236.629 233.373 230.627C227.371 224.626 224 216.487 224 208C224 199.513 227.371 191.374 233.373 185.373C239.374 179.371 247.513 176 256 176C264.487 176 272.626 179.371 278.627 185.373C284.629 191.374 288 199.513 288 208C288 216.487 284.629 224.626 278.627 230.627C272.626 236.629 264.487 240 256 240Z" fill="#D2D2D2"/>
<path d="M416 112H96V80C96 75.7565 97.6857 71.6869 100.686 68.6863C103.687 65.6857 107.757 64 112 64H400C404.243 64 408.313 65.6857 411.314 68.6863C414.314 71.6869 416 75.7565 416 80V112Z" fill="#EF8354"/>
<path d="M384 96C388.418 96 392 92.4183 392 88C392 83.5817 388.418 80 384 80C379.582 80 376 83.5817 376 88C376 92.4183 379.582 96 384 96Z" fill="#FAB400"/>
<path d="M352 96C356.418 96 360 92.4183 360 88C360 83.5817 356.418 80 352 80C347.582 80 344 83.5817 344 88C344 92.4183 347.582 96 352 96Z" fill="#00A0C8"/>
<path d="M320 96C324.418 96 328 92.4183 328 88C328 83.5817 324.418 80 320 80C315.582 80 312 83.5817 312 88C312 92.4183 315.582 96 320 96Z" fill="#00143C"/>
<path d="M256 304C256.02 287.359 249.521 271.372 237.896 259.464C232.824 254.248 224 257.656 224 264.928V304C224 308.243 222.314 312.313 219.314 315.314C216.313 318.314 212.243 320 208 320H176C171.757 320 167.687 318.314 164.686 315.314C161.686 312.313 160 308.243 160 304V264.936C160 257.688 151.192 254.24 146.136 259.432C139.16 266.578 133.957 275.26 130.946 284.782C127.935 294.303 127.2 304.399 128.8 314.256C131.776 333.392 143.776 349.672 160 359.152V400H224V359.424C233.732 353.811 241.814 345.733 247.432 336.003C253.049 326.273 256.005 315.235 256 304Z" fill="#EF8354"/>
<path d="M288 336H368V400H288V336Z" fill="#FAB400"/>
<path d="M304 336H352V400H304V336Z" fill="#DC9600"/>
<path d="M324.424 263.152L320 272H336L331.576 263.152C331.243 262.488 330.733 261.931 330.101 261.541C329.47 261.151 328.742 260.944 328 260.944C327.258 260.944 326.53 261.151 325.899 261.541C325.267 261.931 324.757 262.488 324.424 263.152Z" fill="#016FB9"/>
<path d="M368 336L336 272H320L288 336H368Z" fill="#F0C8A0"/>
<path d="M224 368H232V400H224V368ZM368 368H376V400H368V368Z" fill="#0082AA"/>
</svg>
