<svg width="512" height="512" viewBox="0 0 512 512" fill="none" xmlns="http://www.w3.org/2000/svg">
<path d="M267 501C402.31 501 512 391.31 512 256C512 120.69 402.31 11 267 11C131.69 11 22 120.69 22 256C22 391.31 131.69 501 267 501Z" fill="#016FB9"/>
<path d="M185.72 358.53H264.43V399.76H185.72V358.53Z" fill="#445EA0"/>
<path d="M185.72 358.53H205.562V399.76H185.72V358.53Z" fill="#2E4C89"/>
<path d="M316.856 398.763H127.56C124.754 398.763 122.459 401.059 122.459 403.865V429.436C122.459 432.242 124.755 434.538 127.56 434.538H316.856V398.763Z" fill="#293D7C"/>
<path d="M142.301 429.435V403.864C142.301 401.058 144.597 398.762 147.403 398.762H127.56C124.754 398.762 122.459 401.058 122.459 403.864V429.435C122.459 432.241 124.755 434.537 127.56 434.537H147.402C144.597 434.537 142.301 432.241 142.301 429.435Z" fill="#1A2B63"/>
<path d="M445.054 58.964H5.102C2.296 58.964 0 61.26 0 64.066V354.43C0.00369473 355.782 0.542412 357.078 1.49842 358.034C2.45443 358.99 3.75 359.528 5.102 359.532H316.856V206.768C316.856 202.909 319.996 199.768 323.856 199.768H450.156V64.066C450.156 61.26 447.86 58.964 445.054 58.964Z" fill="#293D7C"/>
<path d="M22.396 308.514C22.3984 309.325 22.7217 310.102 23.2952 310.675C23.8688 311.249 24.646 311.572 25.457 311.574H316.856V206.768C316.856 202.909 319.996 199.768 323.856 199.768H427.76V108.998H22.396V308.514Z" fill="white"/>
<path d="M42.239 308.514V108.998H22.396V308.514C22.3984 309.325 22.7217 310.102 23.2952 310.675C23.8688 311.249 24.646 311.572 25.457 311.574H45.3C44.4891 311.572 43.712 311.248 43.1385 310.675C42.565 310.102 42.2416 309.325 42.239 308.514Z" fill="#D9EAFC"/>
<path d="M225.08 349.234C232.687 349.234 238.854 343.067 238.854 335.46C238.854 327.853 232.687 321.686 225.08 321.686C217.473 321.686 211.306 327.853 211.306 335.46C211.306 343.067 217.473 349.234 225.08 349.234Z" fill="#445EA0"/>
<path d="M316.856 223.146H263.432C261.782 223.146 260.432 224.496 260.432 226.146V285.785C260.432 287.435 261.782 288.785 263.432 288.785H316.856V223.146Z" fill="#C3DDF4"/>
<path d="M280.274 285.785V226.146C280.274 224.496 281.624 223.146 283.274 223.146H263.432C261.782 223.146 260.432 224.496 260.432 226.146V285.785C260.432 287.435 261.782 288.785 263.432 288.785H283.274C281.624 288.785 280.274 287.435 280.274 285.785Z" fill="#AEC1ED"/>
<path d="M323.856 199.768H370.474V134.386C370.474 131.636 368.224 129.386 365.474 129.386H84.682C81.932 129.386 79.682 131.636 79.682 134.386V200.911C79.682 203.661 81.932 205.911 84.682 205.911H316.915C317.339 202.455 320.288 199.768 323.856 199.768Z" fill="#C3DDF4"/>
<path d="M99.524 200.91V134.385C99.524 131.635 101.774 129.385 104.524 129.385H84.682C81.932 129.385 79.682 131.635 79.682 134.385V200.91C79.682 203.66 81.932 205.91 84.682 205.91H104.524C101.774 205.91 99.524 203.66 99.524 200.91Z" fill="#AEC1ED"/>
<path d="M424.699 84.983H25.457C24.6457 84.9854 23.8684 85.3088 23.2948 85.8825C22.7212 86.4563 22.3981 87.2337 22.396 88.045V109.998H427.76V88.045C427.758 87.2337 427.435 86.4563 426.861 85.8825C426.288 85.3088 425.51 84.9854 424.699 84.983Z" fill="#EF8354"/>
<path d="M45.3 84.983H25.457C24.6457 84.9854 23.8684 85.3088 23.2948 85.8825C22.7212 86.4563 22.3981 87.2337 22.396 88.045V109.998H42.238V88.045C42.2404 87.2336 42.5637 86.4562 43.1375 85.8825C43.7112 85.3087 44.4886 84.9854 45.3 84.983Z" fill="#EF8354"/>
<path d="M171.504 238.979H87.334C83.192 238.979 79.834 235.622 79.834 231.479C79.834 227.336 83.192 223.979 87.334 223.979H171.504C175.646 223.979 179.004 227.336 179.004 231.479C179.004 235.622 175.646 238.979 171.504 238.979ZM171.504 263.466H87.334C83.192 263.466 79.834 260.109 79.834 255.966C79.834 251.823 83.192 248.466 87.334 248.466H171.504C173.493 248.466 175.401 249.256 176.807 250.663C178.214 252.069 179.004 253.977 179.004 255.966C179.004 257.955 178.214 259.863 176.807 261.269C175.401 262.676 173.493 263.466 171.504 263.466ZM171.504 287.953H87.334C83.192 287.953 79.834 284.596 79.834 280.453C79.834 276.31 83.192 272.953 87.334 272.953H171.504C175.646 272.953 179.004 276.31 179.004 280.453C179.004 284.596 175.646 287.953 171.504 287.953ZM237.56 238.979H194.234C190.092 238.979 186.734 235.622 186.734 231.479C186.734 227.336 190.092 223.979 194.234 223.979H237.56C241.702 223.979 245.06 227.336 245.06 231.479C245.06 235.622 241.702 238.979 237.56 238.979ZM237.56 263.466H194.234C190.092 263.466 186.734 260.109 186.734 255.966C186.734 251.823 190.092 248.466 194.234 248.466H237.56C239.549 248.466 241.457 249.256 242.863 250.663C244.27 252.069 245.06 253.977 245.06 255.966C245.06 257.955 244.27 259.863 242.863 261.269C241.457 262.676 239.549 263.466 237.56 263.466ZM237.56 287.953H194.234C190.092 287.953 186.734 284.596 186.734 280.453C186.734 276.31 190.092 272.953 194.234 272.953H237.56C241.702 272.953 245.06 276.31 245.06 280.453C245.06 284.596 241.702 287.953 237.56 287.953Z" fill="#016FB9"/>
<path d="M504 198.768C508.4 198.768 512 202.368 512 206.768V448.538C512 452.938 508.4 456.538 504 456.538H323.856C319.456 456.538 315.856 452.938 315.856 448.538V206.768C315.856 202.368 319.456 198.768 323.856 198.768H504Z" fill="#445EA0"/>
<path d="M337.567 425.125C334.817 425.125 332.567 422.875 332.567 420.125V219.18C332.567 216.43 334.817 214.18 337.567 214.18H490.29C493.04 214.18 495.29 216.43 495.29 219.18V420.125C495.29 422.875 493.04 425.125 490.29 425.125H337.567Z" fill="white"/>
<path d="M352.409 420.125V219.18C352.409 216.43 354.659 214.18 357.409 214.18H337.567C334.817 214.18 332.567 216.43 332.567 219.18V420.125C332.567 422.875 334.817 425.125 337.567 425.125H357.409C354.659 425.125 352.409 422.875 352.409 420.125Z" fill="#D9EAFC"/>
<path d="M404.567 445.125C401.817 445.125 399.567 442.875 399.567 440.125V438.18C399.567 435.43 401.817 433.18 404.567 433.18H423.29C426.04 433.18 428.29 435.43 428.29 438.18V440.125C428.29 442.875 426.04 445.125 423.29 445.125H404.567Z" fill="#445EA0"/>
<path d="M495.29 233.473V219.18C495.29 216.43 493.04 214.18 490.29 214.18H337.567C334.817 214.18 332.567 216.43 332.567 219.18V233.473H495.29Z" fill="#EF8354"/>
<path d="M357.409 214.18H337.567C334.817 214.18 332.567 216.43 332.567 219.18V233.473H352.409V219.18C352.409 216.43 354.659 214.18 357.409 214.18Z" fill="#EF8354"/>
<path d="M448.013 324.933H379.844C375.702 324.933 372.344 321.576 372.344 317.433C372.344 313.29 375.702 309.933 379.844 309.933H448.013C450.002 309.933 451.91 310.723 453.316 312.13C454.723 313.536 455.513 315.444 455.513 317.433C455.513 319.422 454.723 321.33 453.316 322.736C451.91 324.143 450.002 324.933 448.013 324.933ZM448.013 348.06H379.844C377.855 348.06 375.947 347.27 374.541 345.863C373.134 344.457 372.344 342.549 372.344 340.56C372.344 338.571 373.134 336.663 374.541 335.257C375.947 333.85 377.855 333.06 379.844 333.06H448.013C450.002 333.06 451.91 333.85 453.316 335.257C454.723 336.663 455.513 338.571 455.513 340.56C455.513 342.549 454.723 344.457 453.316 345.863C451.91 347.27 450.002 348.06 448.013 348.06ZM448.013 371.185H379.844C377.855 371.185 375.947 370.395 374.541 368.988C373.134 367.582 372.344 365.674 372.344 363.685C372.344 361.696 373.134 359.788 374.541 358.382C375.947 356.975 377.855 356.185 379.844 356.185H448.013C450.002 356.185 451.91 356.975 453.316 358.382C454.723 359.788 455.513 361.696 455.513 363.685C455.513 365.674 454.723 367.582 453.316 368.988C451.91 370.395 450.002 371.185 448.013 371.185Z" fill="#016FB9"/>
<path d="M479.756 292.257C479.756 295.007 477.506 297.257 474.756 297.257H353.101C350.351 297.257 348.101 295.007 348.101 292.257V251.013C348.101 248.263 350.351 246.013 353.101 246.013H474.756C477.506 246.013 479.756 248.263 479.756 251.013V292.257Z" fill="#C3DDF4"/>
<path d="M367.943 292.257V251.013C367.943 248.263 370.193 246.013 372.943 246.013H353.101C350.351 246.013 348.101 248.263 348.101 251.013V292.257C348.101 295.007 350.351 297.257 353.101 297.257H372.943C370.193 297.257 367.943 295.007 367.943 292.257Z" fill="#AEC1ED"/>
<path d="M461.757 409.416C461.757 412.166 459.507 414.416 456.757 414.416H371.1C368.35 414.416 366.1 412.166 366.1 409.416V392.506C366.1 389.756 368.35 387.506 371.1 387.506H456.757C459.507 387.506 461.757 389.756 461.757 392.506V409.416Z" fill="#C3DDF4"/>
<path d="M385.942 409.416V392.506C385.942 389.756 388.192 387.506 390.942 387.506H371.1C368.35 387.506 366.1 389.756 366.1 392.506V409.416C366.1 412.166 368.35 414.416 371.1 414.416H390.942C388.192 414.416 385.942 412.166 385.942 409.416Z" fill="#AEC1ED"/>
</svg>
