<svg width="512" height="512" viewBox="0 0 512 512" fill="none" xmlns="http://www.w3.org/2000/svg">
<path d="M256 501C391.31 501 501 391.31 501 256C501 120.69 391.31 11 256 11C120.69 11 11 120.69 11 256C11 391.31 120.69 501 256 501Z" fill="#016FB9"/>
<path d="M211.24 383.73H300.77V428.16H211.24V383.73Z" fill="#445EA0"/>
<path d="M211.24 383.73H231.082V428.16H211.24V383.73Z" fill="#2E4C89"/>
<path d="M345.098 453.795C345.095 454.969 344.627 456.093 343.797 456.923C342.967 457.753 341.843 458.221 340.669 458.225H171.331C170.157 458.221 169.033 457.753 168.203 456.923C167.373 456.093 166.905 454.969 166.901 453.795V431.592C166.905 430.418 167.373 429.294 168.203 428.464C169.033 427.634 170.157 427.166 171.331 427.162H340.668C341.842 427.166 342.966 427.634 343.796 428.464C344.626 429.294 345.094 430.418 345.097 431.592V453.795H345.098Z" fill="#293D7C"/>
<path d="M186.744 453.795V431.592C186.748 430.418 187.216 429.294 188.046 428.464C188.876 427.634 190 427.166 191.174 427.162H171.332C170.158 427.166 169.034 427.634 168.204 428.464C167.374 429.294 166.906 430.418 166.902 431.592V453.795C166.906 454.969 167.374 456.093 168.204 456.923C169.034 457.753 170.158 458.221 171.332 458.225H191.174C190 458.221 188.876 457.753 188.046 456.923C187.216 456.093 186.748 454.969 186.744 453.795Z" fill="#1A2B63"/>
<path d="M506.198 42.867H5.803C2.611 42.867 0 45.479 0 48.672V378.926C0 382.117 2.611 384.729 5.803 384.729H350.268V367.384C350.269 366.535 350.606 365.721 351.207 365.12C351.808 364.52 352.622 364.182 353.471 364.181H366.957C369.711 364.181 372.577 362.142 373.482 359.54L376.029 353.421C377.227 351.004 376.65 347.542 374.689 345.6L365.171 336.157C364.569 335.558 364.237 334.759 364.237 333.906C364.237 333.053 364.569 332.254 365.172 331.655L382.433 314.529C382.733 314.231 383.088 313.996 383.48 313.836C383.871 313.676 384.289 313.595 384.712 313.597C385.576 313.597 386.386 313.928 386.991 314.529L396.508 323.972C397.727 325.182 399.61 325.906 401.543 325.906C402.583 325.906 403.575 325.69 404.412 325.283L410.613 322.742C413.167 321.871 415.211 319.012 415.211 316.255V302.936C415.212 302.087 415.549 301.273 416.149 300.672C416.75 300.072 417.564 299.734 418.413 299.733H442.852C443.701 299.734 444.515 300.072 445.115 300.672C445.716 301.273 446.053 302.087 446.054 302.936V316.255C446.054 319.013 448.098 321.871 450.707 322.764L456.914 325.31C457.691 325.691 458.684 325.906 459.723 325.906C461.657 325.906 463.539 325.183 464.759 323.973L474.277 314.53C474.882 313.929 475.691 313.598 476.555 313.598C477.419 313.598 478.228 313.929 478.833 314.53L496.091 331.657C496.389 331.951 496.624 332.302 496.785 332.688C496.946 333.075 497.027 333.489 497.026 333.908C497.026 334.76 496.693 335.56 496.091 336.158L486.576 345.602C484.615 347.543 484.038 351.005 485.262 353.482L487.804 359.596C488.686 362.143 491.551 364.182 494.307 364.182H507.794C508.643 364.183 509.457 364.52 510.058 365.121C510.658 365.722 510.996 366.536 510.997 367.385V382.173C511.628 381.245 511.997 380.127 511.997 378.927V48.672C512 45.479 509.389 42.867 506.198 42.867Z" fill="#293D7C"/>
<path d="M25.473 326.701C25.4756 327.624 25.8433 328.508 26.4958 329.16C27.1482 329.813 28.0323 330.18 28.955 330.183H366.656L382.434 314.528C382.734 314.23 383.09 313.995 383.481 313.835C383.872 313.675 384.291 313.594 384.713 313.596C385.577 313.596 386.387 313.927 386.992 314.528L396.509 323.971C397.728 325.181 399.611 325.905 401.544 325.905C402.584 325.905 403.576 325.689 404.413 325.282L410.614 322.741C413.168 321.87 415.212 319.011 415.212 316.254V302.935C415.213 302.086 415.55 301.272 416.15 300.671C416.751 300.071 417.565 299.733 418.414 299.732H442.853C443.702 299.733 444.516 300.071 445.116 300.671C445.717 301.272 446.054 302.086 446.055 302.935V316.254C446.055 319.012 448.099 321.87 450.708 322.763L456.915 325.309C457.692 325.69 458.685 325.905 459.724 325.905C461.658 325.905 463.54 325.182 464.76 323.972L474.278 314.529C474.883 313.928 475.692 313.597 476.556 313.597C477.42 313.597 478.229 313.928 478.834 314.529L486.526 322.163V99.913H25.473V326.701Z" fill="white"/>
<path d="M45.315 326.701V99.913H25.473V326.701C25.4756 327.624 25.8433 328.508 26.4958 329.16C27.1482 329.813 28.0323 330.18 28.955 330.183H48.797C47.8742 330.181 46.99 329.813 46.3375 329.161C45.685 328.508 45.3174 327.624 45.315 326.701Z" fill="#D9EAFC"/>
<path d="M249.615 253.532C240.487 244.404 227.133 242.026 215.793 246.382L177.534 208.123L169.843 215.814C169.738 215.919 169.657 216.047 169.607 216.187C169.558 216.327 169.54 216.477 169.555 216.625C169.794 218.858 169.173 221.099 167.817 222.89C167.694 223.052 167.623 223.248 167.614 223.451C167.605 223.655 167.659 223.856 167.767 224.028C169.898 227.412 169.67 231.528 167.252 234.162L197.632 264.542C193.275 275.881 195.653 289.237 204.782 298.366C212.684 306.268 223.866 309.404 234.693 306.755C234.97 306.688 235.223 306.547 235.428 306.349C235.632 306.151 235.78 305.902 235.856 305.628C236.013 305.069 235.856 304.47 235.446 304.061L215.93 284.543L235.791 264.681L255.308 284.2C255.51 284.401 255.761 284.544 256.037 284.616C256.312 284.688 256.602 284.685 256.876 284.608C257.15 284.531 257.398 284.383 257.596 284.178C257.794 283.974 257.934 283.72 258.002 283.444C260.654 272.616 257.518 261.435 249.615 253.532ZM148.928 208.658C150.641 208.658 152.343 209.16 153.852 210.11C154.024 210.218 154.226 210.271 154.429 210.262C154.632 210.253 154.828 210.183 154.99 210.06C156.524 208.894 158.401 208.267 160.328 208.276C160.637 208.276 160.947 208.292 161.255 208.324C161.403 208.339 161.552 208.321 161.693 208.271C161.833 208.222 161.96 208.141 162.065 208.036L169.757 200.344L131.498 162.086C135.854 150.746 133.476 137.391 124.348 128.264C116.445 120.361 105.264 117.224 94.437 119.874C94.1606 119.943 93.9074 120.083 93.7028 120.281C93.4982 120.479 93.3496 120.728 93.272 121.002C93.1953 121.276 93.193 121.566 93.2654 121.841C93.3379 122.117 93.4823 122.368 93.684 122.569L113.2 142.085L93.338 161.948L73.821 142.43C73.412 142.02 72.812 141.864 72.254 142.02C71.9882 142.093 71.7462 142.234 71.552 142.43C71.3436 142.637 71.1965 142.898 71.127 143.184C68.477 154.01 71.614 165.193 79.515 173.094C88.644 182.223 101.998 184.601 113.339 180.245L143.72 210.626C145.1 209.359 146.934 208.658 148.928 208.658Z" fill="#EF8354"/>
<path d="M256 373.017C264.653 373.017 271.667 366.003 271.667 357.35C271.667 348.697 264.653 341.683 256 341.683C247.347 341.683 240.333 348.697 240.333 357.35C240.333 366.003 247.347 373.017 256 373.017Z" fill="#445EA0"/>
<path d="M483.047 72.461H28.955C28.0323 72.4636 27.1482 72.8313 26.4958 73.4838C25.8433 74.1362 25.4756 75.0203 25.473 75.943V100.913H486.527V75.943C486.525 75.0205 486.158 74.1364 485.506 73.4839C484.853 72.8314 483.969 72.4636 483.047 72.461Z" fill="#016FB9"/>
<path d="M48.797 72.461H28.955C28.0323 72.4636 27.1482 72.8313 26.4958 73.4838C25.8433 74.1362 25.4756 75.0203 25.473 75.943V100.913H45.315V75.943C45.3176 75.0203 45.6853 74.1362 46.3378 73.4838C46.9902 72.8313 47.8743 72.4636 48.797 72.461Z" fill="#016FB9"/>
<path d="M414.212 456.022C414.215 457.135 414.659 458.202 415.446 458.99C416.234 459.777 417.301 460.221 418.414 460.224H442.853C443.966 460.221 445.033 459.777 445.82 458.989C446.608 458.202 447.052 457.135 447.055 456.022V442.704C447.055 440.393 448.844 437.889 451.032 437.14L457.296 434.574C459.375 433.561 462.417 434.066 464.057 435.695L473.575 445.14C475.215 446.766 477.899 446.766 479.54 445.14L496.798 428.011C497.188 427.623 497.498 427.162 497.709 426.654C497.921 426.146 498.03 425.601 498.03 425.051C498.03 424.5 497.921 423.955 497.709 423.447C497.498 422.939 497.188 422.478 496.798 422.09L487.283 412.646C485.64 411.018 485.137 407.99 486.162 405.917L488.73 399.743C489.488 397.56 492 395.773 494.31 395.773H507.797C508.911 395.77 509.978 395.327 510.765 394.54C511.553 393.753 511.997 392.686 512 391.572V367.383C511.997 366.269 511.553 365.202 510.765 364.415C509.978 363.627 508.911 363.183 507.797 363.18H494.31C491.999 363.18 489.488 361.394 488.73 359.21L486.162 353.036C485.138 350.964 485.64 347.936 487.283 346.309L496.798 336.865C497.188 336.477 497.498 336.016 497.709 335.508C497.921 335 498.03 334.455 498.03 333.905C498.03 333.354 497.921 332.809 497.709 332.301C497.498 331.793 497.188 331.332 496.798 330.944L479.54 313.817C477.899 312.188 475.215 312.188 473.575 313.817L464.057 323.26C462.416 324.887 459.373 325.393 457.295 324.381L451.032 321.815C448.844 321.067 447.055 318.563 447.055 316.252V302.933C447.052 301.819 446.608 300.752 445.821 299.965C445.034 299.177 443.967 298.733 442.853 298.73H418.414C417.3 298.733 416.233 299.177 415.446 299.965C414.659 300.752 414.215 301.819 414.212 302.933V316.252C414.212 318.563 412.423 321.066 410.235 321.815L403.974 324.381C401.898 325.393 398.853 324.889 397.212 323.26L387.695 313.817C386.053 312.188 383.369 312.188 381.728 313.817L364.466 330.944C364.076 331.332 363.767 331.794 363.556 332.302C363.345 332.81 363.236 333.354 363.236 333.905C363.236 334.455 363.345 334.999 363.556 335.507C363.767 336.015 364.076 336.477 364.466 336.865L373.984 346.309C375.626 347.936 376.129 350.963 375.105 353.036L372.537 359.21C371.777 361.394 369.267 363.18 366.956 363.18H353.47C352.356 363.183 351.289 363.627 350.502 364.415C349.714 365.202 349.27 366.269 349.267 367.383V391.572C349.27 392.686 349.714 393.753 350.502 394.54C351.289 395.327 352.356 395.77 353.47 395.773H366.956C369.268 395.773 371.777 397.56 372.537 399.743L375.106 405.919C376.13 407.989 375.628 411.018 373.987 412.646L364.466 422.09C364.076 422.478 363.767 422.94 363.556 423.448C363.345 423.956 363.236 424.5 363.236 425.051C363.236 425.601 363.345 426.145 363.556 426.653C363.767 427.161 364.076 427.623 364.466 428.011L381.728 445.14C383.369 446.766 386.053 446.766 387.695 445.138L397.21 435.695C398.851 434.066 401.894 433.561 403.972 434.573L410.235 437.14C412.423 437.888 414.212 440.392 414.212 442.704V456.022Z" fill="#EF8354"/>
<path d="M430.634 418.341C409.006 418.341 391.474 400.944 391.474 379.48C391.475 358.014 409.006 340.618 430.634 340.618C452.262 340.618 469.794 358.015 469.794 379.478C469.794 400.943 452.262 418.341 430.634 418.341Z" fill="#EF8354"/>
<path d="M403.388 379.479C403.388 360.023 417.789 343.91 436.59 341.062C434.619 340.765 432.628 340.616 430.634 340.617C409.006 340.617 391.475 358.014 391.474 379.479C391.474 400.943 409.006 418.34 430.634 418.34C432.659 418.34 434.649 418.188 436.59 417.894C417.789 415.046 403.388 398.933 403.388 379.479Z" fill="#EF8354"/>
<path d="M430.634 424.646C405.565 424.646 385.17 404.383 385.17 379.48C385.171 354.575 405.567 334.313 430.634 334.313C455.703 334.313 476.099 354.575 476.099 379.478C476.099 404.383 455.703 424.646 430.634 424.646ZM430.634 346.92C412.519 346.92 397.78 361.525 397.779 379.48C397.779 397.432 412.518 412.04 430.634 412.04C448.751 412.04 463.489 397.433 463.491 379.478C463.491 361.525 448.751 346.92 430.634 346.92Z" fill="#E06834"/>
<path d="M430.634 395.908C421.491 395.908 414.08 388.551 414.08 379.479C414.08 370.403 421.491 363.048 430.634 363.048C439.78 363.048 447.188 370.402 447.188 379.477C447.188 388.551 439.779 395.908 430.634 395.908Z" fill="#EF8354"/>
<path d="M425.992 379.479C425.992 372.492 430.393 366.539 436.59 364.164C434.69 363.43 432.671 363.052 430.634 363.049C421.491 363.049 414.08 370.403 414.08 379.48C414.08 388.551 421.491 395.909 430.634 395.909C432.737 395.909 434.74 395.503 436.59 394.794C430.394 392.418 425.992 386.466 425.992 379.479Z" fill="#EF8354"/>
<path d="M430.634 402.211C418.031 402.211 407.776 392.014 407.776 379.48C407.776 366.943 418.031 356.748 430.634 356.748C443.239 356.748 453.492 366.943 453.492 379.478C453.489 392.014 443.237 402.211 430.634 402.211ZM430.634 369.353C424.982 369.353 420.385 373.896 420.385 379.479C420.385 385.059 424.982 389.603 430.634 389.603C436.286 389.603 440.883 385.059 440.883 379.477C440.883 373.897 436.286 369.353 430.634 369.353Z" fill="#E06834"/>
<path d="M140.441 226.608L151.27 237.437C152.141 238.308 152.823 239.35 153.273 240.497L157.965 235.805C156.841 235.316 155.819 234.621 154.953 233.754L144.124 222.926C143.257 222.061 142.559 221.04 142.068 219.918L137.378 224.608C138.526 225.056 139.569 225.737 140.441 226.608ZM252.734 130.761L247.117 125.144C246.492 124.52 245.332 124.326 244.539 124.712L232.023 130.82C231.229 131.207 230.263 132.173 229.877 132.966L224.312 144.373L161.356 207.329C158.58 207.041 155.723 207.918 153.577 209.945C154.296 210.365 154.973 210.873 155.574 211.474L166.403 222.302C166.997 222.898 167.513 223.567 167.938 224.294C169.962 222.148 170.837 219.294 170.55 216.521L233.503 153.568L244.913 148.002C245.707 147.615 246.673 146.649 247.059 145.856L253.166 133.339C253.553 132.546 253.357 131.386 252.734 130.761Z" fill="#445EA0"/>
<path d="M167.749 235.1C164.211 238.638 158.135 238.351 154.246 234.461L143.417 223.633C139.528 219.743 139.24 213.667 142.778 210.129C146.316 206.591 152.392 206.878 156.281 210.768L167.11 221.596C170.999 225.485 171.287 231.561 167.749 235.1Z" fill="#293D7C"/>
<path d="M430.432 147.983H298.56C294.418 147.983 291.06 144.626 291.06 140.483C291.06 136.34 294.418 132.983 298.56 132.983H430.431C434.574 132.983 437.931 136.34 437.931 140.483C437.931 141.468 437.737 142.443 437.361 143.353C436.984 144.263 436.432 145.09 435.735 145.787C435.039 146.483 434.212 147.035 433.302 147.412C432.392 147.789 431.417 147.983 430.432 147.983ZM430.432 172.471H298.56C294.418 172.471 291.06 169.114 291.06 164.971C291.06 160.828 294.418 157.471 298.56 157.471H430.431C434.574 157.471 437.931 160.828 437.931 164.971C437.931 165.956 437.737 166.931 437.36 167.841C436.984 168.751 436.431 169.578 435.735 170.274C435.039 170.971 434.212 171.523 433.302 171.9C432.392 172.277 431.417 172.471 430.432 172.471ZM430.432 196.958H298.56C294.418 196.958 291.06 193.601 291.06 189.458C291.06 185.315 294.418 181.958 298.56 181.958H430.431C434.574 181.958 437.931 185.315 437.931 189.458C437.931 190.443 437.737 191.418 437.361 192.328C436.984 193.238 436.432 194.065 435.735 194.762C435.039 195.458 434.212 196.01 433.302 196.387C432.392 196.764 431.417 196.958 430.432 196.958Z" fill="#016FB9"/>
<path d="M430.432 237.979H298.56C294.418 237.979 291.06 234.622 291.06 230.479C291.06 226.336 294.418 222.979 298.56 222.979H430.431C434.574 222.979 437.931 226.336 437.931 230.479C437.931 234.622 434.574 237.979 430.432 237.979ZM430.432 262.466H298.56C294.418 262.466 291.06 259.109 291.06 254.966C291.06 250.823 294.418 247.466 298.56 247.466H430.431C434.574 247.466 437.931 250.823 437.931 254.966C437.931 255.951 437.737 256.926 437.36 257.836C436.984 258.746 436.431 259.573 435.735 260.269C435.039 260.966 434.212 261.518 433.302 261.895C432.392 262.272 431.417 262.466 430.432 262.466ZM364.085 286.953H298.56C294.418 286.953 291.06 283.596 291.06 279.453C291.06 275.31 294.418 271.953 298.56 271.953H364.085C368.228 271.953 371.585 275.31 371.585 279.453C371.585 283.596 368.228 286.953 364.085 286.953Z" fill="#EF8354"/>
<path d="M105.584 297.266C101.695 301.156 95.331 301.156 91.441 297.266L80.612 286.438C76.723 282.548 76.723 276.185 80.612 272.295L127.006 225.902C130.895 222.012 137.259 222.012 141.148 225.902L151.977 236.731C155.866 240.62 155.866 246.984 151.977 250.874L105.584 297.266Z" fill="#293D7C"/>
<path d="M97.455 286.438C93.566 282.548 93.566 276.185 97.455 272.295L142.498 227.252L141.148 225.901C137.259 222.011 130.895 222.011 127.006 225.901L80.612 272.294C76.723 276.184 76.723 282.547 80.612 286.437L91.441 297.265C95.33 301.155 101.694 301.155 105.584 297.265L106.934 295.915L97.455 286.438ZM149.278 216.629C152.816 213.091 158.892 213.378 162.781 217.268L156.281 210.768C152.392 206.878 146.315 206.591 142.778 210.129C139.241 213.667 139.528 219.743 143.417 223.633L149.914 230.129C146.028 226.24 145.742 220.166 149.278 216.629Z" fill="#1A2B63"/>
</svg>
