<svg width="512" height="512" viewBox="0 0 512 512" fill="none" xmlns="http://www.w3.org/2000/svg">
<g clip-path="url(#clip0_17_12)">
<path d="M153.585 158.012H125.311L202.394 375.909L245.548 252.591L212.09 158.012H182.258V137.25H314.364V158.012H283.428L360.51 375.909L388.218 296.727C424.566 195.279 358.428 163.678 358.428 141.037C358.428 118.397 376.782 100.044 399.421 100.044C400.646 100.044 401.835 100.111 403.001 100.219C364.64 64.0066 312.915 41.7996 255.998 41.7996C181.627 41.7996 116.118 79.7083 77.7148 137.25H153.583V158.012H153.585ZM41.7996 256C41.7996 338.007 87.8925 409.238 155.577 445.233L58.9126 171.983C47.9011 197.78 41.7996 226.177 41.7996 256ZM442.417 150.449C445.481 168.489 444.553 188.766 439.851 209.121H440.704L437.465 218.376C435.545 225.059 433.129 231.894 430.384 238.611L356.68 445.094C424.223 409.057 470.198 337.902 470.198 255.999C470.198 217.62 460.095 181.604 442.417 150.449Z" fill="#00769D"/>
<path d="M189.938 459.801C210.748 466.542 232.944 470.198 256 470.198C277.991 470.198 299.205 466.879 319.176 460.723L256.52 283.609L189.938 459.801Z" fill="#00769D"/>
<path d="M437.019 74.9803C388.667 26.6285 324.379 0 255.999 0C187.619 0 123.332 26.6285 74.9803 74.9803C26.6285 123.332 0 187.619 0 256C0 324.38 26.6285 388.667 74.9803 437.019C123.332 485.37 187.62 511.999 256 511.999C324.38 511.999 388.667 485.37 437.02 437.019C485.372 388.667 512 324.379 512 256C511.999 187.619 485.37 123.332 437.019 74.9803ZM255.999 493.94C124.798 493.94 18.0589 387.201 18.0589 256C18.0589 124.799 124.798 18.0589 255.999 18.0589C387.199 18.0589 493.939 124.799 493.939 256C493.939 387.201 387.201 493.94 255.999 493.94Z" fill="#00769D"/>
</g>
<defs>
<clipPath id="clip0_17_12">
<rect width="512" height="512" fill="white"/>
</clipPath>
</defs>
</svg>
