<svg width="512" height="512" viewBox="0 0 512 512" fill="none" xmlns="http://www.w3.org/2000/svg">
<path d="M332.5 330.99C414.514 330.99 481 264.504 481 182.49C481 100.476 414.514 33.99 332.5 33.99C250.486 33.99 184 100.476 184 182.49C184 264.504 250.486 330.99 332.5 330.99Z" fill="#EF8354"/>
<path d="M332.5 317.62C407.13 317.62 467.63 257.12 467.63 182.49C467.63 107.86 407.13 47.36 332.5 47.36C257.87 47.36 197.37 107.86 197.37 182.49C197.37 257.12 257.87 317.62 332.5 317.62Z" fill="#FFB99A"/>
<path d="M220.53 103C218.977 102.574 217.657 101.549 216.86 100.15C216.063 98.7512 215.854 97.0928 216.28 95.54C216.706 93.9872 217.731 92.667 219.13 91.87C220.529 91.073 222.187 90.8643 223.74 91.29C295.618 111.065 371.475 111.272 443.46 91.89C445.015 91.471 446.674 91.687 448.07 92.4906C449.466 93.2942 450.486 94.6195 450.905 96.175C451.324 97.7305 451.108 99.3887 450.304 100.785C449.501 102.181 448.175 103.201 446.62 103.62C372.547 123.56 294.492 123.346 220.53 103ZM445.05 269.24C439.26 269.24 343.75 234.24 218.68 268.42C217.9 268.665 217.079 268.75 216.265 268.671C215.452 268.591 214.663 268.348 213.945 267.957C213.228 267.565 212.597 267.033 212.089 266.392C211.582 265.751 211.21 265.014 210.994 264.226C210.778 263.437 210.723 262.613 210.833 261.803C210.942 260.993 211.214 260.214 211.632 259.511C212.05 258.809 212.605 258.198 213.265 257.715C213.924 257.232 214.674 256.887 215.47 256.7C291.174 235.965 371.088 236.179 446.68 257.32C448.096 257.712 449.322 258.604 450.13 259.831C450.938 261.058 451.274 262.537 451.075 263.992C450.876 265.448 450.155 266.782 449.047 267.747C447.94 268.712 446.519 269.243 445.05 269.24ZM472.78 188.87L191.78 188.26C190.211 188.196 188.728 187.528 187.641 186.396C186.554 185.264 185.947 183.755 185.947 182.185C185.947 180.615 186.554 179.106 187.641 177.974C188.728 176.842 190.211 176.174 191.78 176.11L472.78 176.72C474.349 176.784 475.832 177.452 476.919 178.584C478.006 179.716 478.613 181.225 478.613 182.795C478.613 184.365 478.006 185.874 476.919 187.006C475.832 188.138 474.349 188.806 472.78 188.87Z" fill="#EF8354"/>
<path d="M332.5 329.43C330.89 329.43 329.346 328.79 328.208 327.652C327.07 326.514 326.43 324.97 326.43 323.36V42.44C326.494 40.8715 327.162 39.3883 328.294 38.301C329.426 37.2137 330.935 36.6065 332.505 36.6065C334.075 36.6065 335.584 37.2137 336.716 38.301C337.848 39.3883 338.516 40.8715 338.58 42.44V323.36C338.577 324.971 337.936 326.515 336.796 327.653C335.656 328.791 334.111 329.43 332.5 329.43ZM311.52 326.49C309.912 326.492 308.369 325.855 307.23 324.72C295.94 313.47 240.05 252.89 248.89 165.13C255.56 98.92 295.22 56 312 40.6C313.197 39.5779 314.745 39.06 316.316 39.1554C317.887 39.2508 319.361 39.9521 320.425 41.1115C321.49 42.271 322.064 43.7984 322.026 45.3722C321.987 46.9461 321.34 48.4437 320.22 49.55C304.5 63.99 267.22 104.29 261.01 166.35C252.72 248.64 305.23 305.55 315.84 316.12C316.688 316.972 317.265 318.056 317.497 319.236C317.729 320.416 317.606 321.638 317.144 322.748C316.682 323.858 315.901 324.806 314.9 325.472C313.898 326.138 312.722 326.492 311.52 326.49ZM353.59 326.49C352.39 326.486 351.218 326.128 350.222 325.46C349.225 324.791 348.449 323.843 347.99 322.734C347.531 321.626 347.411 320.406 347.644 319.229C347.877 318.052 348.453 316.97 349.3 316.12C359.91 305.55 412.42 248.64 404.13 166.35C397.88 104.28 360.64 63.99 344.93 49.55C343.743 48.4613 343.037 46.9457 342.968 45.3366C342.899 43.7276 343.471 42.1569 344.56 40.97C345.649 39.7832 347.164 39.0774 348.773 39.008C350.382 38.9386 351.953 39.5113 353.14 40.6C369.89 56 409.55 98.92 416.22 165.13C425.06 252.89 369.17 313.47 357.88 324.72C356.741 325.855 355.198 326.492 353.59 326.49Z" fill="#EF8354"/>
<path d="M48.85 276.04H325.02V415.41H48.85V276.04Z" fill="#2D1929"/>
<path d="M329.54 213.44H44.33C36.968 213.44 31 219.408 31 226.77V281.63C31 288.992 36.968 294.96 44.33 294.96H329.54C336.902 294.96 342.87 288.992 342.87 281.63V226.77C342.87 219.408 336.902 213.44 329.54 213.44Z" fill="#016FB9"/>
<path d="M329.54 304.96H44.33C36.968 304.96 31 310.928 31 318.29V373.15C31 380.512 36.968 386.48 44.33 386.48H329.54C336.902 386.48 342.87 380.512 342.87 373.15V318.29C342.87 310.928 336.902 304.96 329.54 304.96Z" fill="#016FB9"/>
<path d="M329.54 396.48H44.33C36.968 396.48 31 402.448 31 409.81V464.67C31 472.032 36.968 478 44.33 478H329.54C336.902 478 342.87 472.032 342.87 464.67V409.81C342.87 402.448 336.902 396.48 329.54 396.48Z" fill="#016FB9"/>
<path d="M67.91 262.13C72.2896 262.13 75.84 258.58 75.84 254.2C75.84 249.82 72.2896 246.27 67.91 246.27C63.5304 246.27 59.98 249.82 59.98 254.2C59.98 258.58 63.5304 262.13 67.91 262.13Z" fill="#E73F46"/>
<path d="M99.62 262.13C104 262.13 107.55 258.58 107.55 254.2C107.55 249.82 104 246.27 99.62 246.27C95.2404 246.27 91.69 249.82 91.69 254.2C91.69 258.58 95.2404 262.13 99.62 262.13Z" fill="#FFB99A"/>
<path d="M131.32 262.13C135.7 262.13 139.25 258.58 139.25 254.2C139.25 249.82 135.7 246.27 131.32 246.27C126.94 246.27 123.39 249.82 123.39 254.2C123.39 258.58 126.94 262.13 131.32 262.13Z" fill="#EFEFEF"/>
<path d="M270.41 244.57H314.91V263.84H270.41V244.57ZM217.33 244.57H261.83V263.84H217.33V244.57Z" fill="#EF8354"/>
<path d="M67.91 353.65C72.2896 353.65 75.84 350.1 75.84 345.72C75.84 341.34 72.2896 337.79 67.91 337.79C63.5304 337.79 59.98 341.34 59.98 345.72C59.98 350.1 63.5304 353.65 67.91 353.65Z" fill="#E73F46"/>
<path d="M99.62 353.65C104 353.65 107.55 350.1 107.55 345.72C107.55 341.34 104 337.79 99.62 337.79C95.2404 337.79 91.69 341.34 91.69 345.72C91.69 350.1 95.2404 353.65 99.62 353.65Z" fill="#FFB99A"/>
<path d="M131.32 353.65C135.7 353.65 139.25 350.1 139.25 345.72C139.25 341.34 135.7 337.79 131.32 337.79C126.94 337.79 123.39 341.34 123.39 345.72C123.39 350.1 126.94 353.65 131.32 353.65Z" fill="#EFEFEF"/>
<path d="M270.41 336.09H314.91V355.36H270.41V336.09ZM217.33 336.09H261.83V355.36H217.33V336.09Z" fill="#EF8354"/>
<path d="M67.91 445.18C72.2896 445.18 75.84 441.63 75.84 437.25C75.84 432.87 72.2896 429.32 67.91 429.32C63.5304 429.32 59.98 432.87 59.98 437.25C59.98 441.63 63.5304 445.18 67.91 445.18Z" fill="#E73F46"/>
<path d="M99.62 445.18C104 445.18 107.55 441.63 107.55 437.25C107.55 432.87 104 429.32 99.62 429.32C95.2404 429.32 91.69 432.87 91.69 437.25C91.69 441.63 95.2404 445.18 99.62 445.18Z" fill="#FFB99A"/>
<path d="M131.32 445.18C135.7 445.18 139.25 441.63 139.25 437.25C139.25 432.87 135.7 429.32 131.32 429.32C126.94 429.32 123.39 432.87 123.39 437.25C123.39 441.63 126.94 445.18 131.32 445.18Z" fill="#EFEFEF"/>
<path d="M270.41 427.61H314.91V446.88H270.41V427.61ZM217.33 427.61H261.83V446.88H217.33V427.61Z" fill="#EF8354"/>
</svg>
