<svg width="512" height="512" viewBox="0 0 512 512" fill="none" xmlns="http://www.w3.org/2000/svg">
<mask id="mask0_25_2" style="mask-type:luminance" maskUnits="userSpaceOnUse" x="121" y="33" width="315" height="231">
<path d="M427.22 33.03H129.86C125.243 33.03 121.5 36.7729 121.5 41.39V255.52C121.5 260.137 125.243 263.88 129.86 263.88H427.22C431.837 263.88 435.58 260.137 435.58 255.52V41.39C435.58 36.7729 431.837 33.03 427.22 33.03Z" fill="white"/>
</mask>
<g mask="url(#mask0_25_2)">
<path d="M427.22 33.03H129.86C125.243 33.03 121.5 36.7729 121.5 41.39V255.52C121.5 260.137 125.243 263.88 129.86 263.88H427.22C431.837 263.88 435.58 260.137 435.58 255.52V41.39C435.58 36.7729 431.837 33.03 427.22 33.03Z" fill="white"/>
<path d="M105.21 17.29H442.29V66.37H105.21V17.29Z" fill="#016FB9"/>
</g>
<path d="M420.53 45.42H365.36C363.869 45.42 362.66 46.6288 362.66 48.12V51.17C362.66 52.6612 363.869 53.87 365.36 53.87H420.53C422.021 53.87 423.23 52.6612 423.23 51.17V48.12C423.23 46.6288 422.021 45.42 420.53 45.42Z" fill="white"/>
<path d="M153.58 85.6H403.51V124.42H153.58V85.6ZM153.58 140.47H247.27V244.28H153.58V140.47Z" fill="#016FB9"/>
<path d="M262.73 140.47H403.5V244.28H262.73V140.47Z" fill="#EF8354"/>
<path d="M333.11 156.69C327.149 156.69 321.322 158.458 316.365 161.77C311.409 165.081 307.545 169.789 305.264 175.296C302.983 180.803 302.386 186.863 303.549 192.71C304.712 198.557 307.583 203.927 311.798 208.142C316.013 212.357 321.383 215.228 327.23 216.391C333.077 217.554 339.137 216.957 344.644 214.676C350.151 212.395 354.859 208.531 358.17 203.575C361.482 198.618 363.25 192.791 363.25 186.83C363.25 178.836 360.075 171.17 354.422 165.518C348.77 159.865 341.104 156.69 333.11 156.69ZM333.11 206.56C329.208 206.56 325.393 205.403 322.149 203.235C318.904 201.067 316.375 197.986 314.882 194.38C313.389 190.775 312.998 186.808 313.759 182.981C314.52 179.154 316.399 175.638 319.159 172.879C321.918 170.119 325.434 168.24 329.261 167.479C333.088 166.718 337.055 167.109 340.66 168.602C344.266 170.095 347.347 172.624 349.515 175.869C351.683 179.113 352.84 182.928 352.84 186.83C352.84 192.063 350.761 197.081 347.061 200.781C343.361 204.481 338.343 206.56 333.11 206.56Z" fill="white"/>
<path d="M338.18 149.86H328.04C325.262 149.86 323.01 152.112 323.01 154.89V160.85C323.01 163.628 325.262 165.88 328.04 165.88H338.18C340.958 165.88 343.21 163.628 343.21 160.85V154.89C343.21 152.112 340.958 149.86 338.18 149.86Z" fill="white"/>
<path d="M338.18 208.96H328.04C325.262 208.96 323.01 211.212 323.01 213.99V219.95C323.01 222.728 325.262 224.98 328.04 224.98H338.18C340.958 224.98 343.21 222.728 343.21 219.95V213.99C343.21 211.212 340.958 208.96 338.18 208.96Z" fill="white"/>
<path d="M370.67 192.49V182.35C370.67 179.572 368.418 177.32 365.64 177.32H359.68C356.902 177.32 354.65 179.572 354.65 182.35V192.49C354.65 195.268 356.902 197.52 359.68 197.52H365.64C368.418 197.52 370.67 195.268 370.67 192.49Z" fill="white"/>
<path d="M311.58 192.49V182.35C311.58 179.572 309.328 177.32 306.55 177.32H300.59C297.812 177.32 295.56 179.572 295.56 182.35V192.49C295.56 195.268 297.812 197.52 300.59 197.52H306.55C309.328 197.52 311.58 195.268 311.58 192.49Z" fill="white"/>
<path d="M356.148 217.548L363.318 210.378C365.283 208.414 365.283 205.229 363.318 203.265L359.104 199.05C357.14 197.086 353.955 197.086 351.991 199.05L344.821 206.22C342.856 208.185 342.856 211.37 344.821 213.334L349.035 217.548C350.999 219.513 354.184 219.513 356.148 217.548Z" fill="white"/>
<path d="M314.352 175.763L321.522 168.593C323.487 166.628 323.487 163.444 321.522 161.479L317.308 157.265C315.344 155.301 312.159 155.301 310.194 157.265L303.024 164.435C301.06 166.399 301.06 169.584 303.024 171.549L307.239 175.763C309.203 177.727 312.388 177.727 314.352 175.763Z" fill="white"/>
<path d="M363.238 164.393L356.068 157.223C354.103 155.258 350.918 155.258 348.954 157.223L344.74 161.437C342.775 163.401 342.775 166.586 344.74 168.55L351.91 175.72C353.874 177.685 357.059 177.685 359.023 175.72L363.238 171.506C365.202 169.542 365.202 166.357 363.238 164.393Z" fill="white"/>
<path d="M321.464 206.176L314.294 199.006C312.329 197.041 309.144 197.041 307.18 199.006L302.966 203.22C301.001 205.185 301.001 208.369 302.966 210.334L310.136 217.504C312.1 219.468 315.285 219.468 317.249 217.504L321.464 213.289C323.428 211.325 323.428 208.14 321.464 206.176Z" fill="white"/>
<path d="M450.17 241.2L382.6 189C380.695 187.78 378.4 187.323 376.172 187.719C373.945 188.116 371.949 189.336 370.58 191.138C369.212 192.94 368.573 195.191 368.79 197.443C369.007 199.694 370.063 201.782 371.75 203.29L440.18 254.37C443.5 256.85 448.39 255.92 451.13 252.37C453.87 248.82 453.5 243.77 450.17 241.2Z" fill="#2D1929"/>
<path d="M351.69 206.14L366.69 198.14L367.52 174.32L351.24 164.14C354.816 162.261 358.814 161.332 362.852 161.441C366.89 161.55 370.833 162.695 374.302 164.765C377.77 166.835 380.65 169.761 382.663 173.263C384.677 176.764 385.758 180.725 385.802 184.764C385.846 188.803 384.853 192.786 382.916 196.331C380.979 199.876 378.165 202.865 374.742 205.01C371.32 207.156 367.403 208.386 363.369 208.584C359.334 208.782 355.316 207.94 351.7 206.14H351.69Z" fill="#2D1929"/>
<mask id="mask1_25_2" style="mask-type:luminance" maskUnits="userSpaceOnUse" x="135" y="246" width="51" height="92">
<path d="M135.27 246.21H185.8V337.48H135.27V246.21Z" fill="white"/>
</mask>
<g mask="url(#mask1_25_2)">
<path d="M135.27 246.21H185.8V337.48H135.27V246.21Z" fill="#E39C76"/>
<path d="M139.25 263.84C145.85 287.48 166.1 302.31 189.46 303.76C190.72 294.053 191.977 284.347 193.23 274.64L139.25 263.84Z" fill="#D48F6E"/>
</g>
<path d="M203.56 155.88C203.44 155.8 193.56 143.6 177.83 137.59C156.83 127.85 126.34 133.59 108.89 153.1C88.79 175.59 95.2 206.1 96.79 213.62C104.22 248.94 133.57 267.77 146.05 274.35C152.971 278.744 160.442 282.204 168.27 284.64C176.99 287.24 197.1 289.69 213.56 281.37C233.87 271.1 218.91 203 216.8 196C215.67 173.36 211.16 161.75 203.56 155.88Z" fill="#E39C76"/>
<path d="M226.55 209.72C223.47 207.34 219.68 203.28 216.8 195.95L222 227.76C226.26 226.9 234.31 223.33 233.62 216.34C233.34 213.43 229.9 212.31 226.55 209.72Z" fill="#E39C76"/>
<path d="M206.18 209.8C203.63 210.54 200.64 207.94 199.5 204C198.36 200.06 199.5 196.27 202.06 195.53C204.62 194.79 207.6 197.39 208.74 201.33C209.88 205.27 208.73 209.06 206.18 209.8ZM184.59 185.17C184.402 185.171 184.217 185.119 184.057 185.019C183.897 184.92 183.768 184.778 183.686 184.608C183.603 184.439 183.57 184.25 183.59 184.063C183.611 183.875 183.683 183.698 183.8 183.55C183.88 183.44 192.46 172.69 205.5 177.02C205.625 177.062 205.74 177.128 205.84 177.214C205.939 177.301 206.02 177.406 206.079 177.524C206.137 177.642 206.172 177.77 206.181 177.902C206.19 178.033 206.172 178.165 206.13 178.29C206.088 178.415 206.022 178.53 205.936 178.63C205.849 178.729 205.744 178.81 205.626 178.869C205.508 178.927 205.38 178.962 205.248 178.971C205.117 178.98 204.985 178.962 204.86 178.92C193.19 175.04 185.69 184.39 185.38 184.79C185.286 184.909 185.166 185.005 185.029 185.071C184.892 185.137 184.742 185.171 184.59 185.17Z" fill="#2D1929"/>
<path d="M78.25 483C78.25 483 92.57 350.24 109.83 324.3C127.09 298.36 207.07 295.11 236 335.66C264.93 376.21 253.47 483 253.47 483H78.25Z" fill="#016FB9"/>
<path d="M171.05 304.93C210.15 302.34 235.05 311.11 250.67 319.77C259.38 324.6 286.05 344.07 329.09 361.77L377.42 253.59L412.33 253.07C404.89 313.27 394.02 358.22 385.5 387.91C381.39 402.21 376.18 418.72 361.42 427.12C352.32 432.3 339.8 433.31 296.07 421.62C269.483 414.476 243.686 404.667 219.07 392.34L171.05 304.93ZM166.69 305.18C151.29 304.74 90.08 304.34 71.46 339.72C66.38 349.38 66.1 358.51 66.3 374.29C66.8079 410.628 69.2212 446.915 73.53 483H127.7L166.69 305.18Z" fill="#016FB9"/>
<path d="M187.35 291.84H130.99C129.267 291.84 127.87 293.237 127.87 294.96V311.15C127.87 312.873 129.267 314.27 130.99 314.27H187.35C189.073 314.27 190.47 312.873 190.47 311.15V294.96C190.47 293.237 189.073 291.84 187.35 291.84Z" fill="#016FB9"/>
<path d="M129.25 222C168.8 188.81 133.78 168.19 143.01 155.39C146.45 150.61 152.34 152.12 159.17 144.73C162.034 141.58 164.216 137.873 165.58 133.84C165.58 133.84 179.97 137.94 188.06 142.75C188.06 142.75 194.6 116.18 180.84 110.67C167.08 105.16 155.56 114.11 155.56 114.11C138.72 113.87 105.3 116.11 79.72 138.88C75.07 143.01 69.91 147.69 65.79 155.56C52 181.87 64.35 216.06 80.23 236C99.65 260.4 126.85 266.75 136.28 268.49C138.232 260.66 138.616 252.521 137.409 244.543C136.203 236.564 133.43 228.903 129.25 222Z" fill="#2D1929"/>
<path d="M142.32 240.84C135 245.65 124.32 242.34 118.48 233.45C112.64 224.56 113.82 213.45 121.14 208.63C128.46 203.81 139.14 207.12 144.99 216.01C150.84 224.9 149.64 236 142.32 240.84Z" fill="#E39C76"/>
<path d="M141 231.48C140 231.48 135.6 231.23 134.26 226.79C133.33 223.69 137.09 221.66 138.61 220.98C137.16 219.04 131.61 212.23 125.99 213.65C120.71 214.98 122.09 220.94 122.15 221.2C122.18 221.333 122.157 221.472 122.085 221.587C122.013 221.703 121.898 221.785 121.765 221.815C121.632 221.846 121.493 221.822 121.378 221.75C121.262 221.678 121.18 221.563 121.15 221.43C121.15 221.36 119.49 214.25 125.72 212.68C132.86 210.87 139.49 220.5 139.72 220.92C139.763 220.983 139.79 221.054 139.801 221.129C139.812 221.205 139.806 221.281 139.783 221.353C139.76 221.426 139.72 221.492 139.668 221.547C139.615 221.601 139.551 221.644 139.48 221.67C139.48 221.67 134.27 223.67 135.14 226.5C136.4 230.69 140.85 230.5 141.04 230.5C141.171 230.497 141.299 230.544 141.397 230.631C141.496 230.718 141.557 230.839 141.57 230.97C141.575 231.036 141.567 231.102 141.547 231.165C141.526 231.228 141.492 231.286 141.448 231.335C141.404 231.385 141.351 231.425 141.291 231.453C141.231 231.482 141.166 231.498 141.1 231.5L141 231.48Z" fill="#2D1929"/>
<path d="M74.56 365L84.36 407.83V482.95H93.91L90.04 408.6L74.56 365ZM254.83 408.13C254.83 408.13 243.99 407.13 222.56 394.05C222.56 394.05 238.28 455.29 232.78 466.99C227.28 478.69 127.7 483 127.7 483H253.47C253.47 483 259.34 426 254.83 408.13ZM329.09 361.74C329.09 361.74 332.27 392.86 340.27 402.41C348.27 411.96 316.07 390.22 311.75 354.14L329.09 361.74Z" fill="#1573D8"/>
<path d="M219.37 236.88L195.29 240.66C198.16 244.561 202.065 247.58 206.564 249.374C211.062 251.168 215.973 251.666 220.74 250.81C220.28 246.157 219.823 241.513 219.37 236.88Z" fill="white"/>
<path d="M370.83 268.32C374.283 257.78 377.74 247.243 381.2 236.71C380.013 232.781 379.756 228.629 380.451 224.583C381.145 220.538 382.771 216.709 385.2 213.4C389.47 215.8 394.77 214.88 397.49 211.94C398.711 210.532 399.499 208.802 399.76 206.957C400.021 205.112 399.743 203.231 398.96 201.54C399.83 201.173 400.765 200.985 401.709 200.989C402.653 200.993 403.586 201.187 404.453 201.561C405.32 201.934 406.102 202.48 406.753 203.163C407.404 203.847 407.91 204.656 408.24 205.54C411.77 203.03 416.01 205.49 416.24 209.54C419.73 207.96 422.95 211.28 422.09 214.79C431.7 214.23 425.84 230 421.14 238.26C419.154 241.755 416.742 244.989 413.96 247.89C412.46 257.01 410.957 266.127 409.45 275.24C396.163 277.527 382.496 275.078 370.83 268.32Z" fill="#E39C76"/>
<path d="M355.23 302.83L372.06 259.76C372.5 258.637 373.325 257.707 374.387 257.136C375.45 256.564 376.68 256.389 377.86 256.64L410.1 263.48C410.66 263.599 411.19 263.829 411.659 264.156C412.128 264.483 412.528 264.901 412.833 265.384C413.139 265.868 413.345 266.408 413.439 266.972C413.532 267.536 413.513 268.114 413.38 268.67L403.58 310.21L355.23 302.83Z" fill="#016FB9"/>
</svg>
