<svg width="512" height="512" viewBox="0 0 512 512" fill="none" xmlns="http://www.w3.org/2000/svg">
<g clip-path="url(#clip0_47_109)">
<path d="M256 512C187.62 512 123.333 485.371 74.981 437.019C26.629 388.667 0 324.38 0 256C0 187.62 26.629 123.333 74.981 74.981C123.333 26.629 187.62 0 256 0C324.38 0 388.667 26.629 437.019 74.981C485.371 123.333 512 187.62 512 256C512 324.38 485.371 388.667 437.019 437.019C388.667 485.371 324.38 512 256 512Z" fill="#016FB9"/>
<path d="M434.19 253.193C434.19 275.918 499.072 300.731 493.302 321.614C475.924 384.629 434.117 437.503 378.712 469.434C342.596 490.249 307.935 449.277 263.243 449.277C127.287 449.277 59.113 388.132 59.113 252.186C59.113 233.163 12.001 218.455 16.087 200.663C37.463 107.607 111.575 34.696 205.291 15.073C221.655 11.646 229.775 74.201 247.154 74.201C383.101 74.203 434.19 117.247 434.19 253.193Z" fill="#016FB9"/>
<path d="M502.154 256C502.154 278.725 499.072 300.731 493.302 321.615C471.847 317.066 456.29 297.541 443.126 279.483C428.199 289.88 407.237 290.786 391.473 281.718C377.511 273.684 368.354 258.993 363.776 243.554C359.198 228.115 358.695 211.79 358.528 195.692C358.439 188.022 358.174 179.643 353.162 173.834C349.302 169.344 343.335 167.335 337.585 165.908C301.578 156.987 260.864 163.062 229.612 143.075C196.598 121.965 185.6 76.495 195.466 38.568C197.603 30.366 200.714 22.174 205.292 15.075C221.969 11.5896 238.962 9.8376 256 9.84701C391.946 9.84601 502.154 120.054 502.154 256ZM378.713 469.435C342.597 490.25 300.692 502.154 256 502.154C120.044 502.154 9.846 391.946 9.846 256C9.846 236.977 12.002 218.457 16.088 200.665C43.805 197.563 79.714 224.148 89.993 245.327C101.602 269.263 96.728 297.413 96.246 324.018C96.207 326.036 96.207 328.144 97.063 329.985C99.751 335.745 107.972 335.125 114.215 333.973C140.11 329.188 167.886 331.433 191.074 343.918C214.262 356.403 232.113 379.955 234.22 406.205C257.92 389.9 289.989 392.519 317.331 401.449C338.431 408.341 359.522 419.586 370.668 438.786C376.064 448.089 378.624 458.703 378.713 469.435Z" fill="#E6E6E6"/>
<path d="M60.12 128.503H394.973V367.827H60.12V128.503Z" fill="#EF8354"/>
<path d="M445.254 222.527V406.296C445.254 412.814 439.957 418.111 433.439 418.111H122.212C115.684 418.111 110.397 412.814 110.397 406.296V222.527L289.892 190.849L445.254 222.527Z" fill="#F7EDE5"/>
<path d="M110.396 178.78H445.254V222.526H110.396V178.78Z" fill="#353531"/>
<path d="M131.263 208.445C136.4 208.445 140.564 204.281 140.564 199.144C140.564 194.007 136.4 189.843 131.263 189.843C126.126 189.843 121.962 194.007 121.962 199.144C121.962 204.281 126.126 208.445 131.263 208.445Z" fill="#EF8354"/>
<path d="M159.419 208.445C164.556 208.445 168.72 204.281 168.72 199.144C168.72 194.007 164.556 189.843 159.419 189.843C154.282 189.843 150.118 194.007 150.118 199.144C150.118 204.281 154.282 208.445 159.419 208.445Z" fill="#E6E6E6"/>
<path d="M187.575 208.446C192.712 208.446 196.877 204.281 196.877 199.144C196.877 194.007 192.712 189.842 187.575 189.842C182.438 189.842 178.273 194.007 178.273 199.144C178.273 204.281 182.438 208.446 187.575 208.446Z" fill="#016FB9"/>
<path d="M135.537 264.757H416.844V351.487H135.537V264.757Z" fill="#EF8354"/>
<path d="M174.618 295.777C174.655 290.795 177.281 287.935 182.08 287.97C186.878 288.005 189.463 290.903 189.426 295.884L189.402 299.266L184.648 299.231L184.675 295.529C184.689 293.564 183.874 292.553 182.183 292.541C180.493 292.528 179.663 293.528 179.648 295.493L179.517 313.362C179.502 315.327 180.319 316.293 182.009 316.305C183.7 316.317 184.529 315.364 184.544 313.398L184.579 308.737L189.333 308.772L189.301 313.068C189.265 318.05 186.638 320.909 181.839 320.875C177.04 320.839 174.456 317.942 174.493 312.961L174.618 295.777ZM196.689 296.12C196.727 291.002 199.443 288.097 204.378 288.133C209.314 288.169 211.989 291.114 211.952 296.232L211.829 313.05C211.792 318.168 209.074 321.074 204.138 321.037C199.202 321.001 196.529 318.056 196.566 312.938L196.689 296.12ZM206.929 295.876C206.943 293.773 206.082 292.715 204.345 292.703C202.608 292.69 201.732 293.735 201.718 295.838L201.59 313.296C201.575 315.398 202.435 316.456 204.172 316.468C205.908 316.481 206.785 315.436 206.801 313.334L206.929 295.876ZM219.725 320.694L219.959 288.703L226.174 288.749L231.107 307.935L231.247 288.786L235.725 288.819L235.491 320.81L230.419 320.773L224.374 297.374L224.204 320.727L219.725 320.694ZM247.736 320.899L247.936 293.478L242.68 293.44L242.714 288.87L258.253 288.984L258.219 293.554L252.963 293.516L252.763 320.937L247.736 320.899ZM273.785 321.089L272.962 314.821L267.158 314.779L266.245 321.035L261.583 321L267.026 289.047L273.836 289.096L278.812 321.126L273.785 321.089ZM267.831 310.442L272.354 310.475L270.189 294.326L267.831 310.442ZM285.479 296.585C285.515 291.603 288.142 288.744 292.94 288.778C297.738 288.814 300.323 291.712 300.286 296.693L300.262 300.075L295.508 300.04L295.535 296.338C295.549 294.374 294.734 293.361 293.043 293.349C291.353 293.337 290.523 294.337 290.508 296.301L290.377 314.17C290.363 316.135 291.179 317.102 292.869 317.113C294.56 317.126 295.389 316.173 295.404 314.207L295.439 309.546L300.193 309.581L300.161 313.877C300.125 318.859 297.498 321.718 292.7 321.683C287.901 321.648 285.317 318.75 285.354 313.769L285.479 296.585ZM311.576 321.365L311.776 293.944L306.521 293.905L306.555 289.335L322.093 289.448L322.059 294.018L316.803 293.979L316.603 321.4L311.576 321.365ZM340.781 289.585L345.807 289.622L345.626 314.392C345.611 316.449 346.471 317.505 348.162 317.518C349.852 317.53 350.729 316.486 350.745 314.43L350.926 289.66L355.77 289.695L355.591 314.1C355.553 319.264 352.927 322.125 348.037 322.089C343.148 322.053 340.564 319.155 340.601 313.991L340.781 289.585ZM362.858 314.153L362.871 312.325L367.624 312.36L367.609 314.553C367.594 316.61 368.454 317.666 370.191 317.679C371.974 317.693 372.85 316.648 372.865 314.5C372.875 313.175 372.563 312.029 371.931 311.019C371.343 310.009 370.211 308.767 368.53 307.292C366.487 305.449 365.036 303.793 364.179 302.278C363.367 300.764 362.968 299.117 362.982 297.242C363.018 292.169 365.645 289.308 370.535 289.345C375.334 289.38 377.826 292.277 377.789 297.441L377.779 298.767L373.026 298.732L373.039 297.087C373.053 294.984 372.238 293.927 370.547 293.915C368.857 293.902 367.982 294.901 367.966 296.958C367.952 298.096 368.278 299.213 368.903 300.164C369.536 301.129 370.668 302.37 372.349 303.845C374.438 305.688 375.888 307.39 376.655 308.905C377.466 310.419 377.865 312.158 377.85 314.17C377.812 319.426 375.139 322.285 370.204 322.25C365.312 322.214 362.82 319.317 362.858 314.153Z" fill="#E6E6E6"/>
<path d="M284.384 388.655L303.055 328.822C303.055 328.822 345.404 378.249 344.979 376.976C344.555 375.703 322.511 376.295 322.511 376.295L345.489 415.389L306.025 425.998L305.601 379.745L284.384 388.655Z" fill="#016FB9"/>
<path d="M315.376 30.897L341.265 82.192L170.488 168.385L147.092 157.833C147.217 157.592 145.021 156.008 145.123 155.759C145.659 154.391 144.963 153.503 144.882 152.032C144.713 149.132 139.727 139.774 138.933 139.572L144.599 117.091L315.376 30.897Z" fill="#6C757D"/>
<path d="M329.673 58.735C329.977 58.5714 330.205 58.2956 330.308 57.9664C330.412 57.6372 330.383 57.2806 330.227 56.9725C330.072 56.6645 329.802 56.4293 329.476 56.3171C329.149 56.205 328.792 56.2247 328.48 56.372L162.328 140.23C161.835 139.22 161.321 138.221 160.788 137.232C158.365 132.746 155.988 129.024 153.856 126.019L321.043 41.638C321.203 41.5625 321.346 41.4558 321.464 41.324C321.582 41.1923 321.672 41.0383 321.73 40.8711C321.787 40.7039 321.811 40.5269 321.799 40.3505C321.787 40.1741 321.739 40.0019 321.66 39.844C321.58 39.6862 321.469 39.5459 321.335 39.4315C321.2 39.317 321.044 39.2308 320.875 39.1777C320.706 39.1247 320.529 39.106 320.353 39.1227C320.177 39.1394 320.006 39.1912 319.85 39.275L152.496 123.74C152.422 123.778 152.352 123.823 152.286 123.874C148.419 118.748 145.663 116.268 145.478 116.104C145.214 115.882 144.874 115.771 144.53 115.796C144.185 115.821 143.864 115.979 143.635 116.237C143.406 116.495 143.287 116.833 143.303 117.177C143.318 117.522 143.468 117.847 143.72 118.083C143.792 118.147 150.97 124.623 158.46 138.491C165.981 152.418 169.157 168.478 169.188 168.639C169.26 168.979 169.463 169.276 169.752 169.468C170.042 169.66 170.395 169.73 170.736 169.664C171.077 169.598 171.378 169.4 171.574 169.114C171.771 168.828 171.847 168.476 171.787 168.134C171.773 168.063 171.162 164.972 169.857 160.338C170.199 160.476 170.594 160.477 170.949 160.298L338.303 75.833C338.463 75.7575 338.606 75.6508 338.724 75.519C338.842 75.3873 338.932 75.2333 338.99 75.0661C339.047 74.8989 339.071 74.7219 339.059 74.5455C339.047 74.3691 338.999 74.1969 338.92 74.039C338.84 73.8812 338.729 73.7409 338.595 73.6265C338.46 73.512 338.304 73.4258 338.135 73.3727C337.966 73.3197 337.789 73.301 337.613 73.3177C337.437 73.3344 337.266 73.3862 337.11 73.47L169.756 157.935C169.558 158.035 169.401 158.181 169.281 158.35C167.936 153.836 166.023 148.243 163.462 142.624L329.673 58.735ZM148.124 152.766C148.201 154.242 147.961 155.718 147.422 157.094C147.32 157.343 147.219 157.592 147.093 157.833L135.636 152.663L138.934 139.572C139.728 139.778 140.48 140.122 141.156 140.586C142.715 141.658 143.873 143.208 144.917 144.787C146.52 147.199 147.955 149.866 148.124 152.766Z" fill="#E6E6E6"/>
<path d="M157.325 85.452L142.131 89.344L138.239 104.538C137.523 107.334 133.551 107.334 132.835 104.538L128.943 89.344L113.749 85.452C110.953 84.736 110.953 80.764 113.749 80.048L128.943 76.156L132.835 60.962C133.551 58.166 137.523 58.166 138.239 60.962L142.131 76.156L157.325 80.048C160.121 80.764 160.121 84.736 157.325 85.452ZM460.503 145.786L445.309 149.678L441.417 164.872C440.701 167.668 436.729 167.668 436.013 164.872L432.121 149.678L416.927 145.786C414.131 145.07 414.131 141.098 416.927 140.382L432.121 136.49L436.013 121.296C436.729 118.5 440.701 118.5 441.417 121.296L445.309 136.49L460.503 140.382C463.299 141.098 463.299 145.07 460.503 145.786ZM85.762 364.811L70.568 368.703L66.676 383.897C65.96 386.693 61.988 386.693 61.272 383.897L57.38 368.703L42.186 364.811C39.39 364.095 39.39 360.123 42.186 359.407L57.38 355.515L61.272 340.321C61.988 337.524 65.96 337.524 66.676 340.321L70.568 355.515L85.762 359.407C88.558 360.123 88.558 364.095 85.762 364.811ZM266.874 460.083L251.68 463.975L247.788 479.169C247.072 481.965 243.1 481.965 242.384 479.169L238.492 463.975L223.298 460.083C220.502 459.367 220.502 455.395 223.298 454.679L238.492 450.787L242.384 435.593C243.1 432.797 247.072 432.797 247.788 435.593L251.68 450.787L266.874 454.679C269.67 455.395 269.67 459.367 266.874 460.083Z" fill="#016FB9"/>
</g>
<defs>
<clipPath id="clip0_47_109">
<rect width="512" height="512" fill="white"/>
</clipPath>
</defs>
</svg>
