<svg width="512" height="512" viewBox="0 0 512 512" fill="none" xmlns="http://www.w3.org/2000/svg">
<path d="M357 237.14L306.79 136.77L283.09 130C278.122 130.642 273.506 132.911 269.963 136.453C266.421 139.996 264.152 144.612 263.51 149.58C263.07 152.49 262.28 155.58 263.91 161.18C268.7 177.58 255.72 175.78 263.91 188.97C272.1 202.16 267.48 203.97 263.91 213.97C260.34 223.97 267.23 228.09 271.63 233.32C276.03 238.55 262.17 246.5 268.44 257.32C274.71 268.14 278 270.53 273 283.43C268 296.33 271.41 300.51 281.07 306.09C290.73 311.67 273.75 330.49 297.93 336.42C322.11 342.35 364.61 322.13 364.61 322.13L357 237.14Z" fill="#E73F46"/>
<path d="M341.66 281.68C328.93 284.86 310.87 291.57 297.21 307.31C288.85 316.93 288.04 323.14 274.21 367.45C266.82 391.11 243.91 461.84 251.39 438.21C251.49 438.21 251.61 438.21 177.98 451.65C180.253 458.983 182.52 466.317 184.78 473.65C203.844 476.378 223.056 477.951 242.31 478.36C273.12 479 282.21 476.15 289.37 471.04C299.37 463.89 303.22 454.04 308.2 440.71C316.4 418.71 325.51 393.14 335 364.33C337.213 336.777 339.433 309.227 341.66 281.68Z" fill="#EF8354"/>
<mask id="mask0_48_126" style="mask-type:luminance" maskUnits="userSpaceOnUse" x="331" y="199" width="69" height="116">
<path d="M331.539 209.484L377.659 199.827L399.749 305.314L353.627 314.971L331.539 209.484Z" fill="white"/>
</mask>
<g mask="url(#mask0_48_126)">
<path d="M331.539 209.484L377.659 199.827L399.749 305.314L353.627 314.971L331.539 209.484Z" fill="#955D43"/>
<path d="M380.76 218.15C381.217 231.907 376.687 245.366 368.004 256.046C359.321 266.727 347.071 273.909 333.51 276.27L329.73 245.82L380.76 218.15Z" fill="#834A27"/>
</g>
<path d="M381.29 229.7C376.668 236.462 371.162 242.577 364.92 247.88C357.92 253.7 339.25 269.28 322.03 262.69C317.54 260.97 310.75 255.69 301.2 242.05C288.84 224.39 285.54 214.23 284.61 202.95C283.68 191.67 284.92 184.44 284.08 177.11C281.98 158.97 277.2 145.84 287.36 131.11C290.305 125.773 294.011 120.892 298.36 116.62C313.84 99.42 344.08 92.7 367.78 103.77C395.08 116.52 401.17 147.02 402.69 154.59C409.72 189.92 390.16 218.75 381.29 229.7Z" fill="#955D43"/>
<path d="M317.82 212.7C313.33 211.3 310.82 209.35 310.21 206.9C308.96 201.49 318.21 198.8 317.77 182.03C317.769 181.964 317.78 181.899 317.804 181.838C317.828 181.777 317.864 181.721 317.909 181.673C317.955 181.626 318.009 181.588 318.069 181.562C318.13 181.536 318.194 181.521 318.26 181.52C318.391 181.522 318.517 181.574 318.611 181.665C318.706 181.756 318.762 181.879 318.77 182.01C319.19 199.01 310.09 201.94 311.19 206.68C311.67 208.75 314 210.46 318.12 211.75C318.236 211.798 318.329 211.887 318.382 212.001C318.435 212.114 318.443 212.243 318.406 212.363C318.368 212.482 318.287 212.583 318.178 212.645C318.07 212.708 317.942 212.727 317.82 212.7ZM300.68 194.05C298.05 194.37 295.51 191.34 295.01 187.28C294.51 183.22 296.23 179.65 298.86 179.28C301.49 178.91 304.03 181.99 304.53 186.06C305.03 190.13 303.31 193.72 300.68 194.05ZM341.64 189C339.01 189.32 336.47 186.29 335.96 182.23C335.45 178.17 337.19 174.6 339.82 174.23C342.45 173.86 345 177 345.49 181C345.98 185 344.27 188.65 341.64 189ZM289.09 165.42C288.886 165.422 288.687 165.361 288.518 165.246C288.35 165.132 288.22 164.968 288.148 164.778C288.075 164.587 288.062 164.379 288.11 164.181C288.159 163.983 288.267 163.805 288.42 163.67C298.7 154.57 310.8 161.07 310.92 161.14C311.035 161.204 311.136 161.289 311.218 161.392C311.3 161.495 311.361 161.613 311.397 161.739C311.433 161.865 311.444 161.998 311.429 162.128C311.414 162.259 311.374 162.385 311.31 162.5C311.181 162.729 310.968 162.899 310.715 162.972C310.462 163.045 310.191 163.016 309.96 162.89C309.51 162.65 298.96 157.02 289.75 165.17C289.568 165.331 289.333 165.42 289.09 165.42ZM329.58 159.17C329.376 159.17 329.176 159.107 329.008 158.991C328.841 158.874 328.713 158.708 328.642 158.516C328.571 158.325 328.561 158.116 328.612 157.918C328.664 157.72 328.775 157.543 328.93 157.41C329.03 157.32 339.59 148.52 351.48 155.41C351.594 155.476 351.694 155.563 351.775 155.668C351.855 155.772 351.914 155.891 351.949 156.018C351.983 156.146 351.992 156.278 351.975 156.409C351.958 156.54 351.916 156.666 351.85 156.78C351.784 156.894 351.697 156.994 351.592 157.075C351.488 157.155 351.369 157.214 351.242 157.249C351.114 157.283 350.982 157.292 350.851 157.275C350.72 157.258 350.594 157.216 350.48 157.15C339.83 151 330.61 158.64 330.23 158.97C330.043 159.111 329.813 159.181 329.58 159.17Z" fill="#353531"/>
<path d="M354.21 276.45C339.96 281.55 313.82 290.9 301.91 314.11C293.24 331.02 300.77 338.42 306.1 397.78C309.76 438.66 310.44 482.5 310.44 482.5H479.72C475.556 438.034 467.865 393.968 456.72 350.72C442.86 297.1 432.72 280.06 415.93 272.27C394.16 262.16 368.93 271.19 354.21 276.45Z" fill="#EF8354"/>
<path d="M403.37 288.66C386.81 296.35 392.84 331.66 386.87 424.66L266.7 439.27L263.91 465.77C301.64 470.5 333.68 472.53 358.04 473.44C407.28 475.26 421.95 472.38 431.96 461.94C439.34 454.24 442.51 444.17 443.81 409.29C444.982 376.941 443.816 344.55 440.32 312.37C439.52 309.88 433.87 293.18 418.71 288.66C416.3 287.94 409.37 285.87 403.37 288.66Z" fill="#EF8354"/>
<path d="M346.15 279.43C346.15 279.43 352.81 312.11 362.23 314.85C371.65 317.59 391.83 267.73 391.83 267.73C391.83 267.73 366 261.14 346.15 279.43Z" fill="#955D43"/>
<path d="M321.44 118.17C321.44 118.17 321.32 129.33 340.73 130.37C360.14 131.41 351.07 144.67 368.15 150.25C385.23 155.83 374.86 166.03 386.87 179.3C398.88 192.57 379.67 201.93 383.15 212.22C386.63 222.51 373.85 225.66 381.4 239.85C388.95 254.04 378.49 266.1 388.84 274.76C399.19 283.42 402.84 273.76 415.57 277.5C428.3 281.24 442 301.16 447.3 318.28C447.3 318.28 458.1 308.88 452.88 297.37C447.66 285.86 459.5 285.52 457.41 274.37C455.32 263.22 444.86 265.31 450.09 253.45C455.32 241.59 457.41 233.93 450.09 225.21C442.77 216.49 450.78 217.21 449.09 206.04C447.4 194.87 436.89 193.04 436.54 183.68C436.19 174.32 440.37 166.22 430.61 159.81C420.85 153.4 421.2 150.6 419.11 139.45C417.02 128.3 413.53 123.76 403.24 118.18C392.95 112.6 398 103.56 389.55 98.32C381.1 93.08 374.15 96.56 365.55 90.63C363.637 89.2327 361.425 88.2982 359.09 87.9C352.42 86.9 350.26 91.42 344.09 90.63C339.02 89.98 338.44 86.63 332.93 86.63C330.491 86.6446 328.092 87.2411 325.93 88.37C321.3 90.72 321.47 93.56 317.74 96.57C311.74 101.4 307.64 97.06 301.87 101.79C297.79 105.15 298.29 108.6 293.52 110.79C290.77 112.04 290 111.17 287.06 112.62C286.12 113.08 281.19 115.52 279.73 120.29C278.38 124.76 281.27 127.29 279.21 130.58C278 132.5 276.85 131.84 274.85 134.06C272.85 136.28 270.85 140.58 271.85 144.35C272.79 147.65 275.63 148.96 275.12 152.02C275.032 152.648 274.807 153.249 274.46 153.78C271.68 158.12 276.09 167.78 283.04 169.92C283.04 169.92 280.74 157.77 286.67 149.06C292.6 140.35 287.67 132.15 291.2 129.01C294.73 125.87 301.32 132.5 304.54 122.73C307.76 112.96 321.44 118.17 321.44 118.17Z" fill="#E73F46"/>
<path d="M410.93 177C409.05 187.47 400.55 194.7 391.93 193.16C383.31 191.62 377.85 181.87 379.72 171.41C381.59 160.95 390.11 153.71 398.72 155.25C407.33 156.79 412.81 166.55 410.93 177Z" fill="#955D43"/>
<path d="M388.92 183.2C389.1 183.14 393.27 181.58 392.78 177.2C392.44 174.2 386.95 174.46 386.9 174.46C386.824 174.464 386.749 174.451 386.679 174.422C386.609 174.393 386.547 174.348 386.497 174.291C386.447 174.235 386.41 174.167 386.39 174.094C386.37 174.021 386.366 173.944 386.38 173.87C386.47 173.38 388.77 161.92 396.05 160.77C402.39 159.77 403.68 166.95 403.69 167.02C403.71 167.151 403.679 167.285 403.603 167.393C403.526 167.501 403.41 167.576 403.28 167.6C403.149 167.62 403.015 167.589 402.907 167.513C402.799 167.436 402.724 167.32 402.7 167.19C402.7 166.93 401.57 160.91 396.21 161.76C390.51 162.66 388.07 171.11 387.5 173.45C389.16 173.45 393.41 173.87 393.78 177.09C394.36 182.23 389.31 184.09 389.26 184.09C389.154 184.096 389.049 184.068 388.96 184.01C388.871 183.953 388.803 183.868 388.765 183.769C388.727 183.67 388.722 183.562 388.75 183.459C388.777 183.357 388.837 183.266 388.92 183.2Z" fill="#353531"/>
<path d="M329.29 235.66C334.244 235.66 338.26 233.318 338.26 230.43C338.26 227.542 334.244 225.2 329.29 225.2C324.336 225.2 320.32 227.542 320.32 230.43C320.32 233.318 324.336 235.66 329.29 235.66Z" fill="#E6E6E6"/>
<path d="M298 336.42L295 368.82C291.493 372.281 288.87 376.533 287.35 381.22C282.19 397.6 293.74 412.22 295 413.73V478.41H305.11L302.32 414.17C297.153 408.545 293.941 401.401 293.162 393.802C292.384 386.203 294.081 378.556 298 372V336.42Z" fill="white"/>
<path d="M322.82 469.49L302.06 468.59C302.06 468.59 290.4 466.78 283.95 459.11C277.5 451.44 266.58 467.06 261.12 466.83C255.83 466.6 265.05 452.34 265.61 451.48C264.9 452.36 253.45 466.48 248.37 466.28C243.29 466.08 253.65 448.38 254.28 447.28C253.59 448.35 242.13 466.02 237.4 464.84C232.52 463.62 247.16 438.51 253.79 433.84C260.42 429.17 290.18 434.84 290.18 434.84L321.86 435.71C321.86 435.71 330 454.07 322.82 469.49Z" fill="#955D43"/>
<path d="M404.16 332.93L418.53 434.93L321.86 435.77L423.76 440.69C434.918 446.948 443.24 457.261 447 469.49C446.629 462.754 444.66 456.204 441.255 450.38C437.85 444.556 433.108 439.627 427.42 436C419.673 401.633 411.92 367.277 404.16 332.93Z" fill="white"/>
<path d="M232.24 483L66.17 481.75C64.6854 481.813 63.2271 481.344 62.0576 480.427C60.888 479.51 60.084 478.207 59.79 476.75L34.14 300.18C33.72 297.35 35.8 295.26 39.02 295.24L203.41 294.19C205.69 294.19 208.13 296.59 208.53 299.25L235.84 477.84C236.25 480.54 234.54 483 232.24 483Z" fill="#353531"/>
<path d="M326.47 482.64H176.29C174.964 482.64 173.692 482.113 172.754 481.175C171.817 480.238 171.29 478.966 171.29 477.64V466.46C171.289 465.781 171.427 465.109 171.694 464.485C171.961 463.86 172.353 463.297 172.845 462.829C173.337 462.361 173.92 461.999 174.557 461.763C175.194 461.528 175.872 461.425 176.55 461.46L326.73 469.31C328.011 469.377 329.216 469.933 330.099 470.863C330.981 471.794 331.472 473.028 331.47 474.31V477.64C331.47 478.966 330.943 480.238 330.006 481.175C329.068 482.113 327.796 482.64 326.47 482.64Z" fill="#353531"/>
<path d="M124.85 394.39C135.504 394.39 144.14 385.754 144.14 375.1C144.14 364.446 135.504 355.81 124.85 355.81C114.196 355.81 105.56 364.446 105.56 375.1C105.56 385.754 114.196 394.39 124.85 394.39Z" fill="#E6E6E6"/>
<path d="M201.17 92.34C202.35 88.68 206.91 73.06 198.84 57.34C191.06 42.22 172.95 29.74 153.65 33.69C133.49 37.81 124.92 57.22 124.09 59.18C109.42 47.68 89.56 48.1 77 56.78C65.29 64.87 59.25 79.61 61.26 94.68C45 93.49 30.76 105.07 28.6 120.33C26.6 134.33 35.23 148.33 49.27 153.07H211.06C228.97 150.93 241.66 136.62 241.67 122.46C241.68 105.42 223.34 88.69 201.17 92.34Z" fill="#4CB7FF"/>
<path d="M57.01 156.74H209.8V233.7H57.01V156.74Z" fill="#353531"/>
<path d="M215.22 125.35H51.59C48.2763 125.35 45.59 128.036 45.59 131.35V159.27C45.59 162.584 48.2763 165.27 51.59 165.27H215.22C218.534 165.27 221.22 162.584 221.22 159.27V131.35C221.22 128.036 218.534 125.35 215.22 125.35Z" fill="#016FB9"/>
<path d="M67.54 153.07C71.8257 153.07 75.3 149.596 75.3 145.31C75.3 141.024 71.8257 137.55 67.54 137.55C63.2543 137.55 59.78 141.024 59.78 145.31C59.78 149.596 63.2543 153.07 67.54 153.07Z" fill="#E6E6E6"/>
<path d="M148.7 141.21H205.47V149.41H148.7V141.21Z" fill="#E6E6E6"/>
<path d="M215.22 175.27H51.59C48.2763 175.27 45.59 177.956 45.59 181.27V209.19C45.59 212.504 48.2763 215.19 51.59 215.19H215.22C218.534 215.19 221.22 212.504 221.22 209.19V181.27C221.22 177.956 218.534 175.27 215.22 175.27Z" fill="#016FB9"/>
<path d="M67.54 202.98C71.8257 202.98 75.3 199.506 75.3 195.22C75.3 190.934 71.8257 187.46 67.54 187.46C63.2543 187.46 59.78 190.934 59.78 195.22C59.78 199.506 63.2543 202.98 67.54 202.98Z" fill="#4CB7FF"/>
<path d="M148.7 191.12H205.47V199.32H148.7V191.12Z" fill="#4CB7FF"/>
<path d="M215.22 225.18H51.59C48.2763 225.18 45.59 227.866 45.59 231.18V259.1C45.59 262.414 48.2763 265.1 51.59 265.1H215.22C218.534 265.1 221.22 262.414 221.22 259.1V231.18C221.22 227.866 218.534 225.18 215.22 225.18Z" fill="#016FB9"/>
<path d="M67.54 252.9C71.8257 252.9 75.3 249.426 75.3 245.14C75.3 240.854 71.8257 237.38 67.54 237.38C63.2543 237.38 59.78 240.854 59.78 245.14C59.78 249.426 63.2543 252.9 67.54 252.9Z" fill="#E6E6E6"/>
<path d="M148.7 241.04H205.47V249.24H148.7V241.04Z" fill="#E6E6E6"/>
</svg>
