<svg width="512" height="512" viewBox="0 0 512 512" fill="none" xmlns="http://www.w3.org/2000/svg">
<path d="M336.24 122.04H87.57C54.2286 122.04 27.2 149.069 27.2 182.41V201.05C27.2 234.391 54.2286 261.42 87.57 261.42H336.24C369.581 261.42 396.61 234.391 396.61 201.05V182.41C396.61 149.069 369.581 122.04 336.24 122.04Z" fill="#EF8354"/>
<path d="M308.66 137.9H74.07C48.1844 137.9 27.2 158.884 27.2 184.77V203.06C27.2 228.946 48.1844 249.93 74.07 249.93H308.66C334.546 249.93 355.53 228.946 355.53 203.06V184.77C355.53 158.884 334.546 137.9 308.66 137.9Z" fill="#EF8354"/>
<path d="M338.16 137.9H92.2C66.3144 137.9 45.33 158.884 45.33 184.77V203.06C45.33 228.946 66.3144 249.93 92.2 249.93H338.16C364.046 249.93 385.03 228.946 385.03 203.06V184.77C385.03 158.884 364.046 137.9 338.16 137.9Z" fill="#EFEFEF"/>
<path d="M432.72 330.5C431.751 330.501 430.799 330.246 429.961 329.759C429.123 329.272 428.429 328.572 427.95 327.73L400.32 279.47C399.595 278.204 399.402 276.701 399.785 275.293C400.167 273.884 401.094 272.685 402.36 271.96C403.626 271.235 405.129 271.042 406.537 271.425C407.946 271.807 409.145 272.734 409.87 274L437.49 322.27C437.968 323.106 438.218 324.053 438.215 325.016C438.212 325.979 437.957 326.925 437.474 327.758C436.991 328.591 436.298 329.283 435.463 329.764C434.629 330.245 433.683 330.499 432.72 330.5Z" fill="#2D1929"/>
<path d="M476.78 392.08L469.7 396.15C462.7 400.15 454.51 398.92 451.65 393.36L411.49 315.48C408.77 310.2 411.88 302.98 418.49 299.15C425.63 295.04 433.18 296.62 436.15 301.25L483.38 375.06C486.79 380.33 483.78 388.05 476.78 392.08Z" fill="#016FB9"/>
<path d="M87.92 167.4C88.9872 166.78 90.2059 166.468 91.44 166.5C96.22 166.5 99.05 172.02 99.91 183.11C100.15 185.2 101.38 194.11 103.59 209.66C104.69 201.29 109.19 186.41 109.19 176.81C109.203 174.349 108.945 171.894 108.42 169.49C108.184 169.21 108.053 168.856 108.05 168.49C108.17 167.63 108.42 167.1 108.83 166.9C110.763 166.258 112.868 166.372 114.72 167.22C117.95 169.06 119.87 174.38 120.57 183.14C120.81 185.23 122.04 194.14 124.25 209.69C125.47 200.39 129.86 186.83 129.86 176.88C129.861 173.925 129.488 170.982 128.75 168.12C128.739 167.85 128.811 167.582 128.958 167.355C129.105 167.127 129.319 166.951 129.57 166.85C130.462 166.451 131.476 166.422 132.39 166.77C134.23 167.71 135.18 169.88 135.18 173.28C135.18 186.83 126.75 200.66 126.75 217.75V219.92C126.765 220.107 126.741 220.296 126.681 220.473C126.62 220.651 126.523 220.815 126.397 220.953C126.27 221.092 126.116 221.203 125.945 221.28C125.773 221.357 125.588 221.398 125.4 221.4C120.27 221.4 117.84 218.94 117.4 215.83C116.787 211.83 115.273 201.48 112.86 184.78C109.86 196.07 106.03 206.52 106.03 217.78V219.95C106.044 220.138 106.019 220.326 105.957 220.504C105.895 220.682 105.797 220.845 105.67 220.984C105.542 221.122 105.388 221.234 105.216 221.31C105.044 221.387 104.858 221.428 104.67 221.43C99.57 221.43 97.13 218.98 96.67 215.9C96.28 213.07 95.9 210.66 93.23 192.42C91.44 180.3 91.23 177.04 89.75 172.82C89.18 171.22 88.65 170.28 88.2 170.03C87.9574 169.932 87.7442 169.772 87.5813 169.568C87.4183 169.363 87.311 169.119 87.2697 168.861C87.2285 168.602 87.2547 168.337 87.3459 168.092C87.437 167.847 87.59 167.629 87.79 167.46M152.25 167.4C153.318 166.781 154.536 166.47 155.77 166.5C160.56 166.5 163.38 172.02 164.24 183.11C164.49 185.2 165.72 194.11 167.92 209.66C169.02 201.29 173.53 186.41 173.53 176.81C173.54 174.349 173.278 171.894 172.75 169.49C172.518 169.208 172.388 168.855 172.38 168.49C172.51 167.63 172.75 167.1 173.16 166.9C175.092 166.253 177.199 166.367 179.05 167.22C182.29 169.06 184.21 174.38 184.9 183.14C185.15 185.23 186.38 194.14 188.59 209.69C189.81 200.39 194.19 186.83 194.19 176.88C194.191 173.926 193.821 170.983 193.09 168.12C193.079 167.85 193.151 167.582 193.298 167.355C193.445 167.127 193.659 166.951 193.91 166.85C194.802 166.451 195.816 166.422 196.73 166.77C198.57 167.71 199.51 169.88 199.51 173.28C199.51 186.83 191.09 200.66 191.09 217.75V219.92C191.104 220.108 191.079 220.296 191.017 220.474C190.955 220.652 190.857 220.815 190.73 220.954C190.602 221.092 190.448 221.204 190.276 221.28C190.104 221.357 189.918 221.398 189.73 221.4C184.61 221.4 182.18 218.94 181.73 215.83C181.11 211.83 179.597 201.48 177.19 184.78C174.19 196.07 170.35 206.52 170.35 217.78V219.95C170.365 220.137 170.341 220.326 170.281 220.503C170.22 220.681 170.123 220.845 169.997 220.983C169.87 221.122 169.716 221.233 169.545 221.31C169.373 221.387 169.188 221.428 169 221.43C163.9 221.43 161.45 218.98 161 215.9C160.61 213.07 160.24 210.66 157.57 192.42C155.77 180.3 155.57 177.04 154.09 172.82C153.52 171.22 152.98 170.28 152.53 170.03C152.289 169.93 152.079 169.769 151.917 169.564C151.756 169.359 151.65 169.117 151.609 168.859C151.568 168.602 151.593 168.338 151.683 168.093C151.772 167.848 151.923 167.63 152.12 167.46M216.59 167.4C217.657 166.78 218.876 166.468 220.11 166.5C224.9 166.5 227.72 172.02 228.58 183.11C228.82 185.2 230.05 194.11 232.26 209.66C233.36 201.29 237.87 186.41 237.87 176.81C237.88 174.349 237.618 171.894 237.09 169.49C236.854 169.21 236.723 168.856 236.72 168.49C236.84 167.63 237.09 167.1 237.5 166.9C239.432 166.253 241.539 166.367 243.39 167.22C246.62 169.06 248.55 174.38 249.24 183.14C249.49 185.23 250.71 194.14 252.93 209.69C254.15 200.39 258.53 186.83 258.53 176.88C258.531 173.926 258.161 170.983 257.43 168.12C257.416 167.85 257.487 167.583 257.632 167.356C257.777 167.128 257.99 166.951 258.24 166.85C259.136 166.451 260.153 166.423 261.07 166.77C262.91 167.71 263.85 169.88 263.85 173.28C263.85 186.83 255.42 200.66 255.42 217.75V219.92C255.435 220.107 255.412 220.296 255.351 220.473C255.29 220.651 255.193 220.815 255.067 220.953C254.94 221.092 254.786 221.203 254.615 221.28C254.443 221.357 254.258 221.398 254.07 221.4C248.94 221.4 246.51 218.94 246.07 215.83C245.463 211.83 243.95 201.48 241.53 184.78C238.53 196.07 234.7 206.52 234.7 217.78V219.95C234.714 220.137 234.689 220.325 234.628 220.502C234.566 220.679 234.47 220.842 234.343 220.98C234.217 221.119 234.064 221.23 233.893 221.307C233.722 221.385 233.537 221.426 233.35 221.43C228.24 221.43 225.8 218.98 225.35 215.9C224.96 213.07 224.59 210.66 221.91 192.42C220.12 180.3 219.91 177.04 218.43 172.82C217.86 171.22 217.33 170.28 216.88 170.03C216.637 169.932 216.424 169.772 216.261 169.568C216.098 169.363 215.991 169.119 215.95 168.861C215.908 168.602 215.935 168.337 216.026 168.092C216.117 167.847 216.27 167.629 216.47 167.46" fill="#EF8354"/>
<path d="M444.93 196.31L468.27 176.8L450.49 148.71L422.75 161.53C413.556 153.161 402.506 147.095 390.51 143.83L386.51 113.49H353.24L349.24 143.83C337.243 147.093 326.193 153.159 317 161.53L289.26 148.71L271.45 176.8L294.8 196.31C290.124 211.401 290.085 227.547 294.69 242.66L271.45 262.08L289.24 290.17L316.66 277.5C325.93 286.032 337.119 292.206 349.28 295.5L353.28 325.38H386.53L390.53 295.5C402.691 292.206 413.88 286.032 423.15 277.5L450.57 290.17L468.35 262.08L445 242.66C449.618 227.551 449.593 211.405 444.93 196.31Z" fill="#016FB9"/>
<path d="M315.05 251C309.523 241.369 306.626 230.454 306.649 219.349C306.672 208.245 309.614 197.342 315.181 187.733C320.747 178.125 328.742 170.149 338.364 164.606C347.986 159.062 358.896 156.146 370 156.15C410.78 156.15 441.82 195.24 430.9 235.86C427.656 247.94 420.902 258.787 411.491 267.027C402.081 275.267 390.438 280.531 378.035 282.151C365.633 283.772 353.028 281.678 341.816 276.132C330.604 270.587 321.289 261.841 315.05 251Z" fill="#86EBF9"/>
<mask id="mask0_25_45" style="mask-type:luminance" maskUnits="userSpaceOnUse" x="306" y="156" width="128" height="127">
<path d="M315.05 251C309.523 241.369 306.626 230.454 306.649 219.349C306.672 208.245 309.614 197.342 315.181 187.733C320.747 178.125 328.742 170.149 338.364 164.606C347.986 159.062 358.896 156.146 370 156.15C410.78 156.15 441.82 195.24 430.9 235.86C427.656 247.94 420.902 258.787 411.491 267.027C402.081 275.267 390.438 280.531 378.035 282.151C365.633 283.772 353.028 281.678 341.816 276.132C330.604 270.587 321.289 261.841 315.05 251Z" fill="white"/>
</mask>
<g mask="url(#mask0_25_45)">
<path d="M390.51 143.83L310.76 282.73L321.27 288.2L405.09 156.19L418.91 164.92L326.17 300.87L338.78 305.81L433.09 166.76L423.53 136.99L390.51 143.83Z" fill="#EFEFEF"/>
</g>
</svg>
