<svg width="512" height="512" viewBox="0 0 512 512" fill="none" xmlns="http://www.w3.org/2000/svg">
<path d="M328.75 266.83H30.87C29.3086 266.817 27.8156 266.187 26.7162 265.078C25.6168 263.97 24.9999 262.471 25 260.91V60C25 58.4316 25.6223 56.9274 26.7304 55.8175C27.8384 54.7075 29.3417 54.0827 30.91 54.08H328.75C330.319 54.0826 331.824 54.7072 332.933 55.8168C334.043 56.9265 334.667 58.4307 334.67 60V260.9C334.67 262.471 334.047 263.978 332.937 265.09C331.827 266.201 330.321 266.827 328.75 266.83ZM30.87 56.09C29.8408 56.1031 28.858 56.5205 28.1339 57.2521C27.4098 57.9837 27.0025 58.9707 27 60V260.9C27 261.938 27.4116 262.933 28.1446 263.668C28.8776 264.403 29.8721 264.817 30.91 264.82H328.75C329.789 264.817 330.784 264.404 331.519 263.669C332.254 262.934 332.667 261.939 332.67 260.9V60C332.667 58.9612 332.254 57.9656 331.519 57.2311C330.784 56.4965 329.789 56.0826 328.75 56.08L30.87 56.09Z" fill="#016FB9"/>
<path d="M43.34 77.03C45.4221 77.03 47.11 75.3421 47.11 73.26C47.11 71.1779 45.4221 69.49 43.34 69.49C41.2579 69.49 39.57 71.1779 39.57 73.26C39.57 75.3421 41.2579 77.03 43.34 77.03Z" fill="#016FB9"/>
<path d="M58.95 77.03C61.0321 77.03 62.72 75.3421 62.72 73.26C62.72 71.1779 61.0321 69.49 58.95 69.49C56.8679 69.49 55.18 71.1779 55.18 73.26C55.18 75.3421 56.8679 77.03 58.95 77.03Z" fill="#016FB9"/>
<path d="M74.56 77.03C76.6421 77.03 78.33 75.3421 78.33 73.26C78.33 71.1779 76.6421 69.49 74.56 69.49C72.4779 69.49 70.79 71.1779 70.79 73.26C70.79 75.3421 72.4779 77.03 74.56 77.03Z" fill="#016FB9"/>
<path d="M89.68 239.8C68.38 239.8 51.06 226.75 51.06 210.7V208.92C51.06 203.73 55.76 199.53 61.56 199.53C67.36 199.53 72.06 203.73 72.06 208.92V210.7C72.06 216.21 80.29 221.03 89.68 221.03C99.07 221.03 107.3 216.21 107.3 210.7V199.35C107.3 193.84 99.07 189.02 89.68 189.02C68.38 189.02 51.06 175.96 51.06 159.91V142.64C51.06 126.64 68.38 113.53 89.68 113.53C110.98 113.53 128.3 126.59 128.3 142.64V146.75C128.3 151.93 123.6 156.14 117.8 156.14C112 156.14 107.3 151.93 107.3 146.75V142.64C107.3 137.13 99.07 132.3 89.68 132.3C80.29 132.3 72.06 137.13 72.06 142.64V159.91C72.06 165.42 80.29 170.25 89.68 170.25C110.98 170.25 128.3 183.3 128.3 199.35V210.7C128.3 226.75 111 239.8 89.68 239.8ZM194.66 182.24C195.918 182.281 197.172 182.069 198.346 181.616C199.521 181.162 200.592 180.478 201.497 179.602C202.401 178.727 203.121 177.678 203.612 176.519C204.103 175.36 204.356 174.114 204.356 172.855C204.356 171.596 204.103 170.35 203.612 169.191C203.121 168.032 202.401 166.983 201.497 166.108C200.592 165.232 199.521 164.548 198.346 164.094C197.172 163.641 195.918 163.429 194.66 163.47H159.9V133.71H194.66C195.918 133.751 197.172 133.539 198.346 133.086C199.521 132.632 200.592 131.948 201.497 131.072C202.401 130.197 203.121 129.148 203.612 127.989C204.103 126.83 204.356 125.584 204.356 124.325C204.356 123.066 204.103 121.82 203.612 120.661C203.121 119.502 202.401 118.453 201.497 117.578C200.592 116.702 199.521 116.018 198.346 115.564C197.172 115.111 195.918 114.899 194.66 114.94H150.49C149.256 114.937 148.033 115.178 146.891 115.648C145.75 116.118 144.712 116.808 143.837 117.679C142.963 118.55 142.268 119.585 141.793 120.724C141.318 121.864 141.073 123.086 141.07 124.32V229C141.071 230.235 141.316 231.458 141.79 232.599C142.265 233.739 142.959 234.775 143.834 235.647C144.709 236.519 145.747 237.211 146.889 237.681C148.031 238.152 149.255 238.393 150.49 238.39H194.66C195.918 238.431 197.172 238.219 198.346 237.766C199.521 237.312 200.592 236.628 201.497 235.752C202.401 234.877 203.121 233.828 203.612 232.669C204.103 231.51 204.356 230.264 204.356 229.005C204.356 227.746 204.103 226.5 203.612 225.341C203.121 224.182 202.401 223.133 201.497 222.258C200.592 221.382 199.521 220.698 198.346 220.244C197.172 219.791 195.918 219.579 194.66 219.62H159.9V182.24H194.66Z" fill="#016FB9"/>
<path d="M414.812 203.943L391.387 199.534L399.766 155.014L423.191 159.422L414.812 203.943Z" fill="#FFBF8D"/>
<path d="M419.32 114.11C415.274 113.055 411.039 112.942 406.942 113.779C402.845 114.617 398.995 116.383 395.687 118.941C392.38 121.499 389.703 124.782 387.862 128.537C386.021 132.292 385.066 136.418 385.07 140.6L384.12 161.89C383.78 169.66 388.5 176.96 395.17 179.3C396.604 179.764 398.082 180.082 399.58 180.25C410.01 181.34 418.42 172.4 423.12 167.41C423.92 166.56 424.82 165.55 425.76 164.41C430.514 161.748 434.363 157.726 436.814 152.859C439.264 147.993 440.204 142.505 439.511 137.101C438.819 131.697 436.526 126.623 432.929 122.531C429.331 118.44 424.591 115.518 419.32 114.14V114.11Z" fill="#FFBF8D"/>
<path d="M400.82 163.09C400.72 163.09 400.95 163.09 397.51 162.28C397.268 162.221 397.043 162.108 396.851 161.95C396.659 161.792 396.506 161.592 396.402 161.366C396.298 161.14 396.247 160.894 396.252 160.645C396.256 160.396 396.317 160.152 396.43 159.93L400.62 151.68C400.682 151.564 400.787 151.477 400.912 151.438C401.037 151.398 401.173 151.41 401.29 151.47C401.349 151.499 401.402 151.539 401.445 151.588C401.489 151.638 401.522 151.696 401.542 151.758C401.563 151.821 401.571 151.887 401.565 151.952C401.559 152.018 401.541 152.082 401.51 152.14L397.32 160.38C397.275 160.468 397.25 160.565 397.248 160.664C397.246 160.762 397.267 160.86 397.308 160.95C397.35 161.04 397.411 161.119 397.487 161.181C397.564 161.243 397.654 161.287 397.75 161.31L400.94 162.1C401.064 162.124 401.174 162.195 401.248 162.297C401.322 162.399 401.355 162.525 401.34 162.651C401.324 162.776 401.262 162.891 401.166 162.972C401.07 163.054 400.946 163.096 400.82 163.09ZM393.9 146.45C393.454 146.332 392.983 146.35 392.547 146.5C392.111 146.65 391.729 146.926 391.45 147.293C391.171 147.66 391.007 148.102 390.979 148.562C390.952 149.022 391.061 149.48 391.294 149.879C391.526 150.277 391.872 150.597 392.287 150.798C392.702 151 393.167 151.074 393.624 151.011C394.08 150.948 394.508 150.751 394.853 150.444C395.198 150.138 395.444 149.736 395.56 149.29C395.715 148.693 395.628 148.059 395.317 147.527C395.006 146.995 394.496 146.607 393.9 146.45ZM411 150.91C410.554 150.792 410.083 150.81 409.647 150.96C409.211 151.11 408.829 151.386 408.55 151.753C408.271 152.12 408.107 152.562 408.079 153.022C408.052 153.482 408.161 153.94 408.394 154.339C408.626 154.737 408.972 155.057 409.387 155.258C409.802 155.46 410.267 155.534 410.724 155.471C411.18 155.408 411.608 155.211 411.953 154.904C412.298 154.598 412.544 154.196 412.66 153.75C412.815 153.153 412.728 152.519 412.417 151.987C412.106 151.455 411.596 151.067 411 150.91ZM418.07 146.54C416.13 143.42 412 143.37 411.31 143.36C410.62 143.35 408.73 143.36 408.42 144.21C408.385 144.399 408.391 144.593 408.438 144.779C408.484 144.966 408.57 145.14 408.69 145.29C409.69 146.51 411.69 145.2 414.18 145.88C417.03 146.66 418.26 149.51 418.76 149.18C419.09 149 418.73 147.6 418.07 146.54ZM397.13 139.56C396.53 139.22 392.92 137.2 389.69 138.93C388.59 139.52 387.59 140.52 387.77 140.88C388.04 141.41 390.52 139.56 393.39 140.31C395.86 140.95 396.99 143.11 398.39 142.54C398.39 142.54 399.08 142.26 399.17 141.74C399.37 140.83 397.65 139.85 397.13 139.56Z" fill="#262246"/>
<path d="M395.56 180.19C395.427 180.152 395.315 180.062 395.249 179.941C395.182 179.82 395.167 179.678 395.205 179.545C395.243 179.412 395.333 179.3 395.454 179.234C395.575 179.167 395.717 179.152 395.85 179.19C398.455 179.966 401.211 180.087 403.873 179.541C406.535 178.994 409.021 177.799 411.11 176.06C411.213 175.975 411.345 175.934 411.477 175.945C411.61 175.957 411.733 176.019 411.82 176.12C411.901 176.225 411.939 176.357 411.926 176.489C411.913 176.621 411.85 176.743 411.75 176.83C409.536 178.678 406.9 179.951 404.076 180.537C401.252 181.124 398.327 181.004 395.56 180.19Z" fill="#68003C"/>
<path d="M397.4 168.7C397.307 168.611 397.252 168.489 397.247 168.36C397.241 168.232 397.286 168.106 397.371 168.009C397.456 167.912 397.575 167.852 397.704 167.841C397.832 167.83 397.96 167.869 398.06 167.95C398.602 168.443 399.263 168.786 399.978 168.946C400.692 169.105 401.436 169.076 402.137 168.861C402.837 168.647 403.469 168.253 403.971 167.72C404.473 167.187 404.828 166.532 405 165.82C405.033 165.687 405.118 165.573 405.235 165.503C405.352 165.433 405.492 165.412 405.625 165.445C405.758 165.478 405.872 165.563 405.942 165.68C406.012 165.797 406.033 165.937 406 166.07C405.79 166.955 405.353 167.769 404.731 168.433C404.109 169.096 403.324 169.585 402.454 169.851C401.584 170.117 400.66 170.15 399.774 169.949C398.887 169.747 398.069 169.316 397.4 168.7Z" fill="#262246"/>
<path d="M407.65 190.54L346.84 196.72C347.873 249.1 348.9 301.48 349.92 353.86L431.58 362.73C441.127 310.29 450.68 257.847 460.24 205.4L407.65 190.54Z" fill="#FFBF8D"/>
<path d="M353 335.25L320.32 456.91H462.91C457.49 414.7 456.91 397.35 454.97 388.48C452.4 376.77 446.11 360.67 429.25 342.86L353 335.25Z" fill="#016FB9"/>
<path d="M407.65 190.54L366.3 188.83C359.77 188.561 353.325 190.391 347.91 194.051C342.495 197.711 338.395 203.01 336.21 209.17L292.74 331.9C306.16 339.48 319.577 347.063 332.99 354.65L369.74 237.4L407.65 190.54Z" fill="#FFBF8D"/>
<path d="M284.67 239.8L333.67 345.9C334.681 351.102 333.643 356.494 330.771 360.949C327.9 365.403 323.418 368.576 318.262 369.802C313.106 371.029 307.675 370.215 303.105 367.531C298.535 364.847 295.18 360.501 293.74 355.4L261.24 247.4L284.67 239.8ZM413.63 192.77L438.71 194.11C445.567 194.468 452.094 197.167 457.201 201.757C462.308 206.347 465.685 212.55 466.77 219.33C473.93 263.683 481.087 308.04 488.24 352.4L446.74 356.4C438.947 311.233 431.15 266.067 423.35 220.9L413.63 192.77Z" fill="#FFBF8D"/>
<path d="M377.25 189.28L347.58 239.73C346.527 275.91 345.47 312.077 344.41 348.23C340.19 370.45 335.967 392.673 331.74 414.9L446.05 370.15C442.637 312.19 439.553 253.607 436.8 194.4C417.116 191.124 397.204 189.412 377.25 189.28Z" fill="#016FB9"/>
<path d="M418.737 185.29L392.172 183.744C391.466 183.703 390.861 184.242 390.82 184.947L390.262 194.541C390.221 195.247 390.759 195.852 391.465 195.893L418.03 197.439C418.736 197.48 419.341 196.941 419.382 196.236L419.941 186.642C419.982 185.936 419.443 185.331 418.737 185.29Z" fill="#016FB9"/>
<path d="M486.48 345.23L441.37 249.56L418.7 267.9L444.7 358.56C448.85 373.56 464.86 380.34 476.03 375.23C485.74 370.79 491.29 357.58 486.48 345.23Z" fill="#FFBF8D"/>
<path d="M421.12 160.65L424.12 145.65C424.12 145.65 415.32 134.16 418.88 124.65C418.88 124.65 395.93 114.5 385.71 134.65C385.71 134.65 387.87 103.47 421.37 110.47C421.37 110.47 421.49 91.6 435.62 104.35C435.62 104.35 441.62 90.22 452.87 93.6C464.12 96.98 459.37 106.22 459.37 106.22C459.37 106.22 471.12 101.72 474.37 107.47C477.62 113.22 467.74 120.97 467.74 120.97C467.74 120.97 476.24 122.72 474.12 130.47C472 138.22 460.49 138.19 460.49 138.19C460.49 138.19 469.74 147.25 463.74 153.11C457.74 158.97 448.62 152.44 448.62 152.44C448.62 152.44 438.62 156.6 440.99 143.97C440.99 143.97 439.99 171.74 419.85 177.92L421.12 160.65Z" fill="#68003C"/>
<path d="M429.83 153.9C427.33 151.63 423.14 152.16 420.47 155.09C417.8 158.02 417.68 162.24 420.18 164.52C422.68 166.8 426.87 166.26 429.54 163.33C432.21 160.4 432.33 156.18 429.83 153.9Z" fill="#FFBF8D"/>
<path d="M422.6 163.09C422.467 163.09 422.34 163.037 422.246 162.944C422.153 162.85 422.1 162.723 422.1 162.59C422.1 162.457 422.153 162.33 422.246 162.236C422.34 162.143 422.467 162.09 422.6 162.09C423.087 162.064 423.554 161.885 423.932 161.576C424.31 161.268 424.581 160.848 424.705 160.376C424.828 159.904 424.798 159.404 424.62 158.95C424.441 158.496 424.122 158.111 423.71 157.85C423.612 157.784 423.541 157.686 423.509 157.573C423.476 157.46 423.484 157.34 423.532 157.232C423.58 157.125 423.664 157.037 423.77 156.986C423.875 156.934 423.996 156.922 424.11 156.95L428.56 158.12C428.693 158.154 428.806 158.24 428.875 158.358C428.945 158.477 428.964 158.617 428.93 158.75C428.896 158.883 428.81 158.996 428.692 159.065C428.573 159.135 428.433 159.154 428.3 159.12L425.42 158.37C425.657 158.861 425.769 159.403 425.745 159.948C425.721 160.492 425.562 161.022 425.283 161.49C425.003 161.958 424.612 162.35 424.143 162.629C423.675 162.908 423.145 163.067 422.6 163.09Z" fill="#262246"/>
<path d="M426.24 111.9C431.597 113.194 436.278 116.438 439.37 121C444.98 129.53 442.13 138.7 441.74 139.88C441.361 134.366 439.776 129.003 437.098 124.168C434.42 119.334 430.713 115.146 426.24 111.9Z" fill="#016FB9"/>
<path d="M290.46 259.4L291.3 241.23L289.3 218.73L280.13 221.73V232.9C276.42 221.01 266.13 212.9 253.42 213.27L241.2 217.83L237 221.5C239.353 227.9 241.707 234.303 244.06 240.71C245.291 244.049 247.708 246.819 250.85 248.49L269.51 258.4L290.46 259.4Z" fill="#FFBF8D"/>
<path d="M266.48 237.66C257.258 237.662 248.243 234.93 240.574 229.808C232.905 224.687 226.927 217.407 223.395 208.888C219.864 200.37 218.937 190.995 220.733 181.95C222.528 172.905 226.966 164.595 233.483 158.072C240.001 151.548 248.307 147.104 257.351 145.3C266.395 143.497 275.77 144.416 284.291 147.94C292.813 151.464 300.098 157.436 305.226 165.101C310.354 172.765 313.094 181.778 313.1 191C313.097 203.367 308.186 215.228 299.445 223.977C290.704 232.725 278.847 237.647 266.48 237.66ZM266.48 159.66C260.262 159.658 254.183 161.501 249.013 164.956C243.843 168.411 239.814 173.322 237.437 179.068C235.06 184.813 234.441 191.135 235.658 197.233C236.876 203.331 239.876 208.93 244.278 213.322C248.679 217.714 254.285 220.701 260.386 221.905C266.486 223.109 272.807 222.476 278.547 220.086C284.288 217.696 289.19 213.657 292.633 208.479C296.076 203.301 297.906 197.218 297.89 191C297.871 182.678 294.555 174.703 288.668 168.821C282.781 162.939 274.802 159.631 266.48 159.62V159.66Z" fill="#EF8354"/>
<path d="M253.17 129.77H275.22V152.02H253.17V129.77ZM253.17 225.59H275.22V247.84H253.17V225.59ZM323.24 177.77V199.82H300.99V177.77H323.24ZM227.41 177.78V199.83H205.16V177.78H227.41ZM313.793 222.741L298.203 238.331L282.473 222.6L298.062 207.01L313.793 222.741ZM246.025 154.981L230.436 170.571L214.706 154.84L230.295 139.25L246.025 154.981ZM298.128 139.21L313.718 154.8L297.986 170.531L282.397 154.941L298.128 139.21ZM230.385 206.971L245.975 222.561L230.244 238.291L214.654 222.701L230.385 206.971Z" fill="#EF8354"/>
<path d="M280.21 239.06L282.8 223.31C283.129 222.276 283.805 221.387 284.715 220.795C285.624 220.203 286.71 219.944 287.789 220.062C288.868 220.179 289.873 220.667 290.633 221.441C291.393 222.216 291.862 223.229 291.96 224.31L291.3 241.23L284.55 245.4L280.21 239.06ZM241 209C241.32 213.18 241.653 217.357 242 221.53C242.087 222.79 242.654 223.968 243.584 224.822C244.515 225.676 245.737 226.141 247 226.12C247.919 226.011 248.786 225.638 249.496 225.044C250.207 224.451 250.729 223.665 251 222.78L250.29 216.16C250.92 218.64 251.54 221.16 252.17 223.62C252.86 226.53 255.49 228.23 257.75 227.78C258.563 227.576 259.308 227.161 259.909 226.576C260.509 225.991 260.945 225.257 261.17 224.45C260.73 222.37 260.28 220.28 259.84 218.2C260.76 220.24 261.687 222.28 262.62 224.32C264.95 227.87 271.18 228.13 271.62 223.63C271.2 222.33 270.79 221.04 270.37 219.75L273 224.12C275.86 226.81 281.27 226.21 281.5 222.3C279.62 217.867 277.743 213.433 275.87 209C273.23 206.15 267.87 206.19 267.29 210.06C266.742 209.015 265.858 208.185 264.78 207.704C263.702 207.224 262.494 207.12 261.35 207.41C260.697 207.601 260.109 207.968 259.65 208.47C259.192 208.973 258.88 209.592 258.75 210.26C258.29 208.26 256.04 206.9 253.75 207.05C252.841 207.066 251.956 207.35 251.209 207.868C250.461 208.386 249.884 209.114 249.55 209.96C250.2 207.87 248.35 205.86 245.92 205.63C243.49 205.4 241.15 207 241 209Z" fill="#FFBF8D"/>
<path d="M271.08 222.61C270.974 222.61 270.872 222.576 270.787 222.513C270.702 222.45 270.64 222.361 270.61 222.26L266.77 210.26C266.732 210.133 266.745 209.996 266.807 209.878C266.869 209.76 266.974 209.671 267.1 209.63C267.226 209.592 267.362 209.606 267.478 209.668C267.594 209.73 267.681 209.835 267.72 209.96L271.56 221.96C271.584 222.035 271.589 222.115 271.576 222.192C271.563 222.27 271.532 222.344 271.485 222.407C271.438 222.47 271.377 222.522 271.307 222.557C271.237 222.592 271.159 222.61 271.08 222.61ZM261.25 222.51C261.136 222.512 261.024 222.475 260.935 222.404C260.845 222.332 260.783 222.232 260.76 222.12L258.22 210.39C258.192 210.257 258.218 210.119 258.292 210.006C258.366 209.892 258.482 209.813 258.615 209.785C258.748 209.757 258.886 209.783 258.999 209.857C259.113 209.931 259.192 210.047 259.22 210.18L261.76 221.9C261.777 221.975 261.776 222.053 261.758 222.128C261.74 222.203 261.705 222.272 261.656 222.331C261.607 222.39 261.544 222.437 261.474 222.468C261.403 222.499 261.327 222.513 261.25 222.51ZM250.76 218.72C250.64 218.721 250.523 218.678 250.433 218.598C250.343 218.519 250.285 218.409 250.27 218.29L249.14 209.63C249.123 209.497 249.159 209.363 249.24 209.257C249.322 209.151 249.442 209.082 249.575 209.065C249.708 209.048 249.842 209.084 249.948 209.165C250.054 209.247 250.123 209.367 250.14 209.5L251.27 218.16C251.279 218.231 251.272 218.304 251.25 218.372C251.228 218.441 251.192 218.504 251.143 218.557C251.095 218.61 251.036 218.652 250.969 218.68C250.903 218.708 250.832 218.722 250.76 218.72ZM328.75 335.75C328.654 335.751 328.559 335.724 328.477 335.673C328.396 335.622 328.331 335.548 328.29 335.46L307.24 289.88C307.189 289.759 307.186 289.623 307.232 289.5C307.279 289.377 307.371 289.277 307.49 289.22C307.55 289.192 307.614 289.176 307.68 289.173C307.746 289.171 307.812 289.181 307.873 289.205C307.935 289.228 307.991 289.264 308.039 289.309C308.086 289.355 308.124 289.409 308.15 289.47L329.2 335C329.245 335.077 329.268 335.165 329.267 335.254C329.266 335.344 329.242 335.431 329.196 335.508C329.15 335.584 329.084 335.647 329.006 335.69C328.928 335.732 328.839 335.753 328.75 335.75Z" fill="#68003C"/>
<path d="M444.941 204.437L442.916 203.367C439.85 201.746 436.05 202.917 434.429 205.983L401.248 268.73C399.627 271.796 400.798 275.596 403.864 277.217L405.888 278.288C408.954 279.909 412.754 278.738 414.376 275.672L447.556 212.925C449.178 209.859 448.007 206.059 444.941 204.437Z" fill="#EF8354"/>
<path d="M463.61 184.86L456.18 198.86C455.076 200.792 453.264 202.22 451.128 202.842C448.991 203.463 446.696 203.231 444.728 202.193C442.76 201.155 441.272 199.392 440.578 197.278C439.884 195.164 440.039 192.862 441.01 190.86L448.43 176.86C444.158 176.789 439.988 178.161 436.591 180.752C433.195 183.343 430.771 187.004 429.711 191.143C428.65 195.281 429.016 199.656 430.748 203.562C432.481 207.467 435.478 210.674 439.258 212.666C443.037 214.658 447.378 215.318 451.579 214.539C455.779 213.761 459.595 211.589 462.41 208.375C465.224 205.161 466.874 201.093 467.092 196.826C467.309 192.559 466.083 188.344 463.61 184.86Z" fill="#EF8354"/>
<path d="M444.72 256.68V240L439.51 227.87L435.51 235.42L426.67 220.42L430.33 213.5C428.381 212.641 426.212 212.413 424.127 212.847C422.042 213.281 420.145 214.355 418.7 215.92C415.01 220.07 416.7 225.57 416.8 225.79C415.545 224.98 414.038 224.655 412.561 224.875C411.083 225.095 409.737 225.844 408.772 226.985C407.807 228.125 407.289 229.577 407.317 231.07C407.344 232.564 407.914 233.996 408.92 235.1C407.657 234.791 406.328 234.885 405.12 235.368C403.913 235.851 402.886 236.7 402.184 237.795C401.483 238.89 401.141 240.177 401.206 241.476C401.272 242.775 401.742 244.021 402.55 245.04C401.072 245.184 399.671 245.767 398.528 246.714C397.384 247.661 396.55 248.929 396.133 250.354C395.716 251.779 395.734 253.296 396.186 254.71C396.638 256.125 397.503 257.371 398.67 258.29L412.37 277.95C415.365 282.259 419.933 285.218 425.09 286.19L431.55 287.42L444.72 256.68Z" fill="#FFBF8D"/>
<path d="M479.86 332.36L447.62 259.6C447.57 259.49 447.71 260.68 445.76 241.03C445.5 238.48 445.29 238.29 440.49 225.32C440.466 225.259 440.455 225.194 440.456 225.128C440.458 225.063 440.473 224.998 440.5 224.939C440.527 224.879 440.566 224.825 440.614 224.781C440.662 224.737 440.718 224.702 440.78 224.68C440.906 224.635 441.045 224.641 441.166 224.697C441.288 224.753 441.383 224.855 441.43 224.98C445.96 237.23 446.43 238.06 446.75 240.98L448.57 259.32L480.77 332C480.789 332.113 480.769 332.229 480.713 332.329C480.657 332.429 480.568 332.507 480.461 332.549C480.354 332.592 480.236 332.596 480.127 332.561C480.018 332.527 479.923 332.456 479.86 332.36ZM409.13 255.56C409.047 255.561 408.966 255.541 408.892 255.503C408.819 255.465 408.756 255.409 408.71 255.34L402.13 245.34C402.057 245.228 402.031 245.092 402.057 244.961C402.083 244.831 402.16 244.715 402.27 244.64C402.381 244.569 402.517 244.544 402.646 244.572C402.775 244.6 402.888 244.679 402.96 244.79L409.55 254.79C409.598 254.865 409.626 254.953 409.629 255.042C409.632 255.132 409.611 255.221 409.568 255.299C409.525 255.378 409.462 255.444 409.385 255.49C409.308 255.536 409.22 255.56 409.13 255.56ZM415 245.3L408.46 235.36C408.387 235.249 408.361 235.113 408.389 234.982C408.416 234.852 408.494 234.738 408.605 234.665C408.716 234.592 408.852 234.566 408.983 234.594C409.113 234.621 409.227 234.699 409.3 234.81L415.84 244.75C415.913 244.861 415.939 244.997 415.911 245.128C415.884 245.258 415.806 245.372 415.695 245.445C415.584 245.518 415.448 245.544 415.317 245.516C415.187 245.489 415.073 245.411 415 245.3ZM422 236.31L416.36 226C416.295 225.885 416.279 225.748 416.314 225.621C416.35 225.493 416.435 225.385 416.55 225.32C416.667 225.259 416.804 225.245 416.93 225.283C417.057 225.32 417.165 225.405 417.23 225.52L422.9 235.81C422.966 235.929 422.982 236.07 422.945 236.201C422.907 236.333 422.819 236.444 422.7 236.51C422.581 236.576 422.44 236.592 422.309 236.555C422.177 236.517 422.066 236.429 422 236.31Z" fill="#68003C"/>
</svg>
