<svg width="512" height="512" viewBox="0 0 512 512" fill="none" xmlns="http://www.w3.org/2000/svg">
<path d="M10.393 199.634L230.01 469.692C233.248 473.673 237.917 476.225 243.016 476.801C248.115 477.376 253.236 475.929 257.28 472.771L459.721 314.637C461.843 312.977 463.6 310.898 464.883 308.529C466.165 306.161 466.946 303.553 467.177 300.869C467.408 298.185 467.083 295.483 466.223 292.93C465.363 290.377 463.986 288.028 462.179 286.031L385.514 201.425L443.65 259.563L450.55 256.504C490.55 238.779 503.017 200.762 503.528 199.152L506 191.379L431.809 140.319L404.755 96.075L449.274 68.289C451.28 67.0367 453.019 65.4007 454.392 63.4748C455.765 61.5489 456.744 59.3711 457.273 57.0661C457.802 54.7611 457.871 52.3743 457.476 50.0426C457.081 47.7109 456.229 45.4801 454.97 43.4782C453.711 41.4762 452.069 39.7425 450.138 38.3764C448.208 37.0103 446.027 36.0387 443.72 35.5174C441.413 34.996 439.026 34.935 436.696 35.3381C434.366 35.7411 432.138 36.6002 430.14 37.866L384.216 66.966C380.567 65.0804 376.479 64.2072 372.378 64.437C341.468 66.379 340.352 65.723 335.829 67.181C325.777 66.146 321.812 75.335 318.729 78.141C313.592 80.284 301.704 80.4 295.029 92.323L291.829 98.033L244.606 45.924C241.515 42.5145 237.323 40.301 232.765 39.671C228.206 39.0409 223.571 40.0346 219.671 42.478L161.183 79.142L157.675 76.466L125.48 95.59C122.639 94.5869 119.604 94.2563 116.613 94.6241C113.623 94.992 110.758 96.0483 108.245 97.71C105.804 99.2897 103.789 101.446 102.378 103.988C100.967 106.531 100.204 109.382 100.155 112.289L68.423 132.9L70.034 136.283L15.188 170.661C12.8367 172.137 10.8255 174.095 9.28754 176.406C7.74959 178.718 6.71991 181.329 6.26663 184.068C5.81335 186.807 5.94679 189.611 6.65814 192.294C7.36948 194.977 8.6425 197.479 10.393 199.634Z" fill="white"/>
<path d="M18.931 192.69L238.547 462.747C239.967 464.493 242.014 465.612 244.25 465.865C246.486 466.117 248.732 465.483 250.505 464.098L452.946 305.965C453.877 305.238 454.648 304.326 455.211 303.288C455.774 302.249 456.117 301.105 456.218 299.928C456.32 298.751 456.177 297.565 455.799 296.446C455.422 295.326 454.817 294.296 454.024 293.421L236.451 53.313C235.096 51.8171 233.258 50.8457 231.259 50.569C229.26 50.2924 227.227 50.7282 225.517 51.8L21.034 179.985C20.003 180.632 19.1212 181.491 18.4469 182.505C17.7726 183.518 17.3211 184.663 17.1223 185.864C16.9235 187.065 16.9819 188.295 17.2937 189.471C17.6055 190.648 18.1636 191.745 18.931 192.69Z" fill="#016FB9"/>
<path d="M29.536 188.006L236.515 445.199L435.534 290.271L228.555 61.246L29.536 188.006Z" fill="#EF8354"/>
<path d="M91.691 156.163L82.505 136.873L112.205 117.584C112.205 117.584 108.837 110.542 114.348 106.867C119.859 103.192 125.983 108.092 125.983 108.092L156.908 89.721L174.973 103.5L91.691 156.163Z" fill="#FCC836"/>
<path d="M287.833 304.575C316.417 249.325 317.768 250.443 316.145 248.075C271.653 183.152 274.554 186.724 273.069 186.388C272.84 186.348 272.608 186.328 272.375 186.329C230.404 188.736 232.475 188.475 231.764 188.806C182.479 211.867 183.413 210.794 183.201 212.877C177.107 276.286 177.165 272.377 178.064 273.509C221.764 328.039 219.598 327.667 222.364 326.758C290.335 304.48 287.16 305.868 287.833 304.575ZM285.272 298.714L245.872 245.142L272.805 193.665L311.167 249.653L285.272 298.714ZM230.957 194.7L232.388 202.388L208.813 211.943L195.713 211.186L230.957 194.7ZM187.947 215.747C210.063 216.94 209.186 217.187 210.171 216.789L233.322 207.405L240.107 243.845L182.914 268.016L187.947 215.747ZM238.047 205.489L267.145 193.7L244.068 237.8L238.047 205.489ZM257.597 192.169L237.113 200.469L235.8 193.4L257.597 192.169ZM222.466 321.461L184.025 272.977L242.089 248.438L281.562 302.107L222.466 321.461ZM154.866 264.3C152.595 264.3 150.375 264.973 148.487 266.235C146.599 267.497 145.127 269.29 144.258 271.388C143.389 273.486 143.162 275.795 143.605 278.022C144.048 280.25 145.141 282.296 146.747 283.901C148.353 285.507 150.399 286.601 152.627 287.043C154.854 287.486 157.163 287.259 159.261 286.39C161.359 285.521 163.152 284.049 164.413 282.16C165.675 280.272 166.348 278.052 166.348 275.781C166.345 272.737 165.134 269.818 162.981 267.666C160.829 265.513 157.91 264.303 154.866 264.3ZM154.866 282.263C153.584 282.263 152.331 281.883 151.265 281.171C150.199 280.458 149.368 279.446 148.877 278.262C148.387 277.077 148.258 275.774 148.509 274.516C148.759 273.259 149.376 272.104 150.283 271.198C151.189 270.291 152.344 269.674 153.601 269.424C154.859 269.173 156.162 269.302 157.347 269.792C158.531 270.283 159.543 271.114 160.256 272.18C160.968 273.246 161.348 274.499 161.348 275.781C161.346 277.499 160.662 279.146 159.447 280.361C158.231 281.575 156.584 282.258 154.866 282.26V282.263ZM305.1 308.8C302.829 308.8 300.609 309.473 298.721 310.735C296.833 311.997 295.362 313.79 294.493 315.888C293.624 317.986 293.397 320.294 293.84 322.521C294.283 324.748 295.376 326.794 296.982 328.4C298.588 330.005 300.634 331.099 302.861 331.542C305.088 331.984 307.396 331.757 309.494 330.888C311.592 330.019 313.385 328.547 314.647 326.659C315.908 324.771 316.581 322.551 316.581 320.28C316.577 317.236 315.366 314.318 313.214 312.166C311.062 310.014 308.144 308.803 305.1 308.8ZM305.1 326.762C303.818 326.762 302.565 326.382 301.499 325.67C300.434 324.958 299.603 323.946 299.112 322.761C298.622 321.577 298.493 320.274 298.743 319.017C298.993 317.76 299.611 316.605 300.517 315.699C301.423 314.792 302.578 314.175 303.835 313.925C305.092 313.674 306.395 313.803 307.579 314.293C308.764 314.783 309.776 315.614 310.488 316.68C311.201 317.745 311.581 318.998 311.581 320.28C311.578 321.998 310.895 323.644 309.68 324.859C308.465 326.073 306.818 326.756 305.1 326.758V326.762ZM278.508 176.684C280.779 176.684 282.999 176.011 284.887 174.749C286.775 173.488 288.247 171.694 289.116 169.596C289.985 167.498 290.212 165.19 289.77 162.963C289.327 160.735 288.233 158.69 286.628 157.084C285.022 155.478 282.976 154.384 280.749 153.941C278.522 153.498 276.214 153.725 274.115 154.593C272.017 155.462 270.224 156.934 268.962 158.821C267.7 160.709 267.026 162.929 267.026 165.2C267.029 168.245 268.239 171.164 270.392 173.317C272.544 175.47 275.463 176.681 278.508 176.684ZM278.508 158.721C279.79 158.721 281.043 159.101 282.109 159.813C283.175 160.526 284.006 161.538 284.497 162.723C284.987 163.907 285.116 165.211 284.865 166.468C284.615 167.725 283.998 168.88 283.091 169.787C282.185 170.693 281.029 171.311 279.772 171.561C278.515 171.811 277.211 171.682 276.027 171.191C274.842 170.701 273.83 169.87 273.118 168.803C272.406 167.737 272.026 166.484 272.026 165.202C272.028 163.484 272.711 161.836 273.927 160.621C275.142 159.406 276.79 158.723 278.508 158.721Z" fill="white"/>
<path d="M341.584 82.941L312.528 91.416C309.172 92.3953 306.336 94.653 304.628 97.703L288.628 126.281C288.283 126.882 288.079 127.553 288.031 128.244C287.983 128.935 288.093 129.627 288.352 130.27C288.611 130.912 289.013 131.487 289.526 131.952C290.04 132.416 290.653 132.758 291.318 132.951C295.018 133.923 300.218 133.615 305.044 127.44C313.821 116.213 323.651 104.071 323.651 104.071L343.011 88.453L341.584 82.941Z" fill="#FFAD92"/>
<path d="M446.094 246.443L388.532 188.881C388.532 188.881 352.607 198.681 326.071 165.611L299.535 146.011L327.7 97.026L375.873 83.962L388.94 91.31L423.64 148.056L493.04 195.821C493.04 195.821 482.02 230.521 446.094 246.443Z" fill="#FFAD92"/>
<path d="M307.587 119.144L321.172 96.617L334.408 80.868C335.32 79.7825 336.445 78.8953 337.713 78.2608C338.981 77.6264 340.365 77.2582 341.781 77.179L372.993 75.428C375.36 75.2956 377.713 75.8648 379.757 77.0644C381.801 78.264 383.446 80.0404 384.485 82.171L388.94 91.31L366.691 101.11L341.176 98.048L329.541 109.479C329.541 109.479 320.788 126.707 311.192 126.318C310.388 126.253 309.615 125.981 308.946 125.531C308.277 125.08 307.736 124.464 307.374 123.744C307.012 123.023 306.841 122.222 306.879 121.416C306.916 120.61 307.16 119.828 307.587 119.144Z" fill="#FFAD92"/>
<path d="M265.125 155.466L436.025 47.166C436.805 46.6714 437.676 46.337 438.587 46.1823C439.498 46.0276 440.43 46.0557 441.33 46.2649C442.23 46.4741 443.079 46.8603 443.828 47.401C444.577 47.9416 445.211 48.6259 445.693 49.414C446.652 50.9804 446.953 52.862 446.531 54.6492C446.109 56.4365 444.998 57.9847 443.44 58.957L270.556 166.862L258.505 169C258.163 169.06 257.811 169.016 257.495 168.873C257.179 168.729 256.914 168.494 256.734 168.197C256.554 167.901 256.468 167.557 256.487 167.21C256.506 166.864 256.629 166.531 256.84 166.256L265.125 155.466Z" fill="#016FB9"/>
<path d="M427.811 52.371L435.704 63.786L430.971 66.739L423.304 55.227L427.811 52.371Z" fill="#CAEAED"/>
<path d="M311.09 128.813C305.696 128.594 302.669 122.461 305.445 117.853L319.031 95.326C319.098 95.2147 319.174 95.1087 319.258 95.009L332.494 79.26C332.705 79.0086 332.964 78.8014 333.255 78.65C333.547 78.4986 333.865 78.4061 334.192 78.3777C334.519 78.3493 334.849 78.3857 335.162 78.4846C335.475 78.5836 335.765 78.7433 336.017 78.9545C336.268 79.1657 336.475 79.4244 336.627 79.7157C336.778 80.0071 336.87 80.3254 336.899 80.6525C336.927 80.9796 336.891 81.309 336.792 81.6221C336.693 81.9351 336.533 82.2256 336.322 82.477L323.212 98.077C310.746 119.803 308.432 120.436 309.688 122.77C311.756 126.618 321.305 120.17 327.313 108.346C327.619 107.765 328.141 107.327 328.767 107.128C329.393 106.928 330.073 106.983 330.658 107.281C331.244 107.579 331.689 108.095 331.897 108.718C332.105 109.341 332.059 110.021 331.77 110.611C327.862 118.305 319.756 129.172 311.09 128.813Z" fill="#DE896D"/>
<path d="M385.776 181.124C385.776 181.124 358.526 178.368 344.748 147.138L334.948 145.301C334.948 145.301 318.618 152.66 304.585 149.746C290.552 146.832 318.108 129.379 318.108 129.379C318.108 129.379 331.274 116.213 337.091 116.213C342.908 116.213 378.12 118.969 378.12 118.969C378.12 118.969 409.965 146.525 385.776 181.124Z" fill="#FFAD92"/>
<path d="M363.028 173.545C362.477 173.546 361.941 173.363 361.505 173.025C353.505 166.757 347.154 158.632 343.005 149.354L335.235 147.898C331.778 149.339 317.173 154.913 304.077 152.198C299.768 151.303 298.495 149.092 298.186 147.398C296.973 140.724 310.424 131.317 316.537 127.423C319.268 124.712 330.737 113.723 337.092 113.723C342.939 113.723 376.873 116.373 378.315 116.487C378.967 116.55 379.569 116.866 379.991 117.368C380.412 117.87 380.62 118.517 380.569 119.171C380.518 119.824 380.212 120.431 379.717 120.862C379.223 121.292 378.579 121.511 377.925 121.471C377.574 121.444 342.746 118.723 337.092 118.723C334.142 118.723 325.858 125.177 319.876 131.156C319.746 131.287 319.602 131.402 319.446 131.501C309.667 137.701 302.632 144.657 303.106 146.508C304.19 147.947 318.92 149.824 333.921 143.031C334.388 142.822 334.907 142.761 335.409 142.854C344.397 144.868 346.128 144.088 347.033 146.139C350.845 155.14 356.872 163.03 364.554 169.074C364.968 169.393 365.272 169.833 365.422 170.333C365.573 170.833 365.564 171.368 365.395 171.862C365.227 172.356 364.908 172.785 364.483 173.089C364.058 173.393 363.548 173.556 363.026 173.555L363.028 173.545Z" fill="#DE896D"/>
</svg>
