<svg width="512" height="512" viewBox="0 0 512 512" fill="none" xmlns="http://www.w3.org/2000/svg">
<path d="M474.759 81.283H37.241C19.9871 81.283 6 95.2701 6 112.524V399.476C6 416.73 19.9871 430.717 37.241 430.717H474.759C492.013 430.717 506 416.73 506 399.476V112.524C506 95.2701 492.013 81.283 474.759 81.283Z" fill="white"/>
<path d="M494.187 112.524V399.477C494.184 404.628 492.136 409.568 488.493 413.21C484.85 416.852 479.91 418.898 474.759 418.9H37.241C34.6893 418.902 32.1623 418.4 29.8044 417.425C27.4466 416.449 25.3043 415.018 23.4999 413.214C21.6955 411.41 20.2645 409.267 19.2887 406.909C18.3129 404.552 17.8114 402.025 17.813 399.473V112.524C17.8118 109.973 18.3136 107.446 19.2895 105.088C20.2655 102.731 21.6966 100.589 23.5009 98.7851C25.3053 96.9811 27.4475 95.5505 29.8051 94.575C32.1628 93.5995 34.6895 93.0983 37.241 93.1H474.759C479.91 93.1016 484.851 95.1484 488.494 98.7907C492.137 102.433 494.184 107.373 494.187 112.524Z" fill="#A9542F"/>
<path d="M494.187 112.524V138.347H17.813V112.524C17.8118 109.973 18.3136 107.446 19.2895 105.088C20.2655 102.731 21.6966 100.589 23.5009 98.7851C25.3053 96.9811 27.4475 95.5505 29.8051 94.575C32.1628 93.5995 34.6895 93.0983 37.241 93.1H474.759C479.91 93.1016 484.851 95.1484 488.494 98.7907C492.137 102.433 494.184 107.373 494.187 112.524Z" fill="#016FB9"/>
<path d="M38.93 123.263C42.2619 123.263 44.963 120.562 44.963 117.23C44.963 113.898 42.2619 111.197 38.93 111.197C35.5981 111.197 32.897 113.898 32.897 117.23C32.897 120.562 35.5981 123.263 38.93 123.263Z" fill="#EF8354"/>
<path d="M60.047 123.263C63.3789 123.263 66.08 120.562 66.08 117.23C66.08 113.898 63.3789 111.197 60.047 111.197C56.7151 111.197 54.014 113.898 54.014 117.23C54.014 120.562 56.7151 123.263 60.047 123.263Z" fill="#FCC836"/>
<path d="M81.165 123.263C84.4969 123.263 87.198 120.562 87.198 117.23C87.198 113.898 84.4969 111.197 81.165 111.197C77.8331 111.197 75.132 113.898 75.132 117.23C75.132 120.562 77.8331 123.263 81.165 123.263Z" fill="#65CED2"/>
<path d="M494.187 156.448V399.477C494.184 404.628 492.136 409.568 488.493 413.21C484.85 416.852 479.91 418.898 474.759 418.9H37.241C34.6893 418.902 32.1623 418.4 29.8044 417.425C27.4466 416.449 25.3043 415.018 23.4999 413.214C21.6955 411.41 20.2645 409.267 19.2887 406.91C18.3129 404.552 17.8114 402.025 17.813 399.473V138.347H116.491L132.449 156.447L494.187 156.448Z" fill="#EF8354"/>
<path d="M494.187 180.582V399.482C494.183 404.632 492.134 409.571 488.491 413.211C484.849 416.852 479.909 418.898 474.759 418.9H37.241C34.6893 418.902 32.1623 418.4 29.8044 417.425C27.4466 416.449 25.3043 415.018 23.4999 413.214C21.6955 411.41 20.2645 409.267 19.2887 406.909C18.3129 404.552 17.8114 402.025 17.813 399.473V180.582H494.187Z" fill="white"/>
<path d="M93.249 198.682H35.897C34.2401 198.682 32.897 200.025 32.897 201.682V213.782C32.897 215.439 34.2401 216.782 35.897 216.782H93.249C94.9059 216.782 96.249 215.439 96.249 213.782V201.682C96.249 200.025 94.9059 198.682 93.249 198.682Z" fill="#E6E6E6"/>
<path d="M159.617 246.95H35.897C34.2401 246.95 32.897 248.293 32.897 249.95V295.235C32.897 296.892 34.2401 298.235 35.897 298.235H159.617C161.274 298.235 162.617 296.892 162.617 295.235V249.95C162.617 248.293 161.274 246.95 159.617 246.95Z" fill="#E6E6E6"/>
<path d="M93.249 307.285H35.897C34.2401 307.285 32.897 308.628 32.897 310.285V322.385C32.897 324.042 34.2401 325.385 35.897 325.385H93.249C94.9059 325.385 96.249 324.042 96.249 322.385V310.285C96.249 308.628 94.9059 307.285 93.249 307.285Z" fill="#E6E6E6"/>
<path d="M467.325 198.682H409.973C408.316 198.682 406.973 200.025 406.973 201.682V213.782C406.973 215.439 408.316 216.782 409.973 216.782H467.325C468.982 216.782 470.325 215.439 470.325 213.782V201.682C470.325 200.025 468.982 198.682 467.325 198.682Z" fill="#E6E6E6"/>
<path d="M176.242 246.11H477.861V381.729H176.242V246.11Z" fill="#EF8354"/>
<path d="M477.861 348.974L421.612 317.809C409.721 311.221 396.732 311.587 384.997 318.841L283.263 381.73H477.863L477.861 348.974Z" fill="#003B63"/>
<path d="M176.242 331.207L238.357 283.242C251.619 273 267.067 272.564 280.557 282.049L422.267 381.73H176.242V331.207Z" fill="#016FB9"/>
<path d="M355.289 301.22C362.555 301.22 368.446 295.814 368.446 289.145C368.446 282.476 362.555 277.07 355.289 277.07C348.023 277.07 342.132 282.476 342.132 289.145C342.132 295.814 348.023 301.22 355.289 301.22Z" fill="#FCC836"/>
</svg>
